<?xml version="1.0" standalone="no"?>
<!DOCTYPE svg PUBLIC "-//W3C//DTD SVG 1.1//EN" "http://www.w3.org/Graphics/SVG/1.1/DTD/svg11.dtd" >
<svg xmlns="http://www.w3.org/2000/svg" xmlns:xlink="http://www.w3.org/1999/xlink" version="1.1">
<metadata>
Created by FontForge 20170924 at Thu Sep 12 10:21:58 2019
 By www-data
Copyright (c) 2019 by BumBumType. All rights reserved. Desktop use is strictly prohibited.
</metadata>
<defs>
<font id="AlbraBlack" horiz-adv-x="1220" >
  <font-face 
    font-family="Albra Black"
    font-weight="800"
    font-stretch="normal"
    units-per-em="2048"
    panose-1="0 0 9 0 0 0 0 0 0 0"
    ascent="1610"
    descent="-438"
    x-height="997"
    cap-height="1465"
    bbox="-305 -589 2899 2216"
    underline-thickness="0"
    underline-position="0"
    unicode-range="U+0020-2212"
  />
<missing-glyph horiz-adv-x="1781" 
 />
    <glyph glyph-name="f_f.liga" unicode="ff" horiz-adv-x="1486" 
d="M1085 1458h-6q-53 0 -53 -61q0 -134 219 -400h222l-19 -77h-203v-680q0 -103 18 -142q17 -38 80 -82v-16h-633v16q58 44 74 81q17 39 17 143v680h-260v-680q0 -102 17 -142q16 -38 72 -82v-16h-625v16q58 44 74 81q17 39 17 143v680h-86v77h86v9q0 244 144 379t382 135
q95 0 278 -19l-145 -278h-11q-59 92 -121 158q-65 69 -109 69q-57 0 -57 -90q0 -117 88 -363h260v17q0 242 90 384t289 142q159 0 381 -82l-242 -284l-12 6q-132 278 -226 278z" />
    <glyph glyph-name="f_i.liga" unicode="fi" horiz-adv-x="1312" 
d="M1221 240l-4 -2q0 -104 16 -142t72 -82v-16h-625v16q58 44 74 82q17 40 17 142v680h-223v-680q0 -103 18 -142q17 -38 77 -82v-16h-631v16q58 44 74 82q17 40 17 142v680h-94v77h94v21q0 150 57 259q56 108 146 163q88 54 174 78q85 24 170 24q207 0 496 -108l-260 -342
h-13q-44 151 -105 263q-62 113 -129 113q-88 0 -88 -239v-230h223q240 0 447 33v-790z" />
    <glyph glyph-name="f_l.liga" unicode="fl" horiz-adv-x="1329" 
d="M1237 240l-3 -1q0 -102 17 -142q16 -38 72 -82v-16h-625v16q58 44 74 82q17 40 17 142v1161q-72 72 -134 72q-109 0 -108 -259v-217h176l-12 -77h-164v-680q0 -102 20 -142q19 -38 87 -82v-16h-643v16q58 44 74 82q17 40 17 142v680h-92v77h92v23q0 121 36 214
q36 92 92 150q56 57 130 93q77 37 144 50q72 14 143 14q147 0 369 -45l221 37v-1292z" />
    <glyph glyph-name=".notdef" horiz-adv-x="1781" 
 />
    <glyph glyph-name=".null" horiz-adv-x="0" 
 />
    <glyph glyph-name="nonmarkingreturn" horiz-adv-x="682" 
 />
    <glyph glyph-name="space" unicode=" " horiz-adv-x="462" 
 />
    <glyph glyph-name="exclam" unicode="!" horiz-adv-x="634" 
d="M281 453h-1q-104 649 -204 987v24h487v-24q-97 -340 -207 -987h-75zM321 -20l-1 -1q-88 0 -150 59q-61 58 -61 143q0 83 63 143t149 60q85 0 147 -60q61 -60 61 -142q0 -85 -61 -143q-62 -59 -147 -59z" />
    <glyph glyph-name="quotedbl" unicode="&#x22;" horiz-adv-x="874" 
d="M240 899h-32q-70 266 -171 565h377q-107 -315 -174 -565zM667 897h-31q-68 251 -170 565h375q-89 -267 -174 -565z" />
    <glyph glyph-name="numbersign" unicode="#" horiz-adv-x="1253" 
d="M1217 840h-297l-123 -342h288l-14 -78h-301l-149 -420h-72l149 420h-327l-152 -420h-72l152 420h-274l14 78h289l125 342h-283l14 78h297l146 403h71l-145 -403h321l144 403h72l-144 -403h285zM725 498l123 342h-324l-125 -342h326z" />
    <glyph glyph-name="dollar" unicode="$" horiz-adv-x="1210" 
d="M1143 449l-3 -2q0 -123 -44 -219q-44 -94 -120 -147q-78 -53 -159 -80q-81 -26 -174 -31v-159h-88v161q-207 12 -447 103l-29 518h16q91 -186 215 -342q123 -155 244 -192v439q-1 0 -16 9q-6 3 -16.5 10.5t-14.5 9.5q-24 15 -27 17q-65 36 -108 62q-31 19 -99 71
q-65 49 -96 93q-30 41 -58 113q-27 69 -27 147q0 193 131 307q130 113 333 124v148h88v-148q164 -7 378 -63l43 -508h-16q-84 164 -192 303q-108 140 -214 180v-377q49 -28 75 -42q118 -65 147 -82q47 -27 112 -76q68 -51 95 -94q30 -47 50 -109q21 -65 21 -144zM421 1231
h-1q0 -52 29 -92q28 -38 105 -88v338q-55 -6 -94 -48t-39 -110zM641 51l-2 1q63 6 107 50t44 128q0 67 -32 111t-117 101v-391z" />
    <glyph glyph-name="percent" unicode="%" horiz-adv-x="1988" 
d="M518 -33l-53 33l997 1501l51 -35zM477 522q-194 0 -313 122q-118 121 -118 335t122 345q121 130 321 130q193 0 312 -123q119 -124 119 -336q0 -216 -121 -344q-121 -129 -322 -129zM520 569v-1q47 0 77 63t30 191q0 102 -15 227q-15 126 -58 240q-44 116 -108 116
q-47 0 -77 -63t-30 -192q0 -104 15 -228q15 -123 59 -239q43 -114 107 -114zM1516 925l-2 -1q196 0 314 -123q119 -124 119 -334q0 -215 -121 -345q-122 -131 -318 -131t-315 123q-119 124 -119 336q0 215 121 345t321 130zM1473 875v-3q-47 0 -78 -63q-31 -62 -31 -190
q0 -102 15 -225q15 -122 59 -239q43 -115 107 -115q47 0 77 63t30 190q0 101 -15 226q-15 126 -58 240q-44 116 -106 116z" />
    <glyph glyph-name="ampersand" unicode="&#x26;" horiz-adv-x="1769" 
d="M565 -25l1 -4q-244 0 -384 107q-139 106 -139 276q0 82 33 148t95 110q61 43 125 72q60 27 147 52q-186 218 -186 399q0 155 132 256q131 100 343 100q196 0 311 -84q116 -84 116 -217q0 -110 -72 -168q-73 -59 -222 -119l375 -395q19 41 35 111q8 35 8 69
q0 100 -119 180v17h465v-17q-92 -78 -144 -134q-49 -54 -135 -177q-7 -15 -27 -44q-19 -27 -36 -56l148 -158q58 -61 116 -61q106 0 195 194l14 -6q-32 -187 -157 -321q-126 -135 -316 -135q-90 0 -157 34q-68 34 -141 102q-173 -131 -424 -131zM828 957l1 -1q45 122 45 219
q0 131 -39 188t-84 57q-39 0 -66 -41t-27 -110q0 -76 39 -142t131 -170zM831 155l-1 -1q53 -2 107 9l-451 516q-29 -57 -27 -143q0 -158 105 -264t267 -117z" />
    <glyph glyph-name="quotesingle" unicode="'" horiz-adv-x="446" 
d="M240 899h-32q-70 266 -171 565h377q-107 -315 -174 -565z" />
    <glyph glyph-name="parenleft" unicode="(" horiz-adv-x="817" 
d="M795 1579l-1 -5q-177 -189 -263 -406q-87 -219 -87 -568q0 -350 87 -567q87 -218 264 -407l-13 -22q-99 38 -188 87q-90 49 -186 135q-96 85 -163 190q-68 105 -111 256q-44 153 -44 330t44 330q43 151 111 256q67 105 163 190q94 84 186 136q86 49 188 88z" />
    <glyph glyph-name="parenright" unicode=")" horiz-adv-x="817" 
d="M39 1602v1q102 -39 188 -88q92 -52 186 -136q96 -85 163 -190q68 -105 111 -256q44 -153 44 -330t-44 -330q-43 -151 -111 -256q-67 -105 -163 -190t-186 -135q-89 -49 -188 -87l-12 22q176 188 263 407t87 569t-87 569t-263 407z" />
    <glyph glyph-name="asterisk" unicode="*" horiz-adv-x="980" 
d="M940 1032l-20 -6l-371 27l315 -179l13 -18l-283 -203l-14 19l-88 356l-91 -358l-14 -17l-281 201l15 16l319 185l-372 -31l-23 6l109 326l20 -6l291 -240l-148 332v22h351v-22l-148 -336l291 244l23 6z" />
    <glyph glyph-name="plus" unicode="+" horiz-adv-x="897" 
d="M874 729v-78h-387v-375h-73v375h-389v78h389v377h73v-377h387z" />
    <glyph glyph-name="comma" unicode="," horiz-adv-x="591" 
d="M293 389l-3 -3q84 0 147 -64t63 -174q0 -132 -94 -284t-267 -226l-10 20q128 145 178 333h-14q-87 0 -143 55q-57 56 -57 139t59 144q58 60 141 60z" />
    <glyph glyph-name="hyphen" unicode="-" horiz-adv-x="780" 
d="M719 612v-112h-653v112h653z" />
    <glyph glyph-name="period" unicode="." horiz-adv-x="598" 
d="M301 -20l-4 -2q-83 0 -145 60q-61 60 -61 144t62 146t146 62q85 0 146 -61q62 -62 62 -145q0 -84 -61 -144q-62 -60 -145 -60z" />
    <glyph glyph-name="slash" unicode="/" horiz-adv-x="679" 
d="M-6 -240l592 1821h73l-591 -1821h-74z" />
    <glyph glyph-name="zero" unicode="0" horiz-adv-x="1335" 
d="M668 -29q-110 0 -217 45q-106 45 -198 131q-90 84 -148 233q-57 147 -57 332q0 181 56 329q56 147 147 237q93 91 199 137q109 47 219 47q112 0 217 -46q106 -46 198 -135q91 -88 147 -236t56 -332q0 -183 -56 -331t-148 -234q-93 -87 -199 -132t-216 -45zM668 43
q170 0 170 668q0 684 -172 684q-168 0 -168 -680q0 -672 170 -672z" />
    <glyph glyph-name="one" unicode="1" horiz-adv-x="821" 
d="M104 0l1 16q84 50 104 88q21 39 21 146v772q0 52 -21 90q-22 39 -46 59q-29 24 -102 74v12l607 218v-1225q0 -106 21 -145t104 -89v-16h-689z" />
    <glyph glyph-name="two" unicode="2" horiz-adv-x="1069" 
d="M756 342l-3 -3q96 0 147 27q52 28 125 99l16 -4l-143 -463h-899v57q312 322 442 525q129 201 129 368q0 128 -62 198q-62 69 -156 69q-136 0 -297 -152l-34 20q116 172 242 276q125 104 288 104t282 -103q120 -104 120 -288q0 -49 -11 -102q-10 -51 -27 -93
q-16 -41 -48 -88q-34 -51 -57 -80q-24 -31 -71 -75q-39 -36 -75 -67q-29 -24 -82 -64q-52 -39 -78 -57q-5 -4 -18.5 -13.5t-28.5 -20t-31 -21.5q-47 -34 -72 -49h402z" />
    <glyph glyph-name="three" unicode="3" horiz-adv-x="1124" 
d="M66 1112l2 2q96 164 243 255q148 92 315 92q158 0 257 -75t99 -194q0 -133 -120 -229q-119 -95 -290 -142v-2q54 10 107 10q167 0 282 -101q114 -100 114 -288q0 -217 -159 -340t-406 -123q-211 0 -457 86l156 420l20 -4q113 -428 285 -428q82 0 132 93q50 94 50 230
q0 153 -64 245q-64 93 -186 93q-78 0 -170 -39l-12 49q361 175 363 362q0 80 -57 128t-142 48q-78 0 -168 -40q-92 -41 -168 -133z" />
    <glyph glyph-name="four" unicode="4" horiz-adv-x="1271" 
d="M1219 416l-174 1v-166q0 -106 21 -145t104 -89v-16h-645v16q84 51 105 89t21 144v166h-616v20l962 1020h47v-911h195zM230 546h422v442z" />
    <glyph glyph-name="five" unicode="5" horiz-adv-x="1165" 
d="M524 893h-4q256 0 406 -117t150 -336q0 -134 -57 -231q-58 -99 -148 -146q-92 -48 -181 -69q-90 -21 -182 -21q-198 0 -462 86l111 500h16q38 -136 82 -244q45 -110 111 -193t132 -83q76 0 129 93q52 92 52 235q0 174 -84 255t-219 81q-150 0 -262 -73l209 807h524
q97 0 144 18t111 69l14 -4l-149 -420h-652l-63 -244q108 37 272 37z" />
    <glyph glyph-name="six" unicode="6" horiz-adv-x="1249" 
d="M756 811l-4 -1q78 0 153 -21t142 -64t108 -123t41 -183q0 -217 -164 -333t-414 -116q-286 0 -429 152q-142 151 -142 405t144 467t369 333t483 138l5 -32q-242 -96 -390 -283t-193 -435q123 96 291 96zM627 34h-1q78 0 123 85t45 216q0 146 -57 245t-163 99
q-73 0 -125 -49q-5 -55 -7 -133q0 -221 48 -342t137 -121z" />
    <glyph glyph-name="seven" unicode="7" horiz-adv-x="1105" 
d="M213 0v-4q98 524 570 1061h-483q-103 0 -150 -25q-48 -26 -117 -99l-17 4l138 496h942v-58q-58 -62 -118 -140q-56 -72 -96 -132t-78 -141q-16 -34 -61 -133q-24 -53 -48 -142q-28 -105 -36 -134q-13 -49 -29 -142q-17 -101 -21 -133q-6 -46 -18 -142q-13 -106 -18 -136
h-360z" />
    <glyph glyph-name="eight" unicode="8" horiz-adv-x="1196" 
d="M584 -29l3 -1q-227 0 -381 102t-154 278q0 136 90 225q90 88 221 114q-256 147 -256 385q0 185 141 287t362 102q214 0 348 -92q133 -91 133 -219q0 -79 -55 -141q-56 -63 -117 -93q-60 -29 -123 -43q57 -33 84 -48q25 -14 87 -62q61 -47 92 -90q32 -44 59 -116t27 -153
q0 -147 -84 -249t-207 -144t-270 -42zM753 904v-1q80 123 78 254q0 101 -59 169q-58 67 -147 67q-73 0 -117 -48q-43 -47 -43 -129q0 -100 69 -169q70 -70 219 -143zM589 43l1 -1q90 0 146 51t56 142q0 101 -87 195q-86 93 -300 223q-78 -131 -77 -279q0 -160 72 -246
q72 -85 189 -85z" />
    <glyph glyph-name="nine" unicode="9" horiz-adv-x="1249" 
d="M631 1464h-2q287 0 428 -151t141 -405q0 -193 -84 -364t-222 -291t-318 -195q-179 -74 -370 -88l-6 31q241 96 390 284q148 187 193 435q-123 -96 -288 -96q-79 0 -153 21q-71 20 -142 65q-68 43 -109 122t-41 183q0 215 166 332t417 117zM670 756v-1q70 0 126 47
q6 66 6 135q0 223 -48 345q-48 121 -137 121q-78 0 -123 -86q-45 -85 -45 -215q0 -142 57 -244t164 -102z" />
    <glyph glyph-name="colon" unicode=":" horiz-adv-x="565" 
d="M285 582l-2 -1q-84 0 -148 62q-63 61 -63 147t63 147q64 62 149 62t147 -62t62 -147q0 -86 -61 -147t-147 -61zM283 -21l-2 -1q-86 0 -148 61q-63 61 -63 147t63 149t149 63t147 -63q62 -64 62 -148q0 -86 -61 -147t-147 -61z" />
    <glyph glyph-name="semicolon" unicode=";" horiz-adv-x="565" 
d="M285 582l-2 -1q-84 0 -148 62q-63 61 -63 147t63 147q64 62 149 62t147 -62t62 -147q0 -86 -61 -147t-147 -61zM279 388l1 -3q85 0 146 -64q62 -65 62 -174q0 -132 -94 -284t-267 -226l-10 20q128 145 178 333h-14q-86 0 -142 55q-57 55 -57 139t57 144t140 60z" />
    <glyph glyph-name="less" unicode="&#x3c;" horiz-adv-x="874" 
d="M852 250l-827 434v47l827 438v-84l-719 -380l719 -371v-84z" />
    <glyph glyph-name="equal" unicode="=" horiz-adv-x="811" 
d="M41 803v80h727v-80h-727zM41 506v78h727v-78h-727z" />
    <glyph glyph-name="greater" unicode="&#x3e;" horiz-adv-x="874" 
d="M25 250v84l720 371l-720 380v84l827 -438v-47z" />
    <glyph glyph-name="question" unicode="?" horiz-adv-x="1013" 
d="M358 451l-2 -2q0 130 40 240q40 111 87 177q47 67 86 152q39 86 39 170q0 95 -39 164t-94 69q-28 0 -55 -24t-48 -60t-39 -81q-17 -42 -31 -91q-11 -37 -22 -82q-11 -44 -15 -61l-4 -25l-14 -4l-203 371l2 2q200 118 441 126h27q203 0 335 -90t132 -266q0 -96 -44 -173
t-111 -131q-75 -60 -139 -104q-73 -50 -138 -121t-94 -156h-97zM416 -22v-1q-87 0 -151 59q-63 58 -63 143q0 83 63 143t151 60q84 0 147 -60t63 -142t-63 -142t-147 -60z" />
    <glyph glyph-name="at" unicode="@" horiz-adv-x="1605" 
d="M1399 -41l158 -157q-309 -141 -626 -141q-373 0 -627 219q-253 219 -253 586q0 352 231 583t572 231q280 0 459 -161t174 -414l-12 -687h-21q-143 113 -231 113q-51 0 -105 -39q-49 -36 -120 -79q-65 -40 -152 -40q-170 0 -273 135q-103 134 -103 356q0 226 111 368
q111 143 306 143q86 0 158 -27q73 -27 101 -54v43q0 25 -21 67q-22 45 -61 92q-41 50 -120 86q-80 36 -175 36q-43 0 -85 -9q-44 -10 -96 -31q-55 -23 -99 -70q-46 -49 -84 -118t-61 -186q-22 -113 -22 -261q0 -113 14 -225q13 -105 53 -220q39 -112 102 -193
q62 -80 168 -133q104 -52 242 -52q171 0 298 71t200 168zM1131 192l16 504q-27 81 -71 147q-44 65 -96 65q-111 0 -111 -360q0 -438 142 -438q68 0 120 82z" />
    <glyph glyph-name="A" unicode="A" horiz-adv-x="1497" 
d="M1352 225l1 -4q17 -47 29 -72q8 -18 36 -58q27 -39 72 -78v-16h-756v16q61 43 85 76t24 74t-41 166l-47 139h-398l-8 -22q-53 -147 -53 -213q0 -58 35 -108q34 -49 116 -111v-16h-434v16q101 101 150 185t101 236l254 729l-88 172q243 82 430 198zM396 584h320l-162 479z
" />
    <glyph glyph-name="B" unicode="B" horiz-adv-x="1527" 
d="M975 829h-3q88 -11 171 -36t159 -72q76 -46 124 -124t48 -178q0 -203 -187 -311t-480 -108h-784v16q84 51 105 89q21 37 21 144v964q0 109 -21 147q-21 37 -105 88v16h860q139 0 243 -33q105 -33 158 -85q54 -52 79 -106q25 -53 25 -107q0 -133 -122 -207
q-123 -74 -291 -92v-5zM693 1391h-57v-564h57q98 0 155 75t57 202q0 132 -58 209q-58 78 -154 78zM751 78l-1 -2q207 0 207 330q0 90 -13 154q-13 65 -36 100q-22 34 -49 58q-26 23 -54 28q-27 4 -51 9q-24 4 -38 -2l-80 -6v-566q0 -43 33 -70t82 -33z" />
    <glyph glyph-name="C" unicode="C" horiz-adv-x="1462" 
d="M836 1419l-4 -4q-43 0 -85 -33q-41 -32 -82 -105q-40 -72 -66 -212q-25 -137 -25 -329q0 -184 24 -324q24 -141 64 -216q40 -76 84 -114t88 -38q98 0 234 150q137 151 261 349h17l-41 -514q-270 -59 -508 -60q-113 0 -215 21q-101 21 -202 75q-100 53 -172 135
q-72 81 -117 214q-45 134 -45 303q0 389 214 582q215 194 555 194q191 0 495 -59l41 -500h-17q-135 198 -270 341q-136 144 -228 144z" />
    <glyph glyph-name="D" unicode="D" horiz-adv-x="1613" 
d="M686 1464l-3 3q437 0 658 -175q222 -176 222 -511q0 -162 -49 -300q-50 -140 -145 -247q-96 -108 -249 -171t-350 -63h-745v16q84 51 105 89q21 37 21 144v964q0 109 -21 147q-21 37 -105 88v16h661zM747 81h-1q115 10 202 180t87 500q0 134 -16 234q-17 103 -39 168
t-60 111q-37 46 -68 69t-74 35q-46 13 -65 14q-14 1 -53 1h-23v-1209q0 -41 32 -68q32 -28 78 -35z" />
    <glyph glyph-name="E" unicode="E" horiz-adv-x="1374" 
d="M1272 489l15 -4l-49 -489h-1214v16q84 51 105 89q21 37 21 144v964q0 109 -21 147q-21 37 -105 88v16h1142l37 -503h-16q-51 169 -176 299q-125 129 -315 129h-57v-574h63q103 0 186 56q82 55 129 134h10v-465h-10q-49 88 -129 147t-186 57l-63 -2v-557q0 -49 42 -78
q41 -28 101 -28h25q145 0 265 123q121 124 200 291z" />
    <glyph glyph-name="F" unicode="F" horiz-adv-x="1286" 
d="M1182 1464l38 -503h-17q-51 169 -176 299q-125 129 -315 129h-72v-576h55q103 0 186 56q83 55 129 132h10v-464h-10q-46 82 -128 145q-81 62 -188 57l-55 -2v-487q0 -106 27 -144q27 -37 137 -90v-16h-778v16q84 51 105 89q21 37 21 144v964q0 109 -21 147
q-21 37 -105 88v16h1157z" />
    <glyph glyph-name="G" unicode="G" horiz-adv-x="1609" 
d="M729 -29l1 -4q-82 0 -165 18q-80 17 -178 68q-95 49 -169 129q-72 78 -121 218q-48 138 -48 314q0 200 62 354q61 152 173 244q111 92 255 135q146 44 320 44q283 0 516 -78l39 -518h-16q-123 216 -265 368q-144 155 -267 155q-119 0 -203 -160t-84 -529q0 -191 26 -333
q25 -139 69 -211q43 -71 90 -103t99 -32q139 0 139 174v248q0 256 -210 264v27h751v-16q-50 -50 -63 -88t-13 -146v-506h-18q-122 74 -237 74q-67 0 -213 -55t-270 -55z" />
    <glyph glyph-name="H" unicode="H" horiz-adv-x="1710" 
d="M1690 1448l2 1q-84 -51 -105 -88t-21 -147v-964q0 -106 21 -145t104 -89v-16h-740v16q84 50 104 88q21 39 21 146v487h-436v-487q0 -106 21 -144t105 -90v-16h-741v16q84 51 105 89q21 37 21 144v964q0 109 -21 147q-21 37 -105 88v16h741v-16q-84 -51 -105 -88
q-21 -38 -21 -147v-360h436v360q0 109 -21 147q-21 37 -105 88v16h740v-16z" />
    <glyph glyph-name="I" unicode="I" horiz-adv-x="786" 
d="M25 0v17q84 51 105 89t21 144v964q0 110 -21 147t-105 88v16h741v-16q-84 -51 -105 -88t-21 -147v-964q0 -106 21 -144t105 -90v-16h-741z" />
    <glyph glyph-name="J" unicode="J" horiz-adv-x="786" 
d="M25 -266l-7 17q140 89 141 261v1202q0 110 -21 147t-105 88v16h739v-16q-84 -51 -105 -88t-21 -147v-897q1 -244 -154.5 -390t-466.5 -193z" />
    <glyph glyph-name="K" unicode="K" horiz-adv-x="1687" 
d="M639 250v1q0 -107 21 -144t105 -90v-16h-741v16q84 51 105 89t21 144v964q0 110 -21 147t-105 88v16h741v-16q-84 -51 -105 -88t-21 -147v-964zM678 671l387 394q102 102 102 201q0 112 -135 183v16h615v-16q-55 -31 -112 -69q-54 -36 -111 -84q-17 -14 -33 -27.5
t-31 -26t-20 -16.5q-27 -22 -93 -84q-73 -68 -77 -72l-137 -125l414 -680q122 -202 234 -248v-16h-645z" />
    <glyph glyph-name="L" unicode="L" horiz-adv-x="1320" 
d="M1221 489h13l-49 -489h-1163v16q84 51 105 89q21 37 21 144v964q0 109 -21 147q-21 37 -105 88v16h741v-16q-84 -51 -105 -88q-21 -38 -21 -147v-1032q0 -44 38 -73q37 -28 93 -33q139 7 258 131q119 123 195 283z" />
    <glyph glyph-name="M" unicode="M" horiz-adv-x="1937" 
d="M1915 1448v-1q-84 -51 -105 -88t-21 -147v-964q0 -106 21 -145t104 -89v-16h-739v16q82 49 103 88t21 146v823h-4q-43 -92 -106 -218q-53 -107 -118 -242q-30 -62 -100 -216q-61 -135 -111 -258l-63 2q-54 113 -128 254q-65 124 -114 214q-43 79 -135 246
q-32 59 -71.5 130t-47.5 86v-582q0 -169 15 -249t51 -123q37 -44 127 -99v-16h-469v16q93 56 128 99q36 43 51 123t15 249v725q-59 135 -194 236v16h620q254 -452 389 -731l365 731h516v-16z" />
    <glyph glyph-name="N" unicode="N" horiz-adv-x="1538" 
d="M1526 1464l-1 -15q-90 -55 -126 -99q-35 -43 -52 -123q-16 -77 -16 -249v-977h-377q-262 462 -649 1071v-584q0 -170 15 -249t51 -123t126 -99v-16h-471v16q90 55 126 99q35 43 52 123q17 82 17 249v621q0 95 -45 169q-46 75 -151 171v16h581q270 -414 641 -1047v559
q0 169 -15 249t-51 123t-126 99v16h471z" />
    <glyph glyph-name="O" unicode="O" horiz-adv-x="1671" 
d="M834 -29v-1q-368 0 -576 198q-209 198 -209 564t209 563t576 197q372 0 578 -196q207 -196 207 -563q0 -366 -208 -564q-209 -198 -577 -198zM895 50l-4 1q100 0 157 116q57 115 57 336q0 117 -13 246q-14 139 -46 293q-33 160 -103 264q-71 105 -168 105
q-101 0 -157 -114q-55 -113 -55 -333q0 -108 14 -246q14 -139 46 -296q33 -161 104 -267q71 -105 168 -105z" />
    <glyph glyph-name="P" unicode="P" horiz-adv-x="1441" 
d="M1389 1069l-1 1q0 -424 -750 -430v-389q0 -106 24 -145t116 -89v-16h-753v16q84 51 105 89t21 144v964q0 110 -21 147t-105 88v16h780q293 0 438 -105q146 -105 146 -291zM663 1394h-25v-684q281 12 281 356q0 328 -256 328z" />
    <glyph glyph-name="Q" unicode="Q" horiz-adv-x="1671" 
d="M918 -27l-1 -3q67 -66 344 -65q128 0 291 14v-14l-292 -342q-153 51 -282 155q-127 103 -165 251q-359 6 -561 204q-203 198 -203 558q0 367 209 564t576 197q372 0 578 -196q207 -196 207 -564q0 -343 -185 -540q-184 -196 -516 -219zM562 964l-4 1q0 -108 14 -246
q14 -139 46 -296q33 -161 104 -267q70 -105 168 -105q100 0 157 116q57 115 57 336q0 117 -13 246q-14 139 -46 293q-33 160 -103 264q-70 105 -168 105q-102 0 -157 -114q-55 -113 -55 -333z" />
    <glyph glyph-name="R" unicode="R" horiz-adv-x="1624" 
d="M1425 244l-1 -1q62 -103 192 -228v-16h-594q-175 325 -328 680l-55 -4v-426q0 -107 21 -144t105 -90v-16h-741v16q84 51 105 89t21 144v964q0 110 -21 147t-105 88v16h778q285 0 449 -98t164 -267q0 -116 -75 -208q-74 -91 -200 -136q104 -213 285 -510zM638 1390
l-1 -637h57q119 0 179 93t60 240q0 302 -260 304h-35z" />
    <glyph glyph-name="S" unicode="S" horiz-adv-x="1202" 
d="M606 -29l-5 -3q-220 0 -500 107l-28 522h16q116 -232 253 -390q138 -159 280 -159q71 0 117 43q47 44 47 139q0 92 -57 147q-59 58 -256 179q-6 4 -69 42q-62 37 -89 56q-25 18 -80 65t-80 87t-48 107q-22 65 -22 140q0 205 144 322t362 117q172 0 426 -68l43 -512h-16
q-103 207 -231 356q-129 150 -246 150q-61 0 -105 -42t-44 -115q0 -77 59 -133q57 -54 237 -157q211 -121 274 -174q147 -133 150 -342q0 -134 -49 -232q-49 -99 -130 -151q-83 -54 -169 -77q-88 -24 -184 -24z" />
    <glyph glyph-name="T" unicode="T" horiz-adv-x="1431" 
d="M1358 1464l36 -504h-17q-47 152 -150 272q-104 121 -258 149v-1132q0 -106 21 -145t104 -89v-16h-742v16q84 50 105 88q21 39 21 146v1134q-113 -17 -204 -91q-93 -76 -140 -157q-49 -84 -77 -174h-16l37 503h1280z" />
    <glyph glyph-name="U" unicode="U" horiz-adv-x="1538" 
d="M1530 1464l-4 -16q-90 -56 -126 -99t-51 -123t-15 -249v-490q0 -516 -542 -516q-121 0 -231 26q-108 25 -204 81t-152 161q-56 106 -56 244v731q0 110 -21 147t-105 88v16h741v-16q-84 -51 -105 -88t-21 -147v-755q0 -194 82 -289q82 -96 216 -96q55 0 106 18
q52 18 102 58q51 40 81 128q30 87 30 209v490q0 172 -16 249q-17 80 -52 123q-36 43 -126 99v16h469z" />
    <glyph glyph-name="V" unicode="V" horiz-adv-x="1474" 
d="M1036 1464l443 2v-14q-102 -108 -145 -171q-41 -60 -85 -174l-415 -1106h-203l-492 1245q-50 125 -139 207v12h756v-16q-101 -82 -103 -156q0 -45 39 -153l242 -674l237 653q29 79 29 119q0 97 -164 210v16z" />
    <glyph glyph-name="W" unicode="W" horiz-adv-x="2248" 
d="M1784 1464l472 1v-16q-155 -141 -228 -352l-391 -1096h-215l-307 784l-293 -784h-213l-471 1243q-27 69 -52 110q-28 45 -84 95v16h748v-16q-61 -54 -88 -87q-25 -31 -25 -66q0 -29 10 -53l268 -776l152 438l-133 338q-28 69 -54 110q-28 44 -85 95v16h751v-16
q-55 -43 -79 -76t-24 -80q0 -56 33 -144l247 -680l201 621q35 111 35 150q0 52 -37 95q-38 44 -138 114v16z" />
    <glyph glyph-name="X" unicode="X" horiz-adv-x="1550" 
d="M1368 229l-2 1q84 -131 148 -188q4 -4 12.5 -12t13.5 -13v-16h-794v16q94 84 94 142q0 33 -25 73l-194 326l-168 -211q-78 -97 -78 -159q0 -71 112 -171v-16h-477v16q111 78 174 138t176 197l222 271l-379 610q-33 53 -48 75q-17 25 -48 62q-33 39 -78 78v16h802v-16
q-98 -84 -98 -143q0 -29 27 -74l176 -299l156 203q70 90 69 151q0 67 -110 162v16h467v-16q-140 -88 -328 -318l-215 -264z" />
    <glyph glyph-name="Y" unicode="Y" horiz-adv-x="1472" 
d="M1051 1464l427 1v-16q-80 -76 -133 -141q-48 -59 -112 -167l-256 -443v-446q0 -106 21 -144t105 -90v-16h-742v16q84 50 105 88q21 39 21 146v438l-348 559q-80 126 -139 201v16h750v-16q-111 -82 -111 -144q0 -43 66 -148l235 -371l195 353q41 74 41 117q0 84 -125 191
v16z" />
    <glyph glyph-name="Z" unicode="Z" horiz-adv-x="1312" 
d="M1251 489l17 -2l-49 -489h-1170v51l684 1338h-115q-102 0 -186 -40q-86 -41 -144 -106t-97 -136q-38 -69 -64 -145h-16l36 503h1108v-51l-682 -1337h213q145 0 265 123q121 124 200 291z" />
    <glyph glyph-name="bracketleft" unicode="[" horiz-adv-x="698" 
d="M637 1538h-174v-1849h174v-62h-473v1975h473v-64z" />
    <glyph glyph-name="backslash" unicode="\" horiz-adv-x="669" 
d="M690 -240h-74l-591 1821h73z" />
    <glyph glyph-name="bracketright" unicode="]" horiz-adv-x="681" 
d="M49 1538v64h473v-1975h-473v62h176v1849h-176z" />
    <glyph glyph-name="asciicircum" unicode="^" horiz-adv-x="1144" 
d="M164 850l387 614h47l387 -614h-74l-338 522l-335 -522h-74z" />
    <glyph glyph-name="underscore" unicode="_" horiz-adv-x="1216" 
d="M1171 -184v-80h-1122v80h1122z" />
    <glyph glyph-name="grave" unicode="`" horiz-adv-x="552" 
d="M469 1137l-1 -1q-226 178 -402 327h423q-4 -99 -4 -159q0 -45 1 -82t1 -85h-18z" />
    <glyph glyph-name="a" unicode="a" horiz-adv-x="1249" 
d="M930 -20l-6 -4q-130 0 -187 68t-51 159h-4q-43 -94 -135 -160q-91 -66 -216 -66q-131 0 -209 72t-78 182q0 85 51 156t146 122q94 51 200 87q100 34 245 67l2 190q0 109 -84 109q-73 0 -119 -103q-47 -103 -66 -243l-12 -2l-283 125q49 115 188 201q137 85 363 85
q126 0 213 -31q89 -32 132 -73q43 -42 67 -109q24 -68 27 -112q3 -39 1 -108l-8 -389q0 -68 45 -68q47 0 80 70l18 -8q-28 -85 -109 -151t-211 -66zM586 219v1q28 0 54 20t36 42l8 331q-182 -44 -182 -246q0 -148 84 -148z" />
    <glyph glyph-name="b" unicode="b" horiz-adv-x="1259" 
d="M819 1026l-3 -2q71 0 136 -25q66 -25 129 -81q62 -55 100 -161q37 -104 37 -246q0 -149 -42 -259q-42 -109 -113 -165t-145 -81t-159 -25q-103 0 -182 39q-81 40 -134 78q-54 39 -93 39q-82 0 -249 -164h-30v1295q0 12 -2 28q-2 13 -10 27q-9 15 -15 24t-27 36
q-18 23 -34 48v16q285 19 534 93v-678h2q116 164 300 164zM654 68q95 0 97 383q0 203 -28 305q-29 104 -103 104q-52 0 -105 -80v-450q49 -262 139 -262z" />
    <glyph glyph-name="c" unicode="c" horiz-adv-x="1067" 
d="M571 -20l-4 -1q-97 0 -189 30q-91 30 -170 92q-77 61 -124 167q-46 104 -46 240q0 258 155 387t378 129q303 0 433 -238l-254 -188l-17 6q-7 134 -50 245q-42 110 -116 110q-58 0 -90 -77q-32 -78 -32 -207q0 -196 73 -309q74 -114 225 -114q174 0 285 176l19 -10
q-12 -80 -44 -154q-32 -72 -85 -139t-144 -106q-90 -39 -203 -39z" />
    <glyph glyph-name="d" unicode="d" horiz-adv-x="1280" 
d="M442 -20l-3 -1q-69 0 -136 26q-64 25 -127 80q-62 54 -99 159q-38 106 -38 246q0 146 41 258q40 111 108 168t141 84q74 27 152 27q80 0 153 -22q76 -23 107 -48v295q0 91 -88 179v16q284 19 535 93v-1302q0 -62 18 -94q18 -31 69 -64v-17l-524 -83l-2 174h-2
q-33 -66 -117 -120t-188 -54zM630 142h-1q49 0 111 72v465q-53 254 -137 254q-100 0 -100 -369q0 -422 127 -422z" />
    <glyph glyph-name="e" unicode="e" horiz-adv-x="1114" 
d="M1071 600l-627 -2v-4q0 -96 30 -165t81 -105t105 -51t115 -15q199 0 283 135l12 -6q-96 -409 -481 -408q-235 0 -392 140q-156 139 -156 396t156 384q157 128 395 128q222 0 350 -109q129 -110 129 -295v-23zM559 963l-1 1q-59 0 -84 -76q-26 -76 -30 -228h234
q-6 303 -119 303z" />
    <glyph glyph-name="f" unicode="f" horiz-adv-x="780" 
d="M379 1458h-1q-53 0 -53 -61q0 -134 219 -400h221l-21 -77h-200v-680q0 -103 18 -142t79 -82v-16h-633v16q58 44 74 81q17 39 17 143v680h-88v77h88v17q0 242 90 384t288 142q159 0 381 -82l-242 -284l-12 6q-131 278 -225 278z" />
    <glyph glyph-name="g" unicode="g" horiz-adv-x="1142" 
d="M840 190l-1 -2q125 -27 210 -102t85 -185q0 -92 -61 -159t-161 -102q-99 -34 -200 -51q-97 -16 -202 -16q-186 0 -342 50q-155 50 -155 135q0 40 35 72t92 50t81 24q16 4 48 10q-219 70 -219 213q0 84 75 147t196 87q-275 66 -277 314q0 178 128 264t323 86h57
q138 0 203 49q66 50 72 115l285 -92v-11q-31 -46 -112 -82t-214 -36q-70 0 -156 12v-10q202 -32 306 -105q103 -73 103 -213q0 -313 -493 -313q-79 0 -141 8q-66 -5 -66 -37q0 -20 35 -26q2 0 8 -1.5t18 -3.5t24 -5q38 -8 155 -30q111 -21 261 -54zM517 969v-3
q-71 0 -69 -150q0 -67 9 -154t42 -180t83 -93q68 0 66 146q0 62 -8 155q-7 85 -41 183q-33 96 -82 96zM556 -370l-1 -2q99 0 168 26q68 26 68 75q0 29 -29 53q-28 24 -80 36q-9 1 -158 32q-157 33 -197 43q-35 -41 -35 -107q0 -156 264 -156z" />
    <glyph glyph-name="h" unicode="h" horiz-adv-x="1312" 
d="M1219 240l-1 -4q0 -104 16 -142t72 -82v-16h-623v16q55 44 72 81q16 37 18 143q2 128 2 422q0 76 -33 117t-85 41q-61 0 -112 -71v-508q0 -103 15 -142q15 -38 71 -82v-16h-623v16q58 44 74 81q17 39 17 143v886q0 98 -10 147q-11 51 -24 72t-54 66v16q269 18 534 95
v-695q141 201 354 201q41 0 87 -11q43 -10 101 -41q58 -30 95 -102q37 -71 37 -177v-454z" />
    <glyph glyph-name="i" unicode="i" horiz-adv-x="638" 
d="M303 1104l-2 -1q-88 0 -150 59q-61 58 -61 138t62 137t150 57q86 0 147 -57q62 -57 62 -137t-61 -138t-147 -58zM6 -1l-2 15q58 44 74 81q17 39 17 143v395q0 99 -10 146q-11 50 -24 71q-12 19 -54 67v16q275 18 535 96v-790q0 -102 17 -142q16 -38 72 -82v-16h-625z" />
    <glyph glyph-name="j" unicode="j" horiz-adv-x="645" 
d="M324 1104l-1 -1q-88 0 -150 59q-61 58 -61 138t62 137t150 57q86 0 147 -57t61 -137t-61 -138t-147 -58zM-67 -433l-8 20q101 53 141 135q41 84 41 234v678q0 137 -15 179q-16 44 -70 104v16q278 18 532 96v-807q0 -134 -37 -241t-96 -178q-59 -72 -141 -122
q-84 -52 -167 -77q-81 -25 -180 -37z" />
    <glyph glyph-name="k" unicode="k" horiz-adv-x="1339" 
d="M8 0l-2 14q58 44 74 81q17 39 17 143v886q0 98 -10 147q-11 51 -24 72t-54 66v16q269 18 534 95v-1053l268 252q62 61 64 108q0 70 -140 154v16h563v-16q-97 -58 -175 -107q-50 -32 -112 -81q-60 -48 -105 -99l-35 -39l263 -424q98 -158 200 -215v-16h-551l-211 426h-28
v-186q0 -102 17 -142q16 -38 72 -82v-16h-625z" />
    <glyph glyph-name="l" unicode="l" horiz-adv-x="638" 
d="M8 0l-1 14q58 44 74 81q17 39 17 143v886q0 98 -10 147q-10 51 -24 72t-54 66v16q269 18 534 95v-1280q0 -102 17 -142q16 -38 72 -82v-16h-625z" />
    <glyph glyph-name="m" unicode="m" horiz-adv-x="1953" 
d="M1860 240l-7 -4q0 -103 16 -141t75 -82v-16h-627v16q57 44 75 82q19 40 20 142q2 104 2 422q0 77 -33 114q-33 38 -76 38q-62 0 -108 -70q2 -22 2 -49v-454q0 -103 15 -142q15 -38 71 -82v-16h-624v16q57 45 75 83q19 39 20 141q4 255 4 422q0 76 -35 114t-78 38
q-61 0 -106 -70v-503q0 -103 15 -142q15 -38 71 -82v-16h-623v16q58 44 74 81q17 39 17 143v397q0 135 -16 180q-16 46 -72 106v14q253 14 527 93v-211q140 207 345 207q35 0 77 -8q41 -8 87 -28q49 -21 89 -66t57 -111q139 213 351 213q41 0 87 -11q43 -10 101 -41
q58 -30 95 -102q37 -71 37 -177v-454z" />
    <glyph glyph-name="n" unicode="n" horiz-adv-x="1308" 
d="M1214 240h1q0 -102 17 -142q16 -38 75 -82v-16h-625v16q57 45 75 83q18 37 18 141v422q0 78 -33 117t-82 39q-57 0 -114 -71v-508q0 -103 15 -142q15 -38 71 -82v-16h-623v16q58 44 74 81q17 39 17 143v397q0 135 -16 180q-16 46 -72 106v14q253 14 527 93v-209
q136 205 351 205q31 0 69 -5q37 -5 83 -25q49 -21 84 -55q37 -36 62 -97q26 -64 26 -149v-454z" />
    <glyph glyph-name="o" unicode="o" horiz-adv-x="1243" 
d="M610 -20l2 1q-258 0 -414 123t-156 389q0 265 159 399q160 134 432 134q259 0 414 -125t155 -389q0 -266 -159 -399q-158 -133 -433 -133zM678 46l1 -2q74 0 74 188q0 77 -7 174q-8 112 -25 237q-18 133 -57 225q-39 91 -93 91q-78 0 -77 -184q0 -103 12 -253
q12 -152 58 -313q46 -163 114 -163z" />
    <glyph glyph-name="p" unicode="p" horiz-adv-x="1273" 
d="M831 1026l-1 1q69 0 132 -22q65 -23 128 -75q63 -53 102 -157q39 -105 39 -249q0 -152 -42 -264t-111 -169t-142 -84q-74 -27 -151 -27q-140 0 -249 67h-5v-217q0 -103 23 -141q22 -37 99 -81v-17h-659v17q58 44 74 82q17 40 17 141v932q0 59 -18 90q-18 32 -70 72v12
q268 19 526 93l-2 -176h4q115 172 306 172zM673 71h-2q53 0 74 85q21 86 21 276q0 213 -27 321t-101 108q-53 0 -107 -72v-446q47 -272 142 -272z" />
    <glyph glyph-name="q" unicode="q" horiz-adv-x="1267" 
d="M618 -410l-2 14q80 44 102 81q23 38 23 141v313h-2q-109 -163 -301 -162q-69 0 -135 26q-63 25 -126 80q-61 54 -99 159q-38 106 -38 244q0 269 129 404t330 135q107 0 186 -40q84 -43 134 -79q54 -39 98 -39q85 0 251 152h21v-1190q0 -102 17 -141q16 -38 72 -81v-17
h-660zM629 140v-1q65 0 112 80v525q-53 188 -135 188q-102 0 -102 -387q0 -201 27 -303t98 -102z" />
    <glyph glyph-name="r" unicode="r" horiz-adv-x="946" 
d="M8 0l-3 18q58 44 74 81q17 39 17 143v434q0 104 -18 147q-18 44 -70 99v14q259 14 527 93l-5 -199h7q22 75 98 136q75 60 195 60q39 0 89 -14l-62 -447h-16q-162 224 -252 226q-33 0 -45 -27v-524q0 -102 23 -142q22 -38 101 -82v-16h-660z" />
    <glyph glyph-name="s" unicode="s" horiz-adv-x="931" 
d="M492 -29l-5 2q-145 0 -392 58l-43 372l15 5q102 -152 211 -261q111 -111 199 -111q39 0 66 21t27 60q0 51 -53 98q-51 46 -176 120q-65 37 -103 65q-36 26 -89 72q-55 48 -81 108q-25 59 -25 132q0 145 107 229t281 84q131 0 360 -51l36 -346l-16 -4q-96 137 -199 237
q-105 102 -183 102q-34 0 -58 -21t-24 -60q0 -30 14 -55q13 -23 56 -52q44 -30 71 -44q62 -33 107 -56q140 -72 219 -160t79 -219q0 -145 -103 -235q-104 -90 -298 -90z" />
    <glyph glyph-name="t" unicode="t" horiz-adv-x="790" 
d="M403 -23v-1q-131 0 -215 75t-84 222v646h-88v43q386 200 504 351h27v-316h211l-13 -77h-194l-6 -574q-2 -164 121 -164q63 0 120 58l13 -13q-45 -91 -147 -171q-101 -79 -249 -79z" />
    <glyph glyph-name="u" unicode="u" horiz-adv-x="1304" 
d="M1212 279v-2q0 -92 18 -128t71 -71v-17l-524 -92v195q-51 -76 -142 -136t-213 -60q-34 0 -69 6q-37 6 -84 25q-49 19 -85 54q-35 34 -61 99q-25 63 -25 150v332q0 125 -15 176q-15 52 -73 107v16q275 18 535 96q0 -38 -2 -348t-2 -345q0 -78 33 -118t84 -40q61 0 109 51
v406q0 129 -15 178t-72 105v16q278 18 532 96v-751z" />
    <glyph glyph-name="v" unicode="v" horiz-adv-x="1130" 
d="M825 997l315 1v-16q-105 -132 -164 -258l-338 -723h-162l-387 834q-35 78 -99 147v16h637v-16q-68 -59 -68 -125q0 -33 35 -117q3 -6 20.5 -44t57 -123t81.5 -177q117 248 147 339q17 45 18 76q0 67 -93 170v16z" />
    <glyph glyph-name="w" unicode="w" horiz-adv-x="1787" 
d="M1462 997l333 2v-16q-98 -116 -171 -274l-323 -707h-162l-252 559l-258 -559h-160l-377 831q-46 102 -102 150v16h626v-16q-71 -51 -69 -119q0 -34 14 -71q5 -11 177 -394l111 246l-86 188q-45 97 -102 150v16h630v-16q-73 -55 -72 -129q0 -36 16 -72q10 -22 15 -34
q8 -18 18 -42t48 -105q10 -22 41.5 -90.5t52.5 -113.5q106 229 135 308q17 50 18 79q0 66 -101 197v16z" />
    <glyph glyph-name="x" unicode="x" horiz-adv-x="1189" 
d="M1085 152v2q39 -58 105 -135v-16h-664v16q3 3 12 8q3 1 6 3t5 3.5t3 1.5q6 3 11 6q7 4 11 8q5 5 9 8q6 5 9 9l6 9q2 3 4 11q1 4 1 12q0 22 -20 56l-133 213l-86 -113q-46 -62 -48 -117q0 -74 82 -119v-16h-395v16q50 31 80 53q28 21 80 71q48 47 112 123l136 162
l-287 422q-56 84 -109 135v16h662v-16q-68 -39 -68 -84q0 -40 52 -119l88 -137l73 98q49 65 49 115t-71 127v16h366v-16q-60 -37 -115 -87q-56 -51 -83 -84q-23 -27 -79 -102l-98 -129z" />
    <glyph glyph-name="y" unicode="y" horiz-adv-x="1146" 
d="M836 997h323v-16q-96 -113 -174 -276q-283 -583 -345 -705q-78 -147 -167 -247q-86 -96 -216 -187l-180 241l8 13q63 -11 137 -13q238 0 309 144l23 45l-455 835q-37 67 -108 150v16h680v-16q-78 -63 -78 -123q0 -32 31 -88l170 -307q81 160 132 278q14 34 14 56
q0 83 -104 184v16z" />
    <glyph glyph-name="z" unicode="z" horiz-adv-x="1044" 
d="M1004 997l2 -47l-488 -887h135q39 0 65 9t66 39q41 30 89 107q49 78 107 200h14l-32 -416h-920v43l508 893h-123q-38 0 -58 -7t-58 -39t-87 -103q-50 -72 -120 -195h-16l33 403h883z" />
    <glyph glyph-name="braceleft" unicode="{" horiz-adv-x="858" 
d="M569 133l-9 -4q-8 -85 -8 -144q0 -77 14 -139q13 -58 29 -93q15 -32 54 -61q38 -28 62 -39q14 -6 77 -31l-7 -18q-97 0 -186 21q-88 21 -173 71q-84 50 -134 146q-50 97 -50 230q0 37 4 60l12 103q4 40 4 61q0 130 -60 207t-121 87v33q58 10 120 86t62 207q0 21 -4 61
l-12 102q-4 24 -4 64q0 105 35 190q34 83 89 135q54 51 128 84q73 33 146 45q72 12 147 12l7 -19q-45 -18 -63 -27q-30 -15 -53 -28q-35 -20 -50 -41q-16 -22 -33 -58t-25 -88q-7 -48 -7 -118q0 -66 8 -148l9 -75q2 -22 2 -43q0 -168 -88 -262t-216 -94q128 0 216 -94
q89 -95 89 -262q0 -21 -2 -43z" />
    <glyph glyph-name="bar" unicode="|" horiz-adv-x="366" 
d="M223 -240h-76v1821h76v-1821z" />
    <glyph glyph-name="braceright" unicode="}" horiz-adv-x="817" 
d="M561 979l-8 -1q-4 -40 -4 -61q0 -133 60 -208q59 -74 119 -85v-33q-60 -11 -119 -85q-60 -75 -60 -208q0 -21 4 -61l12 -103q5 -27 6 -61q0 -133 -51 -231q-51 -97 -136 -145q-86 -48 -174 -69t-186 -21l-6 18q56 21 77 30q25 11 62 39t54 62q17 33 30 93q14 62 14 140
q0 60 -8 145l-8 76q-2 22 -2 45q0 168 87 261t216 93q-128 0 -217 93q-88 92 -88 261q0 23 2 45l8 75q8 85 8 146q0 82 -13 138q-14 62 -28 92q-15 34 -54 62q-40 29 -61 39q-23 10 -75 30l6 19q78 0 150 -12t147 -45t129 -84q55 -52 89 -135q35 -85 35 -190q0 -32 -5 -62z
" />
    <glyph glyph-name="asciitilde" unicode="~" horiz-adv-x="993" 
d="M696 537l2 -1q-70 0 -204 69t-217 69q-100 0 -217 -72l-34 19q44 121 138 201q95 80 186 80q71 0 221 -81t230 -81q66 0 141 35l31 -24q-39 -94 -115 -154t-162 -60z" />
    <glyph glyph-name="exclamdown" unicode="&#xa1;" horiz-adv-x="634" 
d="M322 1030h-1q85 0 147 -60q61 -60 61 -142q0 -85 -61 -143q-62 -59 -147 -59q-88 0 -150 59q-61 58 -61 143q0 84 62 143t150 59zM280 559h76q110 -647 207 -987v-25h-487v25q100 338 204 987z" />
    <glyph glyph-name="cent" unicode="&#xa2;" horiz-adv-x="1067" 
d="M1047 420l-3 -1q-29 -175 -136 -300q-108 -126 -297 -138v-170h-71v168q-96 6 -183 39t-160 94q-73 62 -117 165q-43 102 -43 234q0 245 141 373q140 127 362 139v135h71v-133q145 -6 244 -75q100 -70 149 -162l-254 -188l-17 6q-6 117 -36 213q-30 95 -84 127v-661
q56 -31 136 -31q172 0 279 176zM443 667v1q0 -225 97 -328v618q-46 -12 -71 -90q-26 -80 -26 -201z" />
    <glyph glyph-name="sterling" unicode="&#xa3;" horiz-adv-x="1196" 
d="M1092 535l12 -2l-55 -535h-998v106q110 76 163 192q52 114 52 240q0 29 -1 42q-1 20 -6 39q-2 8 -5 18.5t-3 12.5q-3 11 -12 31q-6 13 -12 25q0 1 -2.5 5.5t-5.5 10t-6 12.5l-12 24h-162v67h131q-27 67 -27 156q0 209 140 347q139 138 411 138q156 0 359 -41l45 -450h-19
q-97 173 -210 297q-112 124 -216 124q-53 0 -99 -37t-46 -117q0 -56 32 -114q28 -51 69 -131q37 -72 43 -171h260v-67h-258q-7 -301 -339 -469h498q75 0 149 73q74 72 130 174z" />
    <glyph glyph-name="currency" unicode="&#xa4;" horiz-adv-x="1087" 
d="M1040 672v-1q0 -170 -108 -305l133 -134l-78 -77l-131 131q-133 -106 -307 -106q-175 0 -311 111l-136 -135l-77 77l137 138q-106 129 -108 303q0 173 109 307l-133 135l78 78l135 -133q133 106 306 106q172 0 307 -108l133 133l78 -82l-133 -131q106 -139 106 -307z
M174 671l-1 -3q0 -156 111 -265q110 -109 265 -109q151 0 263 110q111 110 111 266q0 158 -112 269t-265 111t-263 -111q-109 -110 -109 -268z" />
    <glyph glyph-name="yen" unicode="&#xa5;" horiz-adv-x="1419" 
d="M1014 1436l409 3v-15q-82 -79 -128 -142q-49 -68 -105 -166l-199 -352h236v-66h-273l-4 -8v-156h279v-65h-279v-217q0 -106 21 -144t105 -90v-16h-741v16q84 50 105 88q21 39 21 146v217h-271v65h271v144l-12 20h-261v66h222l-279 459q-55 89 -131 200v15h731v-15
q-102 -83 -102 -144q0 -45 63 -145l221 -357l181 338q39 73 39 117q0 85 -119 189v15z" />
    <glyph glyph-name="section" unicode="&#xa7;" horiz-adv-x="1142" 
d="M1055 610l-6 -3q0 -223 -230 -309q140 -135 142 -291q0 -135 -96 -227q-97 -92 -290 -92q-169 0 -371 63l-29 410l17 -2q57 -163 146 -284q88 -120 198 -120q55 0 83 25.5t27 75.5q0 68 -52 123t-201 171q-69 52 -102 82q-39 35 -89 93q-52 60 -78 126q-26 67 -26 143
q0 215 217 318q-131 128 -131 256q0 124 101 222t300 98q145 0 336 -57l22 -385l-16 2q-59 151 -141 263q-83 113 -171 113q-45 0 -75 -33t-30 -76q0 -51 48 -103q49 -54 163 -135q79 -56 124 -93q42 -34 99 -96t84 -130q27 -69 27 -148zM584 472l1 -1q85 -57 172 -121
q18 32 18 75q0 72 -59 146q-58 73 -197 174q-52 38 -144 110q-23 -35 -23 -74q0 -67 72 -159q73 -92 160 -150z" />
    <glyph glyph-name="dieresis" unicode="&#xa8;" horiz-adv-x="892" 
d="M245 1122l2 -1q-72 0 -126 54t-54 126q0 70 54 124t126 54q70 0 124 -54t54 -123q0 -72 -54 -126t-126 -54zM653 1121l3 -1q-72 0 -126 54t-54 126q0 70 54 124t123 54q72 0 126 -54t54 -123q0 -72 -54 -126t-126 -54z" />
    <glyph glyph-name="copyright" unicode="&#xa9;" horiz-adv-x="1648" 
d="M825 -16l-2 -2q-311 0 -531 219t-220 530q0 310 220 530q221 221 531 221t530 -220q221 -221 221 -529q0 -311 -220 -530t-529 -219zM827 51l-1 -1q276 0 472 204q196 203 196 476q0 274 -198 477t-472 203q-273 0 -473 -199q-201 -199 -201 -480t201 -480
q202 -200 476 -200zM853 1211v-2q-74 0 -134 -111t-60 -346q0 -233 60 -350t138 -117q68 0 156 94q89 95 171 222h10l-27 -321q-166 -41 -333 -41q-208 0 -351 119q-142 118 -142 378q0 257 141 389t362 132q125 0 324 -41l29 -316h-10q-207 311 -334 311z" />
    <glyph glyph-name="ordfeminine" unicode="&#xaa;" horiz-adv-x="757" 
d="M561 889l-2 -3q-79 0 -114 41t-30 98h-4q-26 -58 -81 -98q-56 -41 -130 -41q-79 0 -125 43q-47 44 -47 111q0 100 105 160q106 61 279 98l2 117q-4 63 -49 64q-76 0 -109 -209h-6l-176 71q28 70 113 123t224 53q77 0 130 -19q54 -20 81 -45q26 -25 40 -69t15 -69
q1 -17 1 -64l-4 -227q0 -41 24 -41q31 0 52 43l10 -4q-18 -55 -69 -94t-130 -39zM360 1039l1 -1q32 0 48 31l4 199q-101 -22 -102 -141q0 -88 49 -88z" />
    <glyph glyph-name="guillemotleft" unicode="&#xab;" horiz-adv-x="1273" 
d="M721 997l1 2q-100 -257 -240 -471q142 -224 240 -474h-84q-212 196 -564 462v21q337 250 563 460h84zM1205 999q-91 -243 -239 -471q151 -237 239 -473h-84q-216 203 -561 463v21q325 240 561 460h84z" />
    <glyph glyph-name="registered" unicode="&#xae;" horiz-adv-x="1134" 
d="M567 584q-205 0 -349 144t-144 347t144 347t349 144q203 0 347 -144t144 -347t-144 -347t-347 -144zM567 639h-1q180 0 307 130t127 306q0 175 -126 306t-307 131q-178 0 -309 -128q-130 -127 -130 -309q0 -181 130 -308q131 -128 309 -128zM796 879v-3q18 -33 67 -82v-6
h-196q-108 211 -140 278l-26 -2v-176q0 -44 8 -60q7 -15 42 -33v-6h-262v6q35 18 44 35q9 16 9 60v385q0 43 -9 60t-44 35v6h274q103 0 164 -39q62 -39 62 -106q0 -65 -54 -109q-53 -43 -134 -43h-35v-2q46 -27 107 -26q19 0 33 2q34 -83 90 -174zM501 1347l1 -255h43
q41 0 65 36t24 96q0 123 -107 123h-26z" />
    <glyph glyph-name="macron" unicode="&#xaf;" horiz-adv-x="727" 
d="M666 1358v-201h-600v201h600z" />
    <glyph glyph-name="degree" unicode="&#xb0;" horiz-adv-x="876" 
d="M440 813h-2q-140 0 -241 99q-100 99 -100 242q0 141 102 240t243 99t240 -99t99 -240q0 -140 -99 -241q-99 -100 -242 -100zM440 889l-2 -3q106 0 181 77t75 189t-72 188q-72 77 -183 77q-109 0 -184 -76q-75 -77 -75 -187q0 -108 77 -187q77 -78 183 -78z" />
    <glyph glyph-name="uni00B2" unicode="&#xb2;" horiz-adv-x="643" 
d="M459 827v-2q56 0 86 15t77 59l8 -4l-88 -283h-541v35q188 197 263 315q77 121 77 219q0 77 -38 117q-37 39 -93 39q-85 0 -176 -88l-23 13q157 229 324 229q96 0 168 -63t72 -175q0 -74 -31 -137q-31 -64 -91 -118q-62 -56 -106 -87q-50 -35 -109 -72q-14 -7 -21 -12h242
z" />
    <glyph glyph-name="uni00B3" unicode="&#xb3;" horiz-adv-x="677" 
d="M37 1278v-3q57 98 146 155q88 57 194 57q97 0 156 -46q60 -47 60 -117q0 -80 -75 -138q-74 -58 -175 -85v-2q35 6 66 6q105 0 173 -61q69 -62 69 -174q0 -129 -96 -201t-246 -72q-127 0 -276 51l96 260l10 -2q67 -262 171 -262q46 0 75 56t29 138q0 90 -39 145t-111 55
q-50 0 -100 -22l-8 29q217 106 217 216q0 45 -34 75q-35 30 -87 30q-115 0 -199 -102z" />
    <glyph glyph-name="acute" unicode="&#xb4;" horiz-adv-x="552" 
d="M88 1137h-18q2 94 2 192q0 73 -2 135h422q-169 -142 -404 -327z" />
    <glyph glyph-name="paragraph" unicode="&#xb6;" horiz-adv-x="1069" 
d="M616 1464l1 -1464h-299v16q84 51 105 89q21 37 21 144v299h-51q-152 0 -260 134t-108 323t108 324t260 135h223zM1050 1464v-15q-84 -51 -105 -88t-21 -147v-964q0 -106 21 -145q21 -40 105 -89v-16h-299v1464h299z" />
    <glyph glyph-name="periodcentered" unicode="&#xb7;" horiz-adv-x="581" 
d="M293 375l-4 -1q-89 0 -154 65q-64 64 -64 153q0 88 66 154t154 66t154 -66t66 -154q0 -89 -64 -153t-154 -64z" />
    <glyph glyph-name="cedilla" unicode="&#xb8;" horiz-adv-x="622" 
d="M82 -403l-2 -1q110 7 176 41q65 33 65 86q0 49 -51 84q-52 35 -124 35l115 154h51l-30 -45q140 -11 209.5 -53t68.5 -115q0 -109 -131 -171q-129 -61 -363 -58z" />
    <glyph glyph-name="uni00B9" unicode="&#xb9;" horiz-adv-x="499" 
d="M63 614l-2 12q50 29 62 53t12 86v457q0 9 -2 23t-3 20q-1 8 -8 18q-2 3 -5 8t-4 6q-4 5 -15 14q-8 6 -16 14q-6 6 -21 17q-17 12 -24 18v8l373 133v-735q0 -62 12 -87t59 -54v-11h-418z" />
    <glyph glyph-name="ordmasculine" unicode="&#xba;" horiz-adv-x="753" 
d="M377 889l-1 -1q-352 0 -352 307q0 163 97 242q98 80 264 80q157 0 251 -74q93 -73 93 -234t-95 -241q-94 -79 -257 -79zM409 929v3q39 0 39 102q0 47 -4 102q-4 62 -15 144q-11 83 -33 140t-54 57q-39 0 -39 -103q0 -124 25 -283q26 -162 81 -162z" />
    <glyph glyph-name="guillemotright" unicode="&#xbb;" horiz-adv-x="1273" 
d="M74 997l86 -1q245 -225 563 -459v-21q-343 -259 -564 -463h-84q98 253 240 473q-138 210 -241 471zM561 996l84 -1q237 -221 561 -460v-21q-345 -260 -561 -463h-84q89 239 240 474q-149 227 -240 471z" />
    <glyph glyph-name="onequarter" unicode="&#xbc;" horiz-adv-x="1714" 
d="M63 614l-2 12q50 29 62 53t12 86v457q0 9 -2 23t-3 20q-1 8 -8 18q-2 3 -5 8t-4 6q-4 5 -15 14q-8 6 -16 14q-6 6 -21 17q-17 12 -24 18v8l373 133v-735q0 -62 12 -87t59 -54v-11h-418zM246 1l1007 1464h76l-1007 -1464h-76zM1640 251l-103 1v-100q0 -62 12 -84
q12 -23 63 -56v-10h-391v10q47 29 59 53t12 86v100h-368v10l585 614h29v-546h115zM1044 330h247v254z" />
    <glyph glyph-name="onehalf" unicode="&#xbd;" horiz-adv-x="1644" 
d="M63 614l-2 12q50 29 62 53t12 86v457q0 9 -2 23t-3 20q-1 8 -8 18q-2 3 -5 8t-4 6q-4 5 -15 14q-8 6 -16 14q-6 6 -21 17q-17 12 -24 18v8l373 133v-735q0 -62 12 -87t59 -54v-11h-418zM246 1l1007 1464h76l-1007 -1464h-76zM1417 214l-2 -2q55 0 87 15q29 14 76 59l8 -4
l-88 -283h-540v35q188 197 263 315q77 121 77 218q0 78 -37 118t-93 40q-85 0 -176 -88l-22 12q157 229 323 231q95 0 169 -63q73 -63 73 -175q0 -73 -31 -138q-31 -66 -91 -118q-63 -55 -106 -87t-111 -73l-20 -12h241z" />
    <glyph glyph-name="threequarters" unicode="&#xbe;" horiz-adv-x="1818" 
d="M37 1278v-3q57 98 146 155q88 57 194 57q97 0 156 -46q60 -47 60 -117q0 -80 -75 -138q-74 -58 -175 -85v-2q35 6 66 6q105 0 173 -61q69 -62 69 -174q0 -129 -96 -201t-246 -72q-127 0 -276 51l96 260l10 -2q67 -262 171 -262q46 0 75 56t29 138q0 90 -39 145t-111 55
q-50 0 -100 -22l-8 29q217 106 217 216q0 45 -34 75q-35 30 -87 30q-115 0 -199 -102zM352 -3l1008 1464h76l-1008 -1464h-76zM1747 247l-101 1v-100q0 -60 11 -84q11 -23 62 -56v-10h-391v10q47 29 59 53t12 86v100h-369v10l586 614h29v-546h114zM1152 326h248v254z" />
    <glyph glyph-name="questiondown" unicode="&#xbf;" horiz-adv-x="1005" 
d="M600 1030l-2 -2q89 0 150 -58q62 -59 62 -142q0 -85 -61 -143q-62 -59 -150 -59q-85 0 -147 59q-61 58 -61 143q0 82 62 142q61 60 147 60zM657 559l-1 -3q0 -129 -39 -240t-87 -177t-87 -153t-39 -173q0 -97 41 -164q41 -66 93 -66q22 0 42 15q21 16 38 39q15 21 34 56
q16 31 30 66q9 23 25 69q13 38 20 68q2 11 14 57q2 10 7 25l4 15l2 16l14 4l203 -370l-2 -2q-199 -119 -441 -126h-26q-203 0 -335 90t-132 266q0 96 44 173t111 131q71 57 139 105q72 51 138 123q65 71 94 156h96z" />
    <glyph glyph-name="Agrave" unicode="&#xc0;" horiz-adv-x="1497" 
d="M887 1577l-21 -1q-172 116 -401 281h422q-2 -52 -2 -115q0 -87 2 -165zM1352 224l1 -4q17 -47 29 -72q8 -18 36 -58q27 -39 72 -78v-16h-756v16q61 43 85 76t24 74t-41 166l-47 139h-398l-8 -22q-53 -147 -53 -213q0 -58 35 -108q34 -49 116 -111v-16h-434v16
q101 101 150 185t101 236l254 729l-88 172q243 82 430 198zM396 583h320l-162 479z" />
    <glyph glyph-name="Aacute" unicode="&#xc1;" horiz-adv-x="1497" 
d="M653 1530v1q0 56 1 98t1 87q0 57 -4 141h422q-161 -136 -401 -327h-19zM1352 226l1 -4q17 -47 29 -72q8 -18 36 -58q27 -39 72 -78v-16h-756v16q61 43 85 76t24 74t-41 166l-47 139h-398l-8 -22q-53 -147 -53 -213q0 -58 35 -108q34 -49 116 -111v-16h-434v16
q101 101 150 185t101 236l254 729l-88 172q243 82 430 198zM396 585h320l-162 479z" />
    <glyph glyph-name="Acircumflex" unicode="&#xc2;" horiz-adv-x="1497" 
d="M764 1661l-313 -147l-13 13q281 372 314 417h22q170 -233 313 -418l-10 -13zM1352 226l1 -4q17 -47 29 -72q8 -18 36 -58q27 -39 72 -78v-16h-756v16q61 43 85 76t24 74t-41 166l-47 139h-398l-8 -22q-53 -147 -53 -213q0 -58 35 -108q34 -49 116 -111v-16h-434v16
q101 101 150 185t101 236l254 729l-88 172q243 82 430 198zM396 585h320l-162 479z" />
    <glyph glyph-name="Atilde" unicode="&#xc3;" horiz-adv-x="1497" 
d="M539 1634l-2 -1q-67 0 -138 -59l-22 6q31 152 105 219q74 68 197 68q53 0 154 -29q141 -41 172 -41q49 0 80 14q30 13 68 47l25 -5q-23 -145 -95 -217t-192 -71q-74 0 -168 28q-143 41 -184 41zM1350 224l1 -4q17 -47 29 -72q8 -18 36 -58q27 -39 72 -78v-16h-756v16
q61 43 85 76t24 74t-41 166l-47 139h-398l-8 -22q-53 -147 -53 -213q0 -58 35 -108q34 -49 116 -111v-16h-434v16q101 101 150 185t101 236l254 729l-88 172q243 82 430 198zM394 583h320l-162 479z" />
    <glyph glyph-name="Adieresis" unicode="&#xc4;" horiz-adv-x="1497" 
d="M997 1540h1q-70 0 -121 51t-51 119q0 70 51 121t120 51q67 0 120 -51q52 -51 52 -121q0 -68 -52 -119q-53 -51 -120 -51zM529 1536h1q-70 0 -121 51t-51 119q0 70 51 121t120 51q67 0 120 -51q52 -51 52 -121q0 -68 -52 -119q-53 -51 -120 -51zM1354 225l1 -4
q17 -47 29 -72q8 -18 36 -58q27 -39 72 -78v-16h-756v16q61 43 85 76t24 74t-41 166l-47 139h-398l-8 -22q-53 -147 -53 -213q0 -58 35 -108q34 -49 116 -111v-16h-434v16q101 101 150 185t101 236l254 729l-88 172q243 82 430 198zM398 584h320l-162 479z" />
    <glyph glyph-name="Aring" unicode="&#xc5;" horiz-adv-x="1497" 
d="M760 1542h1q-83 0 -141 57t-58 141t57 141t141 57q82 0 138 -57q56 -58 56 -141t-56 -141q-56 -57 -138 -57zM761 1876l-1 1q-47 0 -80 -38q-33 -37 -33 -89t36 -96q36 -43 85 -43q45 0 75 38q30 37 30 90q0 57 -31 97t-81 40zM1352 226l1 -4q17 -47 29 -72q8 -18 36 -58
q27 -39 72 -78v-16h-756v16q61 43 85 76t24 74t-41 166l-47 139h-398l-8 -22q-53 -147 -53 -213q0 -58 35 -108q34 -49 116 -111v-16h-434v16q101 101 150 185t101 236l254 729l-88 172q243 82 430 198zM396 585h320l-162 479z" />
    <glyph glyph-name="AE" unicode="&#xc6;" horiz-adv-x="2074" 
d="M1974 489h18l-49 -489h-1205v16q84 51 105 89q21 37 21 144v217h-467l-22 -39q-88 -151 -88 -213q0 -89 155 -199v-16h-446v16q99 102 146 168q48 67 153 243l479 817q16 25 18 51q0 32 -25 63q-27 34 -84 89v16h1192l37 -503h-17q-51 169 -176 299q-125 129 -315 129
h-51v-566h55q103 0 186 56q82 55 129 134h11v-467h-11q-50 89 -132 149q-83 60 -184 56l-55 -2v-566q0 -49 42 -78q41 -28 101 -28h14q145 0 265 123q121 124 200 291zM464 580h401v680h-4z" />
    <glyph glyph-name="Ccedilla" unicode="&#xc7;" horiz-adv-x="1462" 
d="M836 47l-3 -5q97 0 234 150q137 151 261 349h17l-41 -514q-248 -53 -492 -60l-6 -16q307 -25 307 -180q0 -209 -452 -207l8 43q217 16 217 111q0 47 -55 87t-144 40l72 123q-98 0 -191 21q-92 21 -190 75q-97 53 -169 135q-71 80 -118 215q-46 132 -46 303q0 263 105 441
q104 177 275 256q169 78 388 78q191 0 495 -59l41 -500h-17q-135 198 -270 341q-136 144 -228 144q-43 0 -85 -33q-41 -32 -82 -105q-40 -72 -66 -212q-25 -137 -25 -329q0 -185 24 -324q24 -141 64 -216q40 -77 84 -114q44 -38 88 -38z" />
    <glyph glyph-name="Egrave" unicode="&#xc8;" horiz-adv-x="1374" 
d="M799 1530h-20q-234 184 -402 328h424q-4 -84 -4 -142q0 -46 1 -88t1 -98zM1271 489l15 -4l-49 -489h-1214v16q84 51 105 89q21 37 21 144v964q0 109 -21 147q-21 37 -105 88v16h1142l37 -503h-16q-51 169 -176 299q-124 129 -315 129h-57v-574h63q103 0 186 56
q82 55 129 134h10v-465h-10q-50 88 -129 147t-186 57l-63 -2v-557q0 -49 42 -78q41 -28 101 -28h25q145 0 265 123q121 124 200 291z" />
    <glyph glyph-name="Eacute" unicode="&#xc9;" horiz-adv-x="1374" 
d="M565 1530v1q0 56 1 98t1 87q0 57 -4 141h422q-161 -136 -401 -327h-19zM1272 490l15 -4l-49 -489h-1214v16q84 51 105 89t21 144v964q0 110 -21 147t-105 88v16h1142l37 -503h-16q-51 169 -176 299q-125 129 -315 129h-57v-574h63q103 0 186 56q82 55 129 134h10v-465
h-10q-49 89 -129 147t-186 57l-63 -2v-557q0 -50 42 -78q41 -28 101 -28h25q145 0 265 123q121 124 200 291z" />
    <glyph glyph-name="Ecircumflex" unicode="&#xca;" horiz-adv-x="1374" 
d="M676 1661l-314 -147l-12 13q281 372 314 417h22q170 -233 313 -418l-10 -13zM1272 490l15 -4l-49 -489h-1214v16q84 51 105 89t21 144v964q0 110 -21 147t-105 88v16h1142l37 -503h-16q-51 169 -176 299q-125 129 -315 129h-57v-574h63q103 0 186 56q82 55 129 134h10
v-465h-10q-49 89 -129 147t-186 57l-63 -2v-557q0 -50 42 -78q41 -28 101 -28h25q145 0 265 123q121 124 200 291z" />
    <glyph glyph-name="Edieresis" unicode="&#xcb;" horiz-adv-x="1374" 
d="M909 1540h1q-70 0 -121 51t-51 119q0 70 51 121t120 51q67 0 120 -51q52 -51 52 -121q0 -68 -52 -119q-53 -51 -120 -51zM441 1536h1q-70 0 -121 51t-51 119q0 70 51 121t120 51q67 0 120 -51q52 -51 52 -121q0 -68 -52 -119q-53 -51 -120 -51zM1274 489l15 -4l-49 -489
h-1214v16q84 51 105 89q21 37 21 144v964q0 109 -21 147q-21 37 -105 88v16h1142l37 -503h-16q-51 169 -176 299q-125 129 -315 129h-57v-574h63q103 0 186 56q82 55 129 134h10v-465h-10q-49 88 -129 147t-186 57l-63 -2v-557q0 -49 42 -78q41 -28 101 -28h25
q145 0 265 123q121 124 200 291z" />
    <glyph glyph-name="Igrave" unicode="&#xcc;" horiz-adv-x="786" 
d="M504 1530q-242 191 -404 328h424q-4 -84 -4 -142q0 -46 1 -88t1 -98h-18zM25 0v17q84 51 105 89t21 144v964q0 110 -21 147t-105 88v16h741v-16q-84 -51 -105 -88t-21 -147v-964q0 -106 21 -144t105 -90v-16h-741z" />
    <glyph glyph-name="Iacute" unicode="&#xcd;" horiz-adv-x="786" 
d="M309 1530l-18 2q0 56 1 98t1 87q0 57 -4 141h422q-161 -136 -402 -328zM25 2v17q84 51 105 89t21 144v964q0 110 -21 147t-105 88v16h741v-16q-84 -51 -105 -88t-21 -147v-964q0 -106 21 -144t105 -90v-16h-741z" />
    <glyph glyph-name="Icircumflex" unicode="&#xce;" horiz-adv-x="786" 
d="M88 1513l-12 14q247 327 313 417h23q170 -233 313 -418l-10 -13l-314 148zM25 1v17q84 51 105 89q21 37 21 144v964q0 109 -21 147q-21 37 -105 88v16h741v-16q-84 -51 -105 -88q-21 -38 -21 -147v-964q0 -107 21 -144t105 -90v-16h-741z" />
    <glyph glyph-name="Idieresis" unicode="&#xcf;" horiz-adv-x="786" 
d="M635 1540q-70 0 -121 51t-51 119q0 70 51 121t121 51q67 0 120 -51q52 -51 52 -121q0 -68 -52 -119q-53 -51 -120 -51zM166 1536q-70 0 -121 51t-51 119q0 70 51 121t121 51q68 0 120 -51t52 -121q0 -68 -52 -119t-120 -51zM25 0v17q84 51 105 89t21 144v964
q0 110 -21 147t-105 88v16h741v-16q-84 -51 -105 -88t-21 -147v-964q0 -106 21 -144t105 -90v-16h-741z" />
    <glyph glyph-name="Eth" unicode="&#xd0;" horiz-adv-x="1613" 
d="M686 1464l-3 3q437 0 658 -175q222 -176 222 -511q0 -162 -49 -300q-50 -140 -145 -247q-96 -108 -249 -171t-350 -63h-745v16q84 51 105 89q21 37 21 144v477h-84v74h84v413q0 109 -21 147q-21 37 -105 88v16h661zM747 81h-1q115 10 202 180t87 500q0 134 -16 234
q-17 103 -39 168t-60 111q-37 46 -68 69t-74 35q-46 13 -65 14q-14 1 -53 1h-23v-590h182v-74h-182v-545q0 -41 32 -68q32 -28 78 -35z" />
    <glyph glyph-name="Ntilde" unicode="&#xd1;" horiz-adv-x="1538" 
d="M565 1634l-2 -1q-67 0 -137 -59l-22 6q32 152 105 219q74 68 197 68q54 0 153 -29q141 -41 172 -41q48 0 81 14q30 13 69 47l24 -5q-25 -145 -96.5 -217t-189.5 -71q-74 0 -168 28q-144 41 -186 41zM1524 1463l-1 -15q-90 -56 -126 -99q-35 -43 -52 -123
q-16 -77 -16 -249v-977h-377q-262 462 -649 1071v-584q0 -169 15 -249t51 -123t126 -99v-16h-471v16q90 56 126 99q35 43 52 123q17 82 17 249v621q0 96 -45 169q-46 75 -151 171v16h581q270 -414 641 -1047v559q0 170 -15 249t-51 123t-126 99v16h471z" />
    <glyph glyph-name="Ograve" unicode="&#xd2;" horiz-adv-x="1671" 
d="M940 1530q-234 184 -402 328h424q-5 -95 -6 -142q0 -46 1 -88t1 -98h-18zM834 -29v-1q-368 0 -576 198q-209 198 -209 564t209 563t576 197q372 0 578 -196q207 -196 207 -563q0 -366 -208 -564q-209 -198 -577 -198zM895 50l-4 1q100 0 157 116q57 115 57 336
q0 117 -13 246q-14 139 -46 293q-33 160 -103 264q-71 105 -168 105q-101 0 -157 -114q-55 -113 -55 -333q0 -108 14 -246q14 -139 46 -296q33 -161 104 -267q71 -105 168 -105z" />
    <glyph glyph-name="Oacute" unicode="&#xd3;" horiz-adv-x="1671" 
d="M745 1530l-18 2q0 56 1 98t1 87q0 57 -4 141h422q-161 -136 -402 -328zM834 -27v-1q-368 0 -576 198q-209 198 -209 564t209 563t576 197q372 0 578 -196q207 -196 207 -563q0 -366 -208 -564q-209 -198 -577 -198zM895 52l-4 1q100 0 157 116q57 115 57 336
q0 117 -13 246q-14 139 -46 293q-33 160 -103 264q-71 105 -168 105q-101 0 -157 -114q-55 -113 -55 -333q0 -108 14 -246q14 -139 46 -296q33 -161 104 -267q71 -105 168 -105z" />
    <glyph glyph-name="Ocircumflex" unicode="&#xd4;" horiz-adv-x="1671" 
d="M524 1513l-12 14q247 327 313 417h23q170 -233 313 -418l-10 -13l-313 148zM834 -28v-1q-368 0 -576 198q-209 198 -209 564t209 563t576 197q372 0 578 -196q207 -197 207 -563t-208 -564q-209 -198 -577 -198zM895 51l-4 1q100 0 157 116t57 336q0 117 -13 246
q-14 139 -46 293q-33 160 -103 264q-71 105 -168 105q-101 0 -157 -114q-55 -113 -55 -333q0 -108 14 -246q14 -139 46 -296q33 -161 104 -267q71 -105 168 -105z" />
    <glyph glyph-name="Otilde" unicode="&#xd5;" horiz-adv-x="1671" 
d="M1227 1858l20 -6q-47 -290 -285 -288q-74 0 -168 28q-143 41 -185 41q-67 0 -137 -59l-22 6q32 152 105 219q74 68 197 68q54 0 153 -29q141 -41 172 -41q48 0 81 14q30 13 69 47zM830 -30v-1q-368 0 -576 198q-209 198 -209 564t209 563t576 197q372 0 578 -196
q207 -197 207 -563t-208 -564q-209 -198 -577 -198zM891 49l-4 1q100 0 157 116t57 336q0 117 -13 246q-14 139 -46 293q-33 160 -103 264q-71 105 -168 105q-101 0 -157 -114q-55 -113 -55 -333q0 -108 14 -246q14 -139 46 -296q33 -161 104 -267q71 -105 168 -105z" />
    <glyph glyph-name="Odieresis" unicode="&#xd6;" horiz-adv-x="1671" 
d="M1071 1540q-70 0 -121 51t-51 119q0 70 51 121t121 51q67 0 120 -51q52 -51 52 -121q0 -68 -52 -119q-53 -51 -120 -51zM602 1536q-70 0 -121 51t-51 119q0 70 51 121t121 51q68 0 120 -51t52 -121q0 -68 -52 -119t-120 -51zM834 -29v-1q-368 0 -576 198
q-209 198 -209 564t209 563t576 197q372 0 578 -196q207 -196 207 -563q0 -366 -208 -564q-209 -198 -577 -198zM895 50l-4 1q100 0 157 116q57 115 57 336q0 117 -13 246q-14 139 -46 293q-33 160 -103 264q-71 105 -168 105q-101 0 -157 -114q-55 -113 -55 -333
q0 -108 14 -246q14 -139 46 -296q33 -161 104 -267q71 -105 168 -105z" />
    <glyph glyph-name="multiply" unicode="&#xd7;" horiz-adv-x="800" 
d="M731 428l-55 -55l-273 274l-266 -266l-53 53l266 266l-274 273l55 55l275 -272l264 264l53 -53l-264 -265z" />
    <glyph glyph-name="Oslash" unicode="&#xd8;" horiz-adv-x="1671" 
d="M1325 1364v1q295 -193 295 -631q0 -367 -209 -565t-576 -198q-255 0 -437 97l-92 -129h-80l117 163q-293 197 -293 630q0 367 209 564t576 197q254 0 435 -94l84 117h80zM563 968l-1 -1q0 -258 49 -490l428 600q-90 338 -264 338q-101 0 -157 -114q-55 -113 -55 -333z
M894 51l-1 -1q100 0 157 115t57 333q0 253 -49 495l-428 -600q90 -342 264 -342z" />
    <glyph glyph-name="Ugrave" unicode="&#xd9;" horiz-adv-x="1538" 
d="M909 1530h-1q-234 184 -402 328h424q-4 -84 -4 -142q0 -46 1 -88t1 -98h-19zM1529 1464l-4 -16q-90 -56 -126 -99t-51 -123t-15 -249v-490q0 -516 -542 -516q-121 0 -231 26q-108 25 -204 81t-152 161q-56 106 -56 244v731q0 110 -21 147t-105 88v16h741v-16
q-84 -51 -105 -88t-21 -147v-755q0 -194 82 -289q83 -96 216 -96q55 0 106 18q52 18 102 58q51 40 81 128q30 87 30 209v490q0 172 -16 249q-17 80 -52 123q-36 43 -126 99v16h469z" />
    <glyph glyph-name="Uacute" unicode="&#xda;" horiz-adv-x="1538" 
d="M715 1530l-19 2q0 56 1 98t1 87q0 57 -4 141h422q-154 -132 -401 -328zM1530 1466l-4 -16q-90 -56 -126 -99t-51 -123t-15 -249v-490q0 -516 -542 -516q-121 0 -231 26q-108 25 -204 81t-152 161q-56 106 -56 244v731q0 110 -21 147t-105 88v16h741v-16q-84 -51 -105 -88
t-21 -147v-755q0 -194 82 -289q82 -96 216 -96q55 0 106 18q52 18 102 58q51 40 81 128q30 87 30 209v490q0 172 -16 249q-17 80 -52 123q-36 43 -126 99v16h469z" />
    <glyph glyph-name="Ucircumflex" unicode="&#xdb;" horiz-adv-x="1538" 
d="M494 1513l-13 14q281 372 314 417h22q170 -233 313 -418l-10 -13l-313 148zM1530 1465l-4 -16q-90 -55 -126 -99t-51 -123t-15 -249v-490q0 -516 -542 -516q-121 0 -231 26q-108 26 -204 81q-96 56 -152 161q-56 106 -56 244v731q0 109 -21 147q-21 37 -105 88v16h741
v-16q-84 -51 -105 -88q-21 -38 -21 -147v-755q0 -194 82 -289q82 -96 216 -96q55 0 106 18q52 18 102 58q51 40 81 128q30 87 30 209v490q0 172 -16 249q-17 80 -52 123q-36 44 -126 99v16h469z" />
    <glyph glyph-name="Udieresis" unicode="&#xdc;" horiz-adv-x="1538" 
d="M1038 1540h1q-70 0 -121 51t-51 119q0 70 51 121t120 51q68 0 120 -51t52 -121q0 -68 -52 -119t-120 -51zM570 1536h1q-70 0 -121 51t-51 119q0 70 51 121t120 51q68 0 120 -51t52 -121q0 -68 -52 -119t-120 -51zM1532 1464l-4 -16q-90 -56 -126 -99t-51 -123t-15 -249
v-490q0 -516 -542 -516q-121 0 -231 26q-108 25 -204 81t-152 161q-56 106 -56 244v731q0 110 -21 147t-105 88v16h741v-16q-84 -51 -105 -88t-21 -147v-755q0 -194 82 -289q82 -96 216 -96q55 0 106 18q52 18 102 58q51 40 81 128q30 87 30 209v490q0 172 -16 249
q-17 80 -52 123q-36 43 -126 99v16h469z" />
    <glyph glyph-name="Yacute" unicode="&#xdd;" horiz-adv-x="1472" 
d="M668 1530v1q0 56 1 98t1 87q0 57 -4 141h421q-161 -136 -401 -327h-18zM1051 1465l427 1v-16q-80 -76 -133 -141q-48 -59 -112 -167l-256 -443v-446q0 -107 21 -144t105 -90v-16h-742v16q84 50 105 88q21 39 21 146v438l-348 559q-80 126 -139 201v16h750v-16
q-111 -83 -111 -144q0 -43 66 -148l235 -371l195 353q41 74 41 117q0 84 -125 191v16z" />
    <glyph glyph-name="germandbls" unicode="&#xdf;" horiz-adv-x="1429" 
d="M842 1026l-4 -5q0 -34 56 -81q51 -43 135 -103q79 -57 159 -126q79 -69 135 -170t56 -213q0 -178 -124 -268q-125 -90 -291 -90q-180 0 -357 105l66 420l14 -4q51 -185 123 -321t146 -136q35 0 62 36t27 93q0 70 -44 132q-45 64 -106 113l-126 102q-62 50 -106 120
t-44 149q0 57 24 105q25 49 57 83q22 23 68 69q33 33 58 86q24 51 24 113q0 89 -41 139q-40 49 -99 49q-72 0 -120 -82q-48 -83 -48 -265v-837q0 -102 17 -142q16 -38 72 -82v-16h-625v16q58 44 74 81q17 39 17 143v694h-82v76h82q1 235 158 357t436 122q198 0 314 -58
q117 -58 117 -168q0 -66 -44 -105q-44 -40 -96 -50q-52 -11 -96 -30q-44 -20 -44 -51z" />
    <glyph glyph-name="agrave" unicode="&#xe0;" horiz-adv-x="1249" 
d="M774 1120l-1 1q-234 184 -402 328h422q-2 -62 -2 -143q0 -92 2 -186h-19zM929 -19l-6 -4q-130 0 -187 68q-57 67 -51 159h-4q-43 -94 -135 -160t-216 -66q-131 0 -209 72t-78 182q0 86 51 156q51 71 146 122q94 51 200 87q100 34 245 67l2 190q0 109 -84 109
q-73 0 -119 -103q-46 -104 -66 -243l-12 -2l-283 125q49 115 188 201q137 85 363 85q126 0 213 -31q89 -32 132 -73q43 -42 67 -109q24 -68 27 -112q3 -39 1 -108l-8 -389q0 -68 45 -68q47 0 80 70l18 -8q-28 -85 -109 -151t-211 -66zM585 220v1q28 0 54 20q25 19 36 42
l8 331q-182 -44 -182 -246q0 -148 84 -148z" />
    <glyph glyph-name="aacute" unicode="&#xe1;" horiz-adv-x="1249" 
d="M522 1120h-18q0 56 1 98t1 89q0 57 -4 141h422q-161 -136 -402 -328zM930 -20l-6 -4q-130 0 -187 68t-51 159h-4q-43 -94 -135 -160q-91 -66 -216 -66q-131 0 -209 72t-78 182q0 85 51 156t146 122q94 51 200 87q100 34 245 67l2 190q0 109 -84 109q-73 0 -119 -103
q-47 -103 -66 -243l-12 -2l-283 125q49 115 188 201q137 85 363 85q126 0 213 -31q89 -32 132 -73q43 -42 67 -109q24 -68 27 -112q3 -39 1 -108l-8 -389q0 -68 45 -68q47 0 80 70l18 -8q-28 -85 -109 -151t-211 -66zM586 219v1q28 0 54 20t36 42l8 331q-182 -44 -182 -246
q0 -148 84 -148z" />
    <glyph glyph-name="acircumflex" unicode="&#xe2;" horiz-adv-x="1249" 
d="M362 1116l-11 10q36 44 108 143q68 95 170 218h24q158 -225 275 -361l-6 -10l-281 127zM929 -20l-6 -4q-130 0 -187 68t-51 159h-4q-43 -94 -135 -160t-216 -66q-131 0 -209 72t-78 182q0 85 51 156t146 122q94 51 200 87q100 34 245 67l2 190q0 109 -84 109
q-73 0 -119 -103t-66 -243l-12 -2l-283 125q49 115 188 201q137 85 363 85q126 0 213 -31q89 -32 132 -73q43 -42 67 -109q24 -68 27 -112q3 -39 1 -108l-8 -389q0 -68 45 -68q47 0 80 70l18 -8q-28 -85 -109 -151t-211 -66zM585 219v1q28 0 54 20q25 20 36 42l8 331
q-182 -44 -182 -246q0 -148 84 -148z" />
    <glyph glyph-name="atilde" unicode="&#xe3;" horiz-adv-x="1249" 
d="M991 1401l21 -5q-45 -262 -252 -262q-69 0 -153 28q-122 39 -166 39q-56 0 -123 -59l-20 6q50 264 261 264q52 0 148 -31q121 -39 145 -39q49 0 74 11t65 48zM928 -21l-6 -4q-130 0 -187 68q-57 67 -51 159h-4q-43 -94 -135 -160q-91 -66 -216 -66q-131 0 -209 72
t-78 182q0 86 51 156q51 71 146 122q94 51 200 87q100 34 245 67l2 190q0 109 -84 109q-73 0 -119 -103q-47 -104 -66 -243l-12 -2l-283 125q49 115 188 201q137 85 363 85q126 0 213 -31q89 -32 132 -73q43 -42 67 -109q24 -68 27 -112q3 -39 1 -108l-8 -389q0 -68 45 -68
q47 0 80 70l18 -8q-28 -85 -109 -151t-211 -66zM584 218v1q28 0 54 20q26 19 36 42l8 331q-182 -44 -182 -246q0 -148 84 -148z" />
    <glyph glyph-name="adieresis" unicode="&#xe4;" horiz-adv-x="1249" 
d="M436 1106q-72 0 -126 54t-54 126q0 70 54 124t126 54q71 0 126 -53q54 -53 54 -125t-54 -126t-126 -54zM843 1106h2q-72 0 -126 54t-54 126q0 70 54 124t126 54q70 0 124 -54t54 -124q0 -72 -54 -126t-126 -54zM931 -20l-6 -4q-130 0 -187 68t-51 159h-4
q-43 -94 -135 -160t-216 -66q-131 0 -209 72t-78 182q0 85 51 156t146 122q94 51 200 87q100 34 245 67l2 190q0 109 -84 109q-73 0 -119 -103t-66 -243l-12 -2l-283 125q49 115 188 201q137 85 363 85q126 0 213 -31q89 -32 132 -73q43 -42 67 -109q24 -68 27 -112
q3 -39 1 -108l-8 -389q0 -68 45 -68q47 0 80 70l18 -8q-28 -85 -109 -151t-211 -66zM587 219v1q28 0 54 20q25 20 36 42l8 331q-182 -44 -182 -246q0 -148 84 -148z" />
    <glyph glyph-name="aring" unicode="&#xe5;" horiz-adv-x="1249" 
d="M639 1075l1 -2q-82 0 -141 59q-58 58 -58 141q0 82 57 139t141 57q81 0 139 -56q57 -55 57 -140q0 -84 -57 -141t-139 -57zM648 1139q47 0 75 40t28 91q0 57 -34 97t-81 40t-77 -39t-30 -92t36 -95t83 -42zM931 -22l-6 -4q-130 0 -187 68t-51 159h-4q-43 -94 -135 -160
t-216 -66q-131 0 -209 72t-78 182q0 85 51 156t146 122q94 51 200 87q100 34 245 67l2 190q0 109 -84 109q-73 0 -119 -103t-66 -243l-12 -2l-283 125q49 115 188 201q137 85 363 85q126 0 213 -31q89 -32 132 -73q43 -42 67 -109q24 -68 27 -112q3 -39 1 -108l-8 -389
q0 -68 45 -68q47 0 80 70l18 -8q-28 -85 -109 -151t-211 -66zM587 217v1q28 0 54 20q25 20 36 42l8 331q-182 -44 -182 -246q0 -148 84 -148z" />
    <glyph glyph-name="ae" unicode="&#xe6;" horiz-adv-x="1744" 
d="M369 -20l-4 -4q-72 0 -138 18t-123 78t-57 155q0 74 37 135q39 63 91 104q53 42 146 81t172 63q90 27 198 53l2 202q0 39 -24 66t-64 27q-55 0 -97 -57q-41 -56 -61 -130q-19 -73 -27 -159h-12l-279 129q47 112 180 197q134 86 328 86q171 0 299 -76q155 76 307 76
q207 0 333 -111t126 -292v-25h-629q0 -98 33 -168q34 -72 85 -104q53 -33 105 -48t108 -15q81 0 163 32t122 99l12 -6q-39 -178 -157 -292t-321 -114q-132 0 -247 50q-114 50 -177 138q-53 -76 -180 -132q-129 -56 -250 -56zM1071 658l235 2q-4 301 -120 301
q-115 0 -115 -303zM640 164l1 1q74 0 114 49q-72 118 -72 288q0 43 6 115q-182 -71 -182 -271q0 -95 38 -139q37 -43 95 -43z" />
    <glyph glyph-name="ccedilla" unicode="&#xe7;" horiz-adv-x="1067" 
d="M561 -20l-1 -5q-2 0 -5.5 0.5t-10.5 1t-13 0.5l-18 -31q143 -12 210 -52q68 -41 68 -114q0 -110 -132 -172q-131 -61 -363 -58l16 43q110 7 176 41q65 33 65 86q0 49 -50 84t-123 35l106 144q-190 28 -318 161q-127 131 -127 365q0 133 45 235q45 103 121 162
q77 60 169 90q93 30 197 30q299 0 432 -238l-254 -188l-17 6q-7 134 -50 245q-42 110 -116 110q-58 0 -90 -77q-32 -78 -32 -207q0 -196 73 -309q73 -114 225 -114q174 0 285 176l19 -10q-33 -191 -148 -315q-116 -125 -339 -125z" />
    <glyph glyph-name="egrave" unicode="&#xe8;" horiz-adv-x="1114" 
d="M735 1120l-18 1q-242 191 -404 328h422q-2 -62 -2 -143q0 -92 2 -186zM1071 601l-627 -2v-4q0 -96 30 -165t81 -105t105 -51t115 -15q199 0 283 135l12 -6q-96 -409 -481 -408q-235 0 -392 140q-156 140 -156 396t156 384q157 128 395 128q222 0 350 -109
q129 -109 129 -295v-23zM559 964l-1 1q-59 0 -84 -76q-26 -77 -30 -228h234q-6 303 -119 303z" />
    <glyph glyph-name="eacute" unicode="&#xe9;" horiz-adv-x="1114" 
d="M446 1120l-1 -1q0 14 2 98t2 89q0 36 -5 141h422q-161 -136 -401 -327h-19zM1070 599l-627 -2v-4q0 -96 30 -165t81 -105t105 -51t115 -15q199 0 283 135l12 -6q-96 -409 -481 -408q-235 0 -392 140q-156 140 -156 396t156 384q157 128 395 128q222 0 350 -109
q129 -109 129 -295v-23zM558 962l-1 1q-59 0 -84 -76q-25 -77 -30 -228h234q-6 303 -119 303z" />
    <glyph glyph-name="ecircumflex" unicode="&#xea;" horiz-adv-x="1114" 
d="M584 1243l-280 -127l-10 10q36 44 108 143q75 104 169 218h25q162 -231 274 -361l-6 -10zM1070 600l-627 -2v-4q0 -96 30 -165t81 -105t105 -51t115 -15q199 0 283 135l12 -6q-96 -409 -481 -408q-235 0 -392 140q-156 139 -156 396t156 384q157 128 395 128
q222 0 350 -109q129 -110 129 -295v-23zM558 963l-1 1q-59 0 -84 -76t-30 -228h234q-6 303 -119 303z" />
    <glyph glyph-name="edieresis" unicode="&#xeb;" horiz-adv-x="1114" 
d="M381 1106q-73 0 -125 54q-53 55 -53 126q0 70 54 124t124 54q71 0 126 -53q54 -53 54 -125t-54 -126t-126 -54zM788 1106q-72 0 -126 54t-54 126q0 70 54 124t126 54t126 -54t54 -124q0 -72 -54 -126t-126 -54zM1070 600l-627 -2v-4q0 -96 30 -165t81 -105t105 -51
t115 -15q199 0 283 135l12 -6q-96 -409 -481 -408q-235 0 -392 140q-156 139 -156 396t156 384q157 128 395 128q222 0 350 -109q129 -110 129 -295v-23zM558 963l-1 1q-59 0 -84 -76t-30 -228h234q-6 303 -119 303z" />
    <glyph glyph-name="igrave" unicode="&#xec;" horiz-adv-x="638" 
d="M436 1137h-1q-227 179 -402 327h422q-2 -62 -2 -135q0 -100 2 -192h-19zM7 0l-2 15q58 44 74 81q17 39 17 143v395q0 99 -10 146q-11 50 -24 71q-12 19 -54 67v16q275 18 535 96v-790q0 -102 17 -142q16 -38 72 -82v-16h-625z" />
    <glyph glyph-name="iacute" unicode="&#xed;" horiz-adv-x="638" 
d="M184 1137h-18q0 56 1 98t1 88q0 57 -4 141h422q-170 -142 -402 -327zM8 0l-2 15q58 44 74 81q17 39 17 143v395q0 99 -10 146q-11 50 -24 71q-12 19 -54 67v16q275 18 535 96v-790q0 -102 17 -142q16 -38 72 -82v-16h-625z" />
    <glyph glyph-name="icircumflex" unicode="&#xee;" horiz-adv-x="638" 
d="M23 1133l-12 10q36 44 108 143q63 88 170 217h24q160 -228 275 -360l-6 -10l-281 127zM7 0l-2 15q58 44 74 81q17 39 17 143v395q0 99 -10 146q-11 50 -24 71q-12 19 -54 67v16q275 18 535 96v-790q0 -102 17 -142q16 -38 72 -82v-16h-625z" />
    <glyph glyph-name="idieresis" unicode="&#xef;" horiz-adv-x="638" 
d="M98 1122l3 2q-72 0 -126 54t-54 126q0 70 54 124t123 54q72 0 126 -54t54 -126t-54 -126t-126 -54zM508 1124v-1q-72 0 -126 54t-54 126q0 70 54 124t126 54t125 -54q53 -55 53 -123q0 -71 -53 -126q-53 -54 -125 -54zM10 1l-2 15q58 44 74 81q17 39 17 143v395
q0 99 -10 146q-11 50 -24 71q-12 19 -54 67v16q275 18 535 96v-790q0 -102 17 -142q16 -38 72 -82v-16h-625z" />
    <glyph glyph-name="ntilde" unicode="&#xf1;" horiz-adv-x="1308" 
d="M477 1202l-3 -1q-56 0 -123 -59l-20 6q49 264 261 264q54 0 147 -31q121 -39 147 -39q49 0 74 11t65 48l23 -4q-45 -262 -252 -262q-69 0 -153 28q-122 39 -166 39zM1211 239h1q0 -102 17 -142q16 -38 75 -82v-16h-625v16q57 45 75 83t18 141v422q0 78 -33 117t-82 39
q-57 0 -114 -71v-508q0 -103 15 -142q15 -38 71 -82v-16h-623v16q58 44 74 81q17 39 17 143v397q0 135 -16 180q-16 46 -72 106v14q253 14 527 93v-209q136 205 351 205q31 0 69 -5q37 -5 83 -25q49 -21 84 -55q37 -36 62 -97q26 -64 26 -149v-454z" />
    <glyph glyph-name="ograve" unicode="&#xf2;" horiz-adv-x="1243" 
d="M756 1120v1q-242 191 -404 328h422q-2 -62 -2 -143q0 -92 2 -186h-18zM610 -19l2 1q-258 0 -414 123t-156 389t159 399q160 134 432 134q259 0 414 -125t155 -389q0 -265 -159 -399q-158 -133 -433 -133zM678 47l1 -2q74 0 74 188q0 77 -7 174q-8 112 -25 237
q-18 134 -57 225t-93 91q-78 0 -77 -184q0 -103 12 -253q12 -152 58 -313q46 -163 114 -163z" />
    <glyph glyph-name="oacute" unicode="&#xf3;" horiz-adv-x="1243" 
d="M504 1120h-19q0 56 1 98t1 89q0 57 -4 141h422q-154 -132 -401 -328zM610 -20l2 1q-258 0 -414 123t-156 389q0 265 159 399q160 134 432 134q259 0 414 -125t155 -389q0 -266 -159 -399q-158 -133 -433 -133zM678 46l1 -2q74 0 74 188q0 77 -7 174q-8 112 -25 237
q-18 133 -57 225q-39 91 -93 91q-78 0 -77 -184q0 -103 12 -253q12 -152 58 -313q46 -163 114 -163z" />
    <glyph glyph-name="ocircumflex" unicode="&#xf4;" horiz-adv-x="1243" 
d="M344 1116l-11 10q36 44 108 143q75 104 169 218h25q162 -231 274 -361l-6 -10l-280 127zM609 -20l2 1q-258 0 -414 123t-156 389q0 265 159 399q160 134 432 134q259 0 414 -125t155 -389q0 -266 -159 -399q-158 -133 -433 -133zM677 46l1 -2q74 0 74 188q0 77 -7 174
q-8 112 -25 237q-18 133 -57 225q-39 91 -93 91q-78 0 -77 -184q0 -103 12 -253q12 -152 58 -313q46 -163 114 -163z" />
    <glyph glyph-name="otilde" unicode="&#xf5;" horiz-adv-x="1243" 
d="M973 1401l20 -5q-45 -262 -252 -262q-69 0 -153 28q-122 39 -166 39q-56 0 -123 -59l-20 6q49 264 261 264q54 0 147 -31q121 -39 147 -39q49 0 74 11t65 48zM608 -21l2 1q-258 0 -414 123t-156 389t159 399q160 134 432 134q259 0 414 -125t155 -389q0 -265 -159 -399
q-158 -133 -433 -133zM676 45l1 -2q74 0 74 188q0 77 -7 174q-8 112 -25 237q-18 134 -57 225t-93 91q-78 0 -77 -184q0 -103 12 -253q12 -152 58 -313q46 -163 114 -163z" />
    <glyph glyph-name="odieresis" unicode="&#xf6;" horiz-adv-x="1243" 
d="M417 1106h-1q-72 0 -124 54q-53 55 -53 126q0 70 54 124t124 54q71 0 126 -53q54 -53 54 -125t-54 -126t-126 -54zM824 1106q-72 0 -126 54t-54 126q0 70 54 124t126 54t126 -54t54 -124q0 -72 -54 -126t-126 -54zM608 -20l2 1q-258 0 -414 123t-156 389q0 265 159 399
q160 134 432 134q259 0 414 -125t155 -389q0 -266 -159 -399q-158 -133 -433 -133zM676 46l1 -2q74 0 74 188q0 77 -7 174q-8 112 -25 237q-18 133 -57 225q-39 91 -93 91q-78 0 -77 -184q0 -103 12 -253q12 -152 58 -313q46 -163 114 -163z" />
    <glyph glyph-name="divide" unicode="&#xf7;" horiz-adv-x="872" 
d="M434 848l-2 -2q-57 0 -100 43t-43 101t43 101t101 43t101 -43t43 -100t-43 -100t-100 -43zM798 735v-78h-727v78h727zM425 252v-2q-57 0 -100 43t-43 101t43 101t100 43t100 -43t43 -100t-43 -100t-100 -43z" />
    <glyph glyph-name="oslash" unicode="&#xf8;" horiz-adv-x="1243" 
d="M997 936l2 -1q205 -124 205 -422q0 -265 -159 -399q-160 -134 -427 -134q-189 0 -317 61l-94 -121h-72l115 148q-207 124 -207 420q0 268 159 403t428 135q189 0 318 -61l78 100h72zM494 775q0 -143 26 -362l195 250q-49 295 -144 294q-77 0 -77 -182zM676 44v1
q76 0 76 186q0 161 -25 354l-195 -248q50 -293 144 -293z" />
    <glyph glyph-name="ugrave" unicode="&#xf9;" horiz-adv-x="1304" 
d="M805 1120l-20 1q-234 184 -402 328h422q-2 -62 -2 -143q0 -92 2 -186zM1211 280v-2q0 -92 18 -128t71 -71v-17l-524 -92v195q-51 -76 -142 -136q-92 -60 -213 -60q-35 0 -69 6q-37 6 -84 25q-49 19 -85 54q-35 34 -61 99q-25 63 -25 150v332q0 125 -15 176
q-15 52 -73 107v16q275 18 535 96q0 -38 -2 -348t-2 -345q0 -77 33 -118q33 -40 84 -40q61 0 109 51v406q0 128 -15 178t-72 105v16q278 18 532 96v-751z" />
    <glyph glyph-name="uacute" unicode="&#xfa;" horiz-adv-x="1304" 
d="M516 1120v-1q0 56 1 98t1 89q0 57 -4 141h422q-161 -136 -401 -327h-19zM1212 278v-2q0 -92 18 -128t71 -71v-17l-524 -92v195q-51 -76 -142 -136t-213 -60q-34 0 -69 6q-37 6 -84 25q-49 19 -85 54q-35 34 -61 99q-25 63 -25 150v332q0 125 -15 176q-15 52 -73 107v16
q275 18 535 96q0 -38 -2 -348t-2 -345q0 -77 33 -118q33 -40 84 -40q61 0 109 51v406q0 128 -15 178t-72 105v16q278 18 532 96v-751z" />
    <glyph glyph-name="ucircumflex" unicode="&#xfb;" horiz-adv-x="1304" 
d="M651 1243l-278 -127l-11 10q36 44 108 143q75 104 169 218h25q162 -231 274 -361l-6 -10zM1212 279v-2q0 -92 18 -128t71 -71v-17l-524 -92v195q-51 -76 -142 -136t-213 -60q-34 0 -69 6q-37 6 -84 25q-49 19 -85 54q-35 34 -61 99q-25 63 -25 150v332q0 125 -15 176
q-15 52 -73 107v16q275 18 535 96q0 -38 -2 -348t-2 -345q0 -78 33 -118t84 -40q61 0 109 51v406q0 129 -15 178t-72 105v16q278 18 532 96v-751z" />
    <glyph glyph-name="udieresis" unicode="&#xfc;" horiz-adv-x="1304" 
d="M448 1106q-72 0 -126 54t-54 126q0 70 54 124t126 54q71 0 126 -53q54 -53 54 -125t-54 -126t-126 -54zM855 1106q-72 0 -126 54t-54 126q0 70 54 124t126 54q70 0 124 -54t54 -124q0 -71 -53 -126q-52 -54 -125 -54zM1211 279v-2q0 -92 18 -128t71 -71v-17l-524 -92v195
q-51 -76 -142 -136q-92 -60 -213 -60q-35 0 -69 6q-37 6 -84 25q-49 19 -85 54q-35 34 -61 99q-25 63 -25 150v332q0 125 -15 176q-15 52 -73 107v16q275 18 535 96q0 -38 -2 -348t-2 -345q0 -78 33 -118t84 -40q61 0 109 51v406q0 129 -15 178t-72 105v16q278 18 532 96
v-751z" />
    <glyph glyph-name="yacute" unicode="&#xfd;" horiz-adv-x="1146" 
d="M471 1120v-1q0 56 1 98t1 89q0 57 -4 141h422q-168 -143 -402 -327h-18zM836 996h323v-16q-96 -112 -174 -276q-283 -584 -345 -705q-78 -147 -167 -247q-86 -96 -216 -187l-180 241l8 13q63 -11 137 -13q238 0 309 144l23 45l-455 835q-37 68 -108 150v16h680v-16
q-78 -63 -78 -123q0 -32 31 -88l170 -307q81 160 132 278q14 34 14 56q0 83 -104 184v16z" />
    <glyph glyph-name="ydieresis" unicode="&#xff;" horiz-adv-x="1146" 
d="M403 1106q-72 0 -126 54t-54 126q0 70 54 124t126 54q71 0 126 -53q54 -53 54 -125t-54 -126t-126 -54zM810 1106q-72 0 -126 54t-54 126q0 70 54 124t126 54q70 0 124 -54t54 -124q0 -71 -53 -126q-53 -54 -125 -54zM835 997h323v-16q-96 -113 -174 -276
q-284 -583 -345 -705q-78 -147 -167 -247q-86 -96 -216 -187l-180 241l8 13q63 -11 137 -13q239 0 309 144l23 45l-455 835q-38 67 -108 150v16h680v-16q-78 -63 -78 -123q0 -32 31 -88l170 -307q81 160 132 278q14 34 14 56q0 83 -104 184v16z" />
    <glyph glyph-name="Amacron" unicode="&#x100;" horiz-adv-x="1497" 
d="M1069 1765v-186h-610v186h610zM1352 225l1 -4q17 -47 29 -72q8 -18 36 -58q27 -39 72 -78v-16h-756v16q61 43 85 76t24 74t-41 166l-47 139h-398l-8 -22q-53 -147 -53 -213q0 -58 35 -108q34 -49 116 -111v-16h-434v16q101 101 150 185t101 236l254 729l-88 172
q243 82 430 198zM396 584h320l-162 479z" />
    <glyph glyph-name="amacron" unicode="&#x101;" horiz-adv-x="1249" 
d="M948 1341v-200h-600v200h600zM930 -20l-6 -4q-130 0 -187 68t-51 159h-4q-43 -94 -135 -160q-91 -66 -216 -66q-131 0 -209 72t-78 182q0 85 51 156t146 122q94 51 200 87q100 34 245 67l2 190q0 109 -84 109q-73 0 -119 -103q-47 -103 -66 -243l-12 -2l-283 125
q49 115 188 201q137 85 363 85q126 0 213 -31q89 -32 132 -73q43 -42 67 -109q24 -68 27 -112q3 -39 1 -108l-8 -389q0 -68 45 -68q47 0 80 70l18 -8q-28 -85 -109 -151t-211 -66zM586 219v1q28 0 54 20t36 42l8 331q-182 -44 -182 -246q0 -148 84 -148z" />
    <glyph glyph-name="Abreve" unicode="&#x102;" horiz-adv-x="1497" 
d="M760 1563l-3 -1q-137 0 -204 84t-84 245h18q32 -74 111 -113q80 -39 162 -39q85 0 162 40q79 41 107 114h19q-14 -162 -81 -246t-207 -84zM1349 224l1 -4q17 -47 29 -72q8 -18 36 -58q27 -39 72 -78v-16h-756v16q61 43 85 76t24 74t-41 166l-47 139h-398l-8 -22
q-53 -147 -53 -213q0 -58 35 -108q34 -49 116 -111v-16h-434v16q101 101 150 185t101 236l254 729l-88 172q243 82 430 198zM393 583h320l-162 479z" />
    <glyph glyph-name="abreve" unicode="&#x103;" horiz-adv-x="1249" 
d="M909 1468h16q-13 -182 -81 -276q-67 -94 -207 -94q-137 0 -204 94t-84 276h19q31 -81 110 -127q78 -45 161 -45t162 45q80 45 108 127zM927 -20l-6 -4q-130 0 -187 68t-51 159h-4q-43 -94 -135 -160t-216 -66q-131 0 -209 72t-78 182q0 85 51 156t146 122q94 51 200 87
q100 34 245 67l2 190q0 109 -84 109q-73 0 -119 -103t-66 -243l-12 -2l-283 125q49 115 188 201q137 85 363 85q126 0 213 -31q89 -32 132 -73q43 -42 67 -109q24 -68 27 -112q3 -39 1 -108l-8 -389q0 -68 45 -68q47 0 80 70l18 -8q-28 -85 -109 -151t-211 -66zM583 219v1
q28 0 54 20q25 20 36 42l8 331q-182 -44 -182 -246q0 -148 84 -148z" />
    <glyph glyph-name="Aogonek" unicode="&#x104;" horiz-adv-x="1497" 
d="M1303 0l-1 -5q-43 -34 -73 -87q-30 -52 -30 -99q0 -41 24 -62t59 -21q64 0 117 49l14 -10q-35 -81 -115 -125q-81 -45 -169 -45q-84 0 -135 42t-51 107q0 141 283 252h-492v16q61 43 85 76t24 74t-41 166l-47 139h-398l-8 -22q-53 -147 -53 -213q0 -58 35 -108
q34 -49 116 -111v-16h-434v16q101 101 150 185t101 236l254 729l-88 172q243 82 430 198l492 -1309q17 -47 29 -72q8 -18 36 -58q27 -39 72 -78v-16h-186zM394 583h320l-162 479z" />
    <glyph glyph-name="aogonek" unicode="&#x105;" horiz-adv-x="1249" 
d="M1069 -264l-7 -5q64 0 117 49l14 -10q-35 -81 -115 -125q-81 -45 -169 -45q-84 0 -135 42t-51 107q0 124 221 225h-20q-130 0 -187 68t-51 159h-4q-43 -94 -135 -160q-91 -66 -216 -66q-131 0 -209 72t-78 182q0 85 51 156t146 122q94 51 200 87q100 34 245 67l2 190
q0 109 -84 109q-73 0 -119 -103q-47 -103 -66 -243l-12 -2l-283 125q49 115 188 201q137 85 363 85q126 0 213 -31q89 -32 132 -73q43 -42 67 -109q24 -68 27 -112q3 -39 1 -108l-8 -389q0 -68 45 -68q47 0 80 70l18 -8q-39 -111 -137 -170v-2q-47 -29 -87 -90t-40 -114
q0 -41 24 -62t59 -21zM675 280l8 332q-182 -44 -182 -246q0 -146 84 -148q28 0 54 20q25 20 36 42z" />
    <glyph glyph-name="Cacute" unicode="&#x106;" horiz-adv-x="1462" 
d="M766 1530l-18 2q0 56 1 98t1 87q0 36 -5 141h422q-154 -132 -401 -328zM836 1421l-4 -4q-43 0 -85 -33q-41 -32 -82 -105q-40 -72 -66 -212q-25 -137 -25 -329q0 -184 24 -324q24 -141 64 -216q40 -76 84 -114t88 -38q98 0 234 150q137 151 261 349h17l-41 -514
q-270 -59 -508 -60q-113 0 -215 21q-101 21 -202 75q-100 53 -172 135q-72 81 -117 214q-45 134 -45 303q0 389 214 582q215 194 555 194q191 0 495 -59l41 -500h-17q-135 198 -270 341q-136 144 -228 144z" />
    <glyph glyph-name="cacute" unicode="&#x107;" horiz-adv-x="1067" 
d="M451 1120h-19q0 56 1 98t1 89q0 57 -4 141h422q-154 -132 -401 -328zM571 -20l-4 -1q-97 0 -189 30q-91 30 -170 92q-77 61 -124 167q-46 104 -46 240q0 258 155 387t378 129q303 0 433 -238l-254 -188l-17 6q-7 134 -50 245q-42 110 -116 110q-58 0 -90 -77
q-32 -78 -32 -207q0 -196 73 -309q74 -114 225 -114q174 0 285 176l19 -10q-12 -80 -44 -154q-32 -72 -85 -139t-144 -106q-90 -39 -203 -39z" />
    <glyph glyph-name="Ccircumflex" unicode="&#x108;" horiz-adv-x="1462" 
d="M545 1513l-13 14q281 372 314 417h22q155 -213 314 -418l-11 -13l-313 148zM836 1420l-4 -4q-43 0 -85 -33q-41 -32 -82 -105q-40 -72 -66 -212q-25 -137 -25 -329q0 -185 24 -324q24 -141 64 -216q40 -77 84 -114q44 -38 88 -38q98 0 234 150q137 151 261 349h17
l-41 -514q-270 -59 -508 -60q-113 0 -215 21q-101 21 -202 75q-100 53 -172 135q-72 81 -117 214t-45 303q0 389 214 582q215 194 555 194q191 0 495 -59l41 -500h-17q-135 198 -270 341q-136 144 -228 144z" />
    <glyph glyph-name="ccircumflex" unicode="&#x109;" horiz-adv-x="1067" 
d="M291 1116l-11 10q36 44 108 143q75 104 169 218h25q162 -231 274 -361l-6 -10l-281 127zM570 -20l-4 -1q-98 0 -189 30t-170 92q-77 61 -124 167q-46 104 -46 240q0 258 155 387q154 129 378 129q303 0 433 -238l-254 -188l-17 6q-7 134 -50 245q-42 110 -116 110
q-58 0 -90 -77q-32 -78 -32 -207q0 -196 73 -309q73 -114 225 -114q174 0 285 176l19 -10q-12 -80 -44 -154q-32 -72 -85 -139t-144 -106q-90 -39 -203 -39z" />
    <glyph glyph-name="Cdotaccent" unicode="&#x10a;" horiz-adv-x="1462" 
d="M854 1546v-2q-68 0 -119 53t-51 120q0 68 51 119t119 51q70 0 121 -51t51 -118q0 -68 -51 -120t-121 -52zM836 1417l-4 -4q-43 0 -85 -33q-41 -32 -82 -105q-40 -72 -66 -212q-25 -137 -25 -329q0 -184 24 -324q24 -141 64 -216q40 -76 84 -114t88 -38q98 0 234 150
q137 151 261 349h17l-41 -514q-270 -59 -508 -60q-113 0 -215 21q-101 21 -202 75q-100 53 -172 135q-72 81 -117 214q-45 134 -45 303q0 389 214 582q215 194 555 194q191 0 495 -59l41 -500h-17q-135 198 -270 341q-136 144 -228 144z" />
    <glyph glyph-name="cdotaccent" unicode="&#x10b;" horiz-adv-x="1067" 
d="M569 1087l-2 -1q-88 0 -150 59q-61 58 -61 138t62 137t150 57q86 0 147 -57q62 -57 62 -137t-61 -138t-147 -58zM569 -21l-4 -1q-97 0 -189 30q-91 30 -170 92q-77 61 -124 167q-46 104 -46 240q0 258 155 387t378 129q303 0 433 -238l-254 -188l-17 6q-7 134 -50 245
q-42 110 -116 110q-58 0 -90 -77q-32 -78 -32 -207q0 -196 73 -309q74 -114 225 -114q174 0 285 176l19 -10q-12 -80 -44 -154q-32 -72 -85 -139t-144 -106q-90 -39 -203 -39z" />
    <glyph glyph-name="Ccaron" unicode="&#x10c;" horiz-adv-x="1462" 
d="M545 1946l311 -146l315 146l11 -13q-138 -176 -314 -417h-22l-314 417zM836 1419l-4 -4q-43 0 -85 -33q-41 -32 -82 -105q-40 -72 -66 -212q-25 -137 -25 -329q0 -184 24 -324q24 -141 64 -216q40 -76 84 -114t88 -38q98 0 234 150q137 151 261 349h17l-41 -514
q-270 -59 -508 -60q-113 0 -215 21q-101 21 -202 75q-100 53 -172 135q-72 81 -117 214q-45 134 -45 303q0 389 214 582q215 194 555 194q191 0 495 -59l41 -500h-17q-135 198 -270 341q-136 144 -228 144z" />
    <glyph glyph-name="ccaron" unicode="&#x10d;" horiz-adv-x="1067" 
d="M272 1493l279 -126l280 127l7 -10q-115 -132 -275 -361h-24q-103 125 -177 225q-81 110 -100 135zM571 -19l-4 -1q-97 0 -189 30q-91 30 -170 92q-77 61 -124 167q-46 104 -46 240q0 258 155 387t378 129q303 0 433 -238l-254 -188l-17 6q-7 134 -50 245
q-42 110 -116 110q-58 0 -90 -77q-32 -78 -32 -207q0 -196 73 -309q74 -114 225 -114q174 0 285 176l19 -10q-12 -80 -44 -154q-32 -72 -85 -139t-144 -106q-90 -39 -203 -39z" />
    <glyph glyph-name="Dcaron" unicode="&#x10e;" horiz-adv-x="1613" 
d="M809 1516h-24l-313 417l12 13l312 -146l315 146l10 -13q-131 -165 -312 -417zM685 1464l-3 3q437 0 658 -175q222 -176 222 -511q0 -162 -49 -300q-50 -140 -145 -247q-96 -108 -249 -171t-350 -63h-745v16q84 51 105 89q21 37 21 144v964q0 109 -21 147q-21 37 -105 88
v16h661zM746 81h-1q115 10 202 180t87 500q0 134 -16 234q-16 103 -39 168t-60 111t-68 69t-74 35q-46 13 -65 14q-14 1 -53 1h-23v-1209q0 -41 32 -68q32 -28 78 -35z" />
    <glyph glyph-name="dcaron" unicode="&#x10f;" horiz-adv-x="1280" 
d="M442 -20l-3 -1q-69 0 -136 26q-64 25 -127 80q-62 54 -99 159q-38 106 -38 246q0 146 41 258q40 111 108 168t141 84q74 27 152 27q80 0 153 -22q76 -23 107 -48v295q0 91 -88 179v16q284 19 535 93v-1302q0 -62 18 -94q18 -31 69 -64v-17l-524 -83l-2 174h-2
q-33 -66 -117 -120t-188 -54zM1277 976h-16l36 506h340zM630 142h-1q49 0 111 72v465q-53 254 -137 254q-100 0 -100 -369q0 -422 127 -422z" />
    <glyph glyph-name="Dcroat" unicode="&#x110;" horiz-adv-x="1613" 
d="M686 1464l-3 3q437 0 658 -175q222 -176 222 -511q0 -162 -49 -300q-50 -140 -145 -247q-96 -108 -249 -171t-350 -63h-745v16q84 51 105 89q21 37 21 144v477h-84v74h84v413q0 109 -21 147q-21 37 -105 88v16h661zM747 81h-1q115 10 202 180t87 500q0 134 -16 234
q-17 103 -39 168t-60 111q-37 46 -68 69t-74 35q-46 13 -65 14q-14 1 -53 1h-23v-590h182v-74h-182v-545q0 -41 32 -68q32 -28 78 -35z" />
    <glyph glyph-name="dcroat" unicode="&#x111;" horiz-adv-x="1280" 
d="M1280 1151l-92 -1v-913q0 -63 18 -94t69 -64v-17l-524 -83l-2 174h-2q-33 -66 -117 -120t-189 -54q-69 0 -136 26q-64 25 -127 80q-62 54 -99 159q-38 106 -38 246q0 146 41 258q40 111 108 168t141 84q74 27 152 27q80 0 153 -22q76 -23 107 -48v195h-251v74h251v26
q0 91 -88 179v16q284 19 535 93v-315h90v-74zM741 214l-1 465q-53 254 -137 254q-100 0 -100 -369q0 -422 127 -422q50 0 111 72z" />
    <glyph glyph-name="Emacron" unicode="&#x112;" horiz-adv-x="1374" 
d="M1016 1765v-186h-680v186h680zM1272 489l15 -4l-49 -489h-1214v16q84 51 105 89q21 37 21 144v964q0 109 -21 147q-21 37 -105 88v16h1142l37 -503h-16q-51 169 -176 299q-125 129 -315 129h-57v-574h63q103 0 186 56q82 55 129 134h10v-465h-10q-49 88 -129 147t-186 57
l-63 -2v-557q0 -49 42 -78q41 -28 101 -28h25q145 0 265 123q121 124 200 291z" />
    <glyph glyph-name="emacron" unicode="&#x113;" horiz-adv-x="1114" 
d="M893 1341v-200h-600v200h600zM1071 600l-627 -2v-4q0 -96 30 -165t81 -105t105 -51t115 -15q199 0 283 135l12 -6q-96 -409 -481 -408q-235 0 -392 140q-156 139 -156 396t156 384q157 128 395 128q222 0 350 -109q129 -110 129 -295v-23zM559 963l-1 1q-59 0 -84 -76
q-26 -76 -30 -228h234q-6 303 -119 303z" />
    <glyph glyph-name="Ebreve" unicode="&#x114;" horiz-adv-x="1374" 
d="M672 1522h-4q-137 0 -204 94q-68 94 -84 276h18q31 -82 111 -127q79 -45 162 -45t162 45q80 45 108 127h19q-14 -182 -81 -276t-207 -94zM1268 489l15 -4l-49 -489h-1214v16q84 51 105 89q21 37 21 144v964q0 109 -21 147q-21 37 -105 88v16h1142l37 -503h-16
q-51 169 -176 299q-125 129 -315 129h-57v-574h63q103 0 186 56q82 55 129 134h10v-465h-10q-49 88 -129 147t-186 57l-63 -2v-557q0 -49 42 -78q41 -28 101 -28h25q145 0 265 123q121 124 200 291z" />
    <glyph glyph-name="ebreve" unicode="&#x115;" horiz-adv-x="1114" 
d="M584 1098h-3q-137 0 -204 94t-84 276h18q31 -82 111 -127t162 -45t162 45t108 127h18q-14 -182 -81 -276t-207 -94zM1068 600l-627 -2v-4q0 -96 30 -165t81 -105t105 -51t115 -15q199 0 283 135l12 -6q-96 -409 -481 -408q-235 0 -392 140q-156 139 -156 396t156 384
q157 128 395 128q222 0 350 -109q129 -110 129 -295v-23zM556 963l-1 1q-59 0 -84 -76t-30 -228h234q-6 303 -119 303z" />
    <glyph glyph-name="Edotaccent" unicode="&#x116;" horiz-adv-x="1374" 
d="M672 1546v-2q-68 0 -119 53t-51 120q0 68 51 119t119 51q70 0 121 -51t51 -118q0 -68 -51 -120t-121 -52zM1272 487l15 -4l-49 -489h-1214v16q84 51 105 89q21 37 21 144v964q0 109 -21 147q-21 37 -105 88v16h1142l37 -503h-16q-51 169 -176 299q-125 129 -315 129h-57
v-574h63q103 0 186 56q82 55 129 134h10v-465h-10q-49 88 -129 147t-186 57l-63 -2v-557q0 -49 42 -78q41 -28 101 -28h25q145 0 265 123q121 124 200 291z" />
    <glyph glyph-name="edotaccent" unicode="&#x117;" horiz-adv-x="1114" 
d="M586 1087l-2 -1q-88 0 -150 59q-61 58 -61 138t62 137q61 57 150 57q85 0 147 -57t62 -137t-61 -138t-147 -58zM1069 599l-627 -2v-4q0 -96 30 -165t81 -105t105 -51t115 -15q199 0 283 135l12 -6q-96 -409 -481 -408q-235 0 -392 140q-156 140 -156 396t156 384
q157 128 395 128q222 0 350 -109q129 -109 129 -295v-23zM557 962l-1 1q-59 0 -84 -76q-26 -77 -30 -228h234q-6 303 -119 303z" />
    <glyph glyph-name="Eogonek" unicode="&#x118;" horiz-adv-x="1374" 
d="M1038 0l-3 -4q-41 -33 -71 -83q-30 -49 -30 -93q0 -39 24 -60t59 -21q61 0 117 45l14 -10q-37 -78 -118 -121q-80 -43 -167 -43q-83 0 -135 41q-51 41 -51 104q0 137 285 242h-938v16q84 51 105 89t21 144v964q0 110 -21 147t-105 88v16h1142l37 -503h-16
q-51 169 -176 299q-125 129 -315 129h-57v-574h63q103 0 186 56q82 55 129 134h10v-465h-10q-49 89 -129 147t-186 57l-63 -2v-557q0 -50 42 -78q41 -28 101 -28h25q145 0 265 123q121 124 200 290h16l-49 -489h-201z" />
    <glyph glyph-name="eogonek" unicode="&#x119;" horiz-adv-x="1114" 
d="M1071 600l-631 -3v-4q0 -96 30 -165t81 -105t105 -51t115 -15q199 0 283 135l12 -6q-59 -266 -249 -362v-2q-47 -28 -87 -90q-40 -61 -40 -114q0 -41 24 -62t59 -21q64 0 117 49l14 -10q-35 -81 -115 -125q-81 -45 -169 -45q-84 0 -135 42t-51 107q0 128 226 228
q-14 0 -27 -1t-38 -1q-240 0 -397 139t-157 397q0 257 156 384q157 128 395 128q222 0 350 -109q129 -110 129 -295v-23zM555 962l-1 1q-59 0 -84 -76q-26 -77 -30 -228h234q-6 303 -119 303z" />
    <glyph glyph-name="Ecaron" unicode="&#x11a;" horiz-adv-x="1374" 
d="M686 1516h-23l-314 417l12 13l312 -146l315 146l10 -13q-130 -165 -312 -417zM1271 489l15 -4l-49 -489h-1214v16q84 51 105 89q21 37 21 144v964q0 109 -21 147q-21 37 -105 88v16h1142l37 -503h-16q-51 169 -176 299q-124 129 -315 129h-57v-574h63q103 0 186 56
q82 55 129 134h10v-465h-10q-50 88 -129 147t-186 57l-63 -2v-557q0 -49 42 -78q41 -28 101 -28h25q145 0 265 123q121 124 200 291z" />
    <glyph glyph-name="ecaron" unicode="&#x11b;" horiz-adv-x="1114" 
d="M578 1122h-26q-104 124 -177 225q-81 110 -100 135l11 10l278 -127l281 127l6 -10q-109 -128 -273 -360zM1070 600l-627 -2v-4q0 -96 30 -165t81 -105t105 -51t115 -15q199 0 283 135l12 -6q-96 -409 -481 -408q-235 0 -392 140q-156 139 -156 396t156 384
q157 128 395 128q222 0 350 -109q129 -110 129 -295v-23zM558 963l-1 1q-59 0 -84 -76t-30 -228h234q-6 303 -119 303z" />
    <glyph glyph-name="Gcircumflex" unicode="&#x11c;" horiz-adv-x="1609" 
d="M553 1513l-12 14q247 327 313 417h23q170 -233 313 -418l-10 -13l-314 148zM729 -28l1 -4q-82 0 -165 18q-80 17 -178 68q-95 49 -169 129q-72 78 -121 218q-48 138 -48 314q0 200 62 354q61 152 173 244q111 91 255 135q146 44 320 44q283 0 516 -78l39 -518h-16
q-123 216 -265 368q-144 155 -267 155q-119 0 -203 -160q-84 -161 -84 -529q0 -191 26 -333q25 -139 69 -211q43 -71 90 -103t99 -32q139 0 139 174v248q0 257 -210 264v27h751v-16q-50 -50 -63 -88t-13 -146v-506h-18q-122 74 -237 74q-67 0 -213 -55t-270 -55z" />
    <glyph glyph-name="gcircumflex" unicode="&#x11d;" horiz-adv-x="1142" 
d="M840 190l-2 -2q124 -27 210 -102q85 -75 85 -185q0 -92 -61 -159t-161 -102q-99 -34 -200 -51q-97 -16 -202 -16q-186 0 -342 50q-155 50 -155 135q0 40 35 72t92 50t81 24q16 4 48 10q-219 70 -219 213q0 84 75 147t196 87q-275 66 -277 314q0 178 128 264t323 86h57
q185 0 249 94l-271 123l-278 -127l-10 10q36 44 108 143q75 104 169 218h25q156 -224 268 -352q16 32 16 55l285 -92v-11q-31 -46 -112 -82t-214 -36q-70 0 -156 12v-10q202 -32 306 -105q103 -73 103 -213q0 -313 -493 -313q-79 0 -141 8q-66 -5 -66 -37q0 -20 35 -26
q2 0 8 -1.5t18 -3.5t24 -5q38 -8 155 -30q111 -21 261 -54zM516 969v-3q-70 0 -69 -150q0 -67 9 -154t42 -180t83 -93q68 0 66 146q0 62 -8 155q-7 85 -41 183q-33 96 -82 96zM555 -370l-1 -2q99 0 168 26q68 26 68 75q0 29 -29 53q-28 24 -80 36q-9 1 -158 32
q-157 33 -197 43q-35 -41 -35 -107q0 -156 264 -156z" />
    <glyph glyph-name="Gbreve" unicode="&#x11e;" horiz-adv-x="1609" 
d="M1133 1892h16q-13 -182 -81 -276q-67 -94 -207 -94q-137 0 -204 94t-84 276h19q31 -81 110 -127q78 -45 161 -45t162 45q80 45 108 127zM727 -29l1 -4q-82 0 -165 18q-80 17 -178 68q-95 49 -169 129q-72 78 -121 218q-48 138 -48 314q0 200 62 354q61 152 173 244
q111 92 255 135q146 44 320 44q283 0 516 -78l39 -518h-16q-123 216 -265 368q-144 155 -267 155q-119 0 -203 -160t-84 -529q0 -191 26 -333q25 -139 69 -211q43 -71 90 -103t99 -32q139 0 139 174v248q0 256 -210 264v27h751v-16q-50 -50 -63 -88t-13 -146v-506h-18
q-122 74 -237 74q-67 0 -213 -55t-270 -55z" />
    <glyph glyph-name="gbreve" unicode="&#x11f;" horiz-adv-x="1142" 
d="M528 1098h-1q-137 0 -204 94t-84 276h18q31 -81 110 -127q78 -45 161 -45q82 0 162 45t108 127h18q-14 -182 -81 -276t-207 -94zM839 190l-1 -2q124 -27 210 -102q85 -75 85 -185q0 -92 -61 -159t-161 -102q-99 -34 -200 -51q-97 -16 -202 -16q-186 0 -342 50
q-155 50 -155 135q0 40 35 72t92 50t81 24q16 4 48 10q-219 70 -219 213q0 84 75 147t196 87q-275 66 -277 314q0 178 128 264t323 86h57q138 0 203 49q66 50 72 115l285 -92v-11q-31 -46 -112 -82t-214 -36q-71 0 -156 12v-10q203 -32 306 -105t103 -213q0 -313 -493 -313
q-79 0 -141 8q-66 -5 -66 -37q0 -20 35 -26q2 0 8 -1.5t18 -3.5t24 -5q38 -8 155 -30q111 -21 261 -54zM516 969v-3q-70 0 -69 -150q0 -67 9 -154t42 -180t83 -93q68 0 66 146q0 62 -8 155q-7 85 -41 183q-33 96 -82 96zM555 -370l-1 -2q99 0 168 26q68 26 68 75
q0 29 -29 53q-28 24 -80 36q-9 1 -158 32q-157 33 -197 43q-35 -41 -35 -107q0 -156 264 -156z" />
    <glyph glyph-name="Gdotaccent" unicode="&#x120;" horiz-adv-x="1609" 
d="M862 1546v-2q-68 0 -119 53t-51 120q0 68 51 119t119 51q70 0 121 -51t51 -118q0 -68 -51 -120t-121 -52zM729 -31l1 -4q-82 0 -165 18q-80 17 -178 68q-95 49 -169 129q-72 78 -121 218q-48 138 -48 314q0 200 62 354q61 152 173 244q111 92 255 135q146 44 320 44
q283 0 516 -78l39 -518h-16q-123 216 -265 368q-144 155 -267 155q-119 0 -203 -160t-84 -529q0 -191 26 -333q25 -139 69 -211q43 -71 90 -103t99 -32q139 0 139 174v248q0 256 -210 264v27h751v-16q-50 -50 -63 -88t-13 -146v-506h-18q-122 74 -237 74q-67 0 -213 -55
t-270 -55z" />
    <glyph glyph-name="gdotaccent" unicode="&#x121;" horiz-adv-x="1142" 
d="M528 1124v-2q-68 0 -119 53t-51 120q0 68 51 119t119 51q70 0 121 -51t51 -118q0 -68 -51 -120t-121 -52zM840 188l-1 -2q125 -27 210 -102t85 -185q0 -92 -61 -159t-161 -102q-99 -34 -200 -51q-97 -16 -202 -16q-186 0 -342 50q-155 50 -155 135q0 40 35 72t92 50
t81 24q16 4 48 10q-219 70 -219 213q0 84 75 147t196 87q-275 66 -277 314q0 178 128 264t323 86h57q138 0 203 49q66 50 72 115l285 -92v-11q-31 -46 -112 -82t-214 -36q-70 0 -156 12v-10q202 -32 306 -105q103 -73 103 -213q0 -313 -493 -313q-79 0 -141 8
q-66 -5 -66 -37q0 -20 35 -26q2 0 8 -1.5t18 -3.5t24 -5q38 -8 155 -30q111 -21 261 -54zM517 967v-3q-71 0 -69 -150q0 -67 9 -154t42 -180t83 -93q68 0 66 146q0 62 -8 155q-7 85 -41 183q-33 96 -82 96zM556 -372l-1 -2q99 0 168 26q68 26 68 75q0 29 -29 53
q-28 24 -80 36q-9 1 -158 32q-157 33 -197 43q-35 -41 -35 -107q0 -156 264 -156z" />
    <glyph glyph-name="uni0122" unicode="&#x122;" horiz-adv-x="1609" 
d="M1542 764l1 -20q-50 -50 -63 -88t-13 -146v-506h-18q-122 74 -237 74q-67 0 -213 -55t-270 -55q-83 0 -165 18q-80 17 -178 68q-95 49 -169 129q-72 78 -121 218q-48 138 -48 314q0 200 62 354q61 152 173 244q111 91 255 135q146 44 320 44q284 0 516 -78l39 -518h-16
q-123 216 -265 368q-144 155 -267 155q-119 0 -203 -160q-84 -161 -84 -529q0 -191 26 -333q25 -139 69 -211q43 -71 90 -103t99 -32q139 0 139 174v248q0 257 -210 264v27h751zM845 -63v-2q79 0 135 -46q57 -47 57 -121q0 -91 -86 -201q-85 -109 -243 -156l-11 17
q123 102 164 221h-14q-79 0 -132 41q-52 40 -52 101q0 59 53 103q52 43 129 43z" />
    <glyph glyph-name="uni0123" unicode="&#x123;" horiz-adv-x="1142" 
d="M522 1112l-1 1q-79 0 -135 46q-57 47 -57 123q0 91 86 200t243 155l11 -16q-121 -101 -165 -222h14q77 0 132 -41q54 -40 54 -100t-54 -103q-53 -43 -128 -43zM839 191l-1 -2q124 -27 210 -102q85 -75 85 -185q0 -92 -61 -159t-161 -102q-99 -34 -200 -51
q-97 -16 -202 -16q-186 0 -342 50q-155 50 -155 135q0 40 35 72t92 50t81 24q16 4 48 10q-219 71 -219 213q0 84 75 147t196 87q-275 66 -277 314q0 178 128 264t323 86h57q138 0 203 49q66 50 72 115l285 -92v-11q-31 -46 -112 -82t-214 -36q-71 0 -156 12v-10
q203 -31 306 -105q103 -73 103 -213q0 -313 -493 -313q-79 0 -141 8q-66 -4 -66 -37q0 -20 35 -26q2 0 8 -1.5t18 -3.5t24 -5q38 -8 155 -30q111 -21 261 -54zM516 970v-3q-70 0 -69 -150q0 -67 9 -154t42 -180t83 -93q68 0 66 146q0 62 -8 155q-7 85 -41 183q-33 96 -82 96
zM555 -369l-1 -2q99 0 168 26q68 26 68 75q0 29 -29 53q-28 24 -80 36q-9 1 -158 32q-157 33 -197 43q-35 -41 -35 -107q0 -156 264 -156z" />
    <glyph glyph-name="Hcircumflex" unicode="&#x124;" horiz-adv-x="1710" 
d="M850 1661l-313 -147l-13 13q281 372 314 417h22q155 -213 314 -418l-11 -13zM1690 1449l2 1q-84 -51 -105 -88q-21 -38 -21 -147v-964q0 -106 21 -145t104 -89v-16h-740v16q84 50 104 88q21 39 21 146v487h-436v-487q0 -107 21 -144t105 -90v-16h-741v16q84 51 105 89
t21 144v964q0 110 -21 147t-105 88v16h741v-16q-84 -51 -105 -88t-21 -147v-360h436v360q0 110 -21 147t-105 88v16h740v-16z" />
    <glyph glyph-name="hcircumflex" unicode="&#x125;" horiz-adv-x="1312" 
d="M678 1675l-283 -133l-10 12q163 214 281 375h22q137 -194 281 -375l-11 -12zM1219 240l-1 -4q0 -104 16 -142t72 -82v-16h-623v16q55 44 72 81q16 37 18 143q2 128 2 422q0 76 -33 117t-85 41q-61 0 -112 -71v-508q0 -103 15 -142q15 -38 71 -82v-16h-623v16q58 44 74 81
q17 39 17 143v886q0 98 -10 147q-11 51 -24 72t-54 66v16q269 18 534 95v-695q141 201 354 201q41 0 87 -11q43 -10 101 -41q58 -30 95 -102q37 -71 37 -177v-454z" />
    <glyph glyph-name="Hbar" unicode="&#x126;" horiz-adv-x="1710" 
d="M1690 1448l2 1q-84 -51 -105 -88t-21 -147v-112h106v-68h-106v-784q0 -106 21 -145t104 -89v-16h-740v16q84 50 104 88q21 39 21 146v487h-436v-487q0 -106 21 -144t105 -90v-16h-741v16q84 51 105 89q21 37 21 144v784h-107v68h107v112q0 109 -21 147q-21 37 -105 88v16
h741v-16q-84 -51 -105 -88q-21 -38 -21 -147v-112h436v112q0 109 -21 147q-21 37 -105 88v16h740v-16zM1077 855v180h-436v-180h436z" />
    <glyph glyph-name="hbar" unicode="&#x127;" horiz-adv-x="1312" 
d="M1219 240l-1 -1q0 -104 16 -142t72 -82v-16h-623v16q55 43 72 81q16 37 18 143q2 128 2 422q0 77 -33 117q-33 41 -85 41q-61 0 -112 -71v-508q0 -103 15 -142q15 -38 71 -82v-16h-623v16q58 44 74 81q17 39 17 143v909h-84v74h82q-5 53 -16 84q-13 35 -22 47
q-11 14 -48 54v16q269 18 534 95v-297h223v-74h-223v-324q141 201 354 201q41 0 87 -11q43 -10 101 -41q58 -30 95 -102q37 -71 37 -177v-454z" />
    <glyph glyph-name="Itilde" unicode="&#x128;" horiz-adv-x="786" 
d="M791 1858l24 -6q-49 -290 -288 -288q-74 0 -168 28q-143 41 -184 41q-67 0 -137 -59l-23 6q31 152 105 219q74 68 195 68q53 0 154 -29q141 -41 172 -41q48 0 81 14q30 13 69 47zM25 -1v17q84 51 105 89q21 37 21 144v964q0 109 -21 147q-21 37 -105 88v16h741v-16
q-84 -51 -105 -88q-21 -38 -21 -147v-964q0 -107 21 -144t105 -90v-16h-741z" />
    <glyph glyph-name="itilde" unicode="&#x129;" horiz-adv-x="638" 
d="M653 1417l22 -5q-45 -262 -252 -262q-66 0 -153 29q-122 39 -166 39q-58 0 -122 -60l-21 6q49 263 261 265q54 0 147 -31q122 -39 145 -39q51 0 74 10q25 11 65 48zM7 -1l-2 15q58 44 74 81q17 39 17 143v395q0 99 -10 146q-11 50 -24 71q-12 19 -54 67v16q275 18 535 96
v-790q0 -102 17 -142q16 -38 72 -82v-16h-625z" />
    <glyph glyph-name="Imacron" unicode="&#x12a;" horiz-adv-x="786" 
d="M741 1765v-186h-680v186h680zM25 0v17q84 51 105 89t21 144v964q0 110 -21 147t-105 88v16h741v-16q-84 -51 -105 -88t-21 -147v-964q0 -106 21 -144t105 -90v-16h-741z" />
    <glyph glyph-name="imacron" unicode="&#x12b;" horiz-adv-x="638" 
d="M610 1358v-201h-600v201h600zM8 0l-2 15q58 44 74 81q17 39 17 143v395q0 99 -10 146q-11 50 -24 71q-12 19 -54 67v16q275 18 535 96v-790q0 -102 17 -142q16 -38 72 -82v-16h-625z" />
    <glyph glyph-name="Ibreve" unicode="&#x12c;" horiz-adv-x="786" 
d="M668 1892h17q-13 -182 -81 -276q-67 -94 -207 -94q-137 0 -204 94t-84 276h18q31 -81 110 -127q78 -45 161 -45q82 0 162 45t108 127zM24 0v17q84 51 105 89t21 144v964q0 110 -21 147t-105 88v16h741v-16q-84 -51 -105 -88t-21 -147v-964q0 -106 21 -144t105 -90v-16
h-741z" />
    <glyph glyph-name="ibreve" unicode="&#x12d;" horiz-adv-x="638" 
d="M571 1485l16 -1q-13 -182 -81 -276q-67 -94 -207 -94q-136 0 -204 95q-67 95 -84 276h19q31 -81 110 -127q78 -45 161 -45t162 45q80 45 108 127zM5 -1l-2 15q58 44 74 81q17 39 17 143v395q0 99 -10 146q-11 50 -24 71q-12 19 -54 67v16q275 18 535 96v-790
q0 -102 17 -142q16 -38 72 -82v-16h-625z" />
    <glyph glyph-name="Iogonek" unicode="&#x12e;" horiz-adv-x="786" 
d="M766 1448h-3q-84 -51 -105 -88q-21 -38 -21 -147v-964q0 -107 21 -144t105 -90v-16h-193q-41 -33 -71 -83t-30 -93q0 -39 24 -60t59 -21q62 0 117 45l12 -10q-33 -74 -111 -119t-169 -45q-85 0 -137 41q-51 40 -51 104q0 137 285 242h-473v16q84 51 105 89q21 37 21 144
v964q0 109 -21 147q-21 37 -105 88v16h741v-16z" />
    <glyph glyph-name="iogonek" unicode="&#x12f;" horiz-adv-x="638" 
d="M303 1104l-2 -1q-88 0 -150 59q-61 58 -61 138t62 137t150 57q86 0 147 -57q62 -57 62 -137t-61 -138t-147 -58zM502 -1l-3 -2q-43 -34 -73 -87q-30 -52 -30 -99q0 -41 24 -62t58 -21q64 0 117 49l14 -10q-35 -81 -115 -125q-81 -45 -169 -45q-84 0 -135 42t-51 107
q0 141 283 252h-418v16q58 44 74 81q17 39 17 143v395q0 99 -10 146q-11 50 -24 71q-12 19 -54 67v16q275 18 535 96v-790q0 -102 17 -142q16 -38 72 -82v-16h-129z" />
    <glyph glyph-name="Idotaccent" unicode="&#x130;" horiz-adv-x="786" 
d="M397 1546v-2q-68 0 -119 53t-51 120q0 68 51 119t119 51q70 0 121 -51t51 -118q0 -68 -51 -120t-121 -52zM25 -2v17q84 51 105 89t21 144v964q0 110 -21 147t-105 88v16h741v-16q-84 -51 -105 -88t-21 -147v-964q0 -106 21 -144t105 -90v-16h-741z" />
    <glyph glyph-name="dotlessi" unicode="&#x131;" horiz-adv-x="638" 
d="M8 0l-2 15q58 44 74 81q17 39 17 143v395q0 99 -10 146q-11 50 -24 71q-12 19 -54 67v16q275 18 535 96v-790q0 -102 17 -142q16 -38 72 -82v-16h-625z" />
    <glyph glyph-name="Jcircumflex" unicode="&#x134;" horiz-adv-x="786" 
d="M80 1513l-12 14q247 327 313 417h22q155 -213 314 -418l-10 -13l-314 148zM25 -265l-7 17q140 88 141 261v1202q0 109 -21 147q-21 37 -105 88v16h739v-16q-84 -51 -105 -88q-21 -38 -21 -147v-897q1 -244 -154.5 -390t-466.5 -193z" />
    <glyph glyph-name="jcircumflex" unicode="&#x135;" horiz-adv-x="645" 
d="M45 1133l-11 10q36 44 108 143q70 97 169 217h25q164 -234 274 -360l-6 -10l-280 127zM-67 -432l-8 20q101 52 141 135q41 84 41 234v678q0 137 -15 179q-16 44 -70 104v16q278 18 532 96v-807q0 -134 -37 -241t-96 -178q-59 -72 -141 -122q-84 -52 -167 -77
q-81 -25 -180 -37z" />
    <glyph glyph-name="uni0136" unicode="&#x136;" horiz-adv-x="1687" 
d="M639 250v1q0 -107 21 -144t105 -90v-16h-741v16q84 51 105 89t21 144v964q0 110 -21 147t-105 88v16h741v-16q-84 -51 -105 -88t-21 -147v-964zM678 671l387 394q102 102 102 201q0 112 -135 183v16h615v-16q-55 -31 -112 -69q-54 -36 -111 -84q-17 -14 -33 -27.5
t-31 -26t-20 -16.5q-27 -22 -93 -84q-73 -68 -77 -72l-137 -125l414 -680q122 -202 234 -248v-16h-645zM838 -57l-2 -2q79 0 135 -46q57 -47 57 -121q0 -91 -86 -201q-86 -109 -243 -156l-11 17q123 102 162 221h-12q-79 0 -132 41q-52 40 -52 101q0 59 54 103q53 43 130 43
z" />
    <glyph glyph-name="uni0137" unicode="&#x137;" horiz-adv-x="1339" 
d="M8 0l-2 14q58 44 74 81q17 39 17 143v886q0 98 -10 147q-11 51 -24 72t-54 66v16q269 18 534 95v-1053l268 252q62 61 64 108q0 70 -140 154v16h563v-16q-97 -58 -175 -107q-50 -32 -112 -81q-60 -48 -105 -99l-35 -39l263 -424q98 -158 200 -215v-16h-551l-211 426h-28
v-186q0 -102 17 -142q16 -38 72 -82v-16h-625zM660 -61l-3 -2q79 0 135 -46q57 -47 57 -121q0 -91 -86 -201q-85 -109 -243 -156l-10 17q123 102 162 221h-12q-79 0 -132 41q-52 40 -52 101q0 59 54 103q53 43 130 43z" />
    <glyph glyph-name="Lacute" unicode="&#x139;" horiz-adv-x="1320" 
d="M305 1530v1q0 56 1 98t1 87q0 57 -4 141h422q-161 -136 -401 -327h-19zM1221 490h13l-49 -489h-1163v16q84 51 105 89t21 144v964q0 110 -21 147t-105 88v16h741v-16q-84 -51 -105 -88t-21 -147v-1032q0 -44 38 -73q37 -29 93 -33q139 7 258 131q119 123 195 283z" />
    <glyph glyph-name="lacute" unicode="&#x13a;" horiz-adv-x="638" 
d="M106 1577l-16 3q62 259 74 318l409 -96q-237 -121 -467 -225zM8 -1l-1 14q58 44 74 81q17 39 17 143v886q0 98 -10 147q-10 51 -24 72t-54 66v16q269 18 534 95v-1280q0 -102 17 -142q16 -38 72 -82v-16h-625z" />
    <glyph glyph-name="uni013B" unicode="&#x13b;" horiz-adv-x="1320" 
d="M1221 489h13l-49 -489h-1163v16q84 51 105 89q21 37 21 144v964q0 109 -21 147q-21 37 -105 88v16h741v-16q-84 -51 -105 -88q-21 -38 -21 -147v-1032q0 -44 38 -73q37 -28 93 -33q139 7 258 131q119 123 195 283zM714 -59v-2q79 0 135 -46q57 -46 57 -121
q0 -91 -86 -201q-86 -109 -243 -156l-11 17q123 102 162 221h-12q-79 0 -132 41q-52 40 -52 101q0 59 53 103q52 43 129 43z" />
    <glyph glyph-name="uni013C" unicode="&#x13c;" horiz-adv-x="638" 
d="M8 0l-1 14q58 44 74 81q17 39 17 143v886q0 98 -10 147q-10 51 -24 72t-54 66v16q269 18 534 95v-1280q0 -102 17 -142q16 -38 72 -82v-16h-625zM327 -61l-3 -2q79 0 135 -46q57 -47 57 -121q0 -91 -86 -201q-86 -109 -243 -156l-10 17q123 102 162 221h-12
q-79 0 -132 41q-52 40 -52 101q0 59 54 103q53 43 130 43z" />
    <glyph glyph-name="Lcaron" unicode="&#x13d;" horiz-adv-x="1320" 
d="M1221 489h13l-49 -489h-1163v16q84 51 105 89q21 37 21 144v964q0 109 -21 147q-21 37 -105 88v16h741v-16q-84 -51 -105 -88q-21 -38 -21 -147v-1032q0 -44 38 -73q37 -28 93 -33q139 7 258 131q119 123 195 283zM802 1135q0 58 1 100t1 86q0 57 -4 141h424
q-171 -146 -404 -327h-18z" />
    <glyph glyph-name="lcaron" unicode="&#x13e;" horiz-adv-x="634" 
d="M8 0l-1 14q58 44 74 81q17 39 17 143v886q0 98 -10 147q-10 51 -24 72t-54 66v16q269 18 534 95v-1280q0 -102 17 -142q16 -38 72 -82v-16h-625zM636 981h-16l36 506h342z" />
    <glyph glyph-name="Ldot" unicode="&#x13f;" horiz-adv-x="1320" 
d="M1221 489h13l-49 -489h-1163v16q84 51 105 89q21 37 21 144v964q0 109 -21 147q-21 37 -105 88v16h741v-16q-84 -51 -105 -88q-21 -38 -21 -147v-1032q0 -44 38 -73q37 -28 93 -33q139 7 258 131q119 123 195 283zM974 514l-3 -1q-89 0 -154 63q-64 63 -64 153t65 155
t155 65q89 0 153 -64q65 -65 65 -154t-64 -153t-153 -64z" />
    <glyph glyph-name="ldot" unicode="&#x140;" horiz-adv-x="1138" 
d="M8 0l-1 14q58 44 74 81q17 39 17 143v886q0 98 -10 147q-10 51 -24 72t-54 66v16q269 18 534 95v-1280q0 -102 17 -142q16 -38 72 -82v-16h-625zM882 371l-4 -1q-90 0 -154 63t-64 153t65 155t155 65q89 0 154 -64q66 -64 66 -154q0 -89 -64 -153t-154 -64z" />
    <glyph glyph-name="Lslash" unicode="&#x141;" horiz-adv-x="1320" 
d="M1221 489h13l-49 -489h-1163v16q84 51 105 89q21 37 21 144v227l-127 -74v80l127 76v655q0 109 -21 147q-21 37 -105 88v16h741v-16q-84 -51 -105 -88q-21 -38 -21 -147v-366l244 143v-84l-244 -143v-582q0 -44 38 -73q37 -28 93 -33q139 7 258 131q119 123 195 283z" />
    <glyph glyph-name="lslash" unicode="&#x142;" horiz-adv-x="638" 
d="M545 240l-1 -2q0 -102 17 -142q16 -38 72 -82v-16h-625v16q58 44 74 81q17 39 17 143v317l-73 -53v92l73 53v477q0 98 -10 147q-11 51 -24 72t-54 66v16q269 18 534 95v-541l76 55v-96l-76 -55v-643z" />
    <glyph glyph-name="Nacute" unicode="&#x143;" horiz-adv-x="1538" 
d="M680 1530v1q0 56 1 98t1 87q0 57 -4 141h422q-168 -143 -402 -327h-18zM1526 1465l-1 -15q-90 -56 -126 -99q-35 -43 -52 -123q-16 -77 -16 -249v-977h-377q-262 462 -649 1071v-584q0 -169 15 -249t51 -123t126 -99v-16h-471v16q90 56 126 99q35 43 52 123q17 82 17 249
v621q0 96 -45 169q-46 75 -151 171v16h581q270 -414 641 -1047v559q0 170 -15 249t-51 123t-126 99v16h471z" />
    <glyph glyph-name="nacute" unicode="&#x144;" horiz-adv-x="1308" 
d="M537 1120v-1q0 56 1 98t1 89q0 57 -4 141h421q-161 -136 -401 -327h-18zM1214 239h1q0 -102 17 -142q16 -38 75 -82v-16h-625v16q57 45 75 83t18 141v422q0 78 -33 117t-82 39q-57 0 -114 -71v-508q0 -103 15 -142q15 -38 71 -82v-16h-623v16q58 44 74 81q17 39 17 143
v397q0 135 -16 180q-16 46 -72 106v14q253 14 527 93v-209q136 205 351 205q31 0 69 -5q37 -5 83 -25q49 -21 84 -55q37 -36 62 -97q26 -64 26 -149v-454z" />
    <glyph glyph-name="uni0145" unicode="&#x145;" horiz-adv-x="1538" 
d="M1526 1464l-1 -15q-90 -55 -126 -99q-35 -43 -52 -123q-16 -77 -16 -249v-977h-377q-262 462 -649 1071v-584q0 -170 15 -249t51 -123t126 -99v-16h-471v16q90 55 126 99q35 43 52 123q17 82 17 249v621q0 95 -45 169q-46 75 -151 171v16h581q270 -414 641 -1047v559
q0 169 -15 249t-51 123t-126 99v16h471zM775 -58v-2q79 0 135 -46q57 -46 57 -121q0 -91 -86 -201q-85 -110 -243 -156l-10 17q123 102 162 221h-13q-79 0 -132 41q-52 40 -52 101q0 59 53 103q52 43 129 43z" />
    <glyph glyph-name="uni0146" unicode="&#x146;" horiz-adv-x="1308" 
d="M1214 240h1q0 -102 17 -142q16 -38 75 -82v-16h-625v16q57 45 75 83q18 37 18 141v422q0 78 -33 117t-82 39q-57 0 -114 -71v-508q0 -103 15 -142q15 -38 71 -82v-16h-623v16q58 44 74 81q17 39 17 143v397q0 135 -16 180q-16 46 -72 106v14q253 14 527 93v-209
q136 205 351 205q31 0 69 -5q37 -5 83 -25q49 -21 84 -55q37 -36 62 -97q26 -64 26 -149v-454zM656 -59v-2q79 0 135 -46q57 -46 57 -121q0 -91 -86 -201q-86 -109 -243 -156l-10 17q123 102 162 221h-13q-79 0 -132 41q-52 40 -52 101q0 59 53 103q52 43 129 43z" />
    <glyph glyph-name="Ncaron" unicode="&#x147;" horiz-adv-x="1538" 
d="M801 1516h-24l-313 417l12 13l311 -146l316 146l10 -13q-131 -165 -312 -417zM1525 1464l-1 -15q-90 -55 -126 -99q-35 -43 -52 -123q-16 -77 -16 -249v-977h-377q-262 462 -649 1071v-584q0 -170 15 -249t51 -123t126 -99v-16h-471v16q90 55 126 99q35 43 52 123
q17 82 17 249v621q0 95 -45 169q-46 75 -151 171v16h581q270 -414 641 -1047v559q0 169 -15 249t-51 123t-126 99v16h471z" />
    <glyph glyph-name="ncaron" unicode="&#x148;" horiz-adv-x="1308" 
d="M668 1122h-26q-104 124 -177 225t-99 135l10 10l278 -127l281 127l6 -10q-109 -128 -273 -360zM1213 240h1q0 -102 17 -142q16 -38 75 -82v-16h-625v16q57 45 75 83q18 37 18 141v422q0 78 -33 117t-82 39q-57 0 -114 -71v-508q0 -103 15 -142q15 -38 71 -82v-16h-623v16
q58 44 74 81q17 39 17 143v397q0 135 -16 180q-16 46 -72 106v14q253 14 527 93v-209q136 205 351 205q31 0 69 -5q37 -5 83 -25q49 -21 84 -55q37 -36 62 -97q26 -64 26 -149v-454z" />
    <glyph glyph-name="Eng" unicode="&#x14a;" horiz-adv-x="1538" 
d="M1526 1464l-1 -15q-90 -55 -126 -99q-35 -43 -52 -123q-16 -77 -16 -249v-1092q0 -142 -81 -225q-81 -82 -232 -82q-162 0 -285 60l162 350h14q35 -109 90 -186q55 -76 125 -76q55 0 94 43t39 127v104h-303q-262 462 -649 1071v-584q0 -170 15 -249t51 -123t126 -99v-16
h-471v16q90 55 126 99q35 43 52 123q17 82 17 249v621q0 95 -45 169q-46 75 -151 171v16h581q270 -414 641 -1047v559q0 169 -15 249t-51 123t-126 99v16h471z" />
    <glyph glyph-name="eng" unicode="&#x14b;" horiz-adv-x="1304" 
d="M895 1026l-1 -1q29 0 66 -5q35 -5 81 -25q49 -21 84 -55q37 -36 62 -97q26 -64 26 -149l-3 -461q0 -133 -36 -241q-35 -106 -95 -178q-58 -69 -141 -121q-84 -52 -167 -77q-87 -26 -180 -38l-6 19q100 52 139 135q40 84 41 240l4 689q0 77 -33 117q-33 41 -85 41
q-57 0 -108 -63v-516q0 -102 17 -142q16 -38 72 -82v-16h-625v16q58 44 74 81q17 39 17 143v397q0 135 -16 180q-16 46 -72 106v14q253 14 527 93v-209q153 205 358 205z" />
    <glyph glyph-name="Omacron" unicode="&#x14c;" horiz-adv-x="1671" 
d="M1178 1765v-186h-680v186h680zM834 -29v-1q-368 0 -576 198q-209 198 -209 564t209 563t576 197q372 0 578 -196q207 -196 207 -563q0 -366 -208 -564q-209 -198 -577 -198zM895 50l-4 1q100 0 157 116q57 115 57 336q0 117 -13 246q-14 139 -46 293q-33 160 -103 264
q-71 105 -168 105q-101 0 -157 -114q-55 -113 -55 -333q0 -108 14 -246q14 -139 46 -296q33 -161 104 -267q71 -105 168 -105z" />
    <glyph glyph-name="omacron" unicode="&#x14d;" horiz-adv-x="1243" 
d="M930 1341v-200h-600v200h600zM610 -20l2 1q-258 0 -414 123t-156 389q0 265 159 399q160 134 432 134q259 0 414 -125t155 -389q0 -266 -159 -399q-158 -133 -433 -133zM678 46l1 -2q74 0 74 188q0 77 -7 174q-8 112 -25 237q-18 133 -57 225q-39 91 -93 91
q-78 0 -77 -184q0 -103 12 -253q12 -152 58 -313q46 -163 114 -163z" />
    <glyph glyph-name="Obreve" unicode="&#x14e;" horiz-adv-x="1671" 
d="M1104 1892h17q-13 -182 -81 -276q-67 -94 -207 -94q-137 0 -204 94t-84 276h18q31 -82 111 -127t161 -45t161 45t108 127zM833 -29v-1q-367 0 -576 198t-209 564t209 563t576 197q372 0 578 -196q207 -196 207 -563q0 -366 -208 -564t-577 -198zM894 50l-4 1
q100 0 157 116q57 115 57 336q0 117 -13 246q-14 139 -46 293q-33 160 -103 264q-70 105 -168 105q-102 0 -157 -114q-55 -113 -55 -333q0 -108 14 -246q14 -139 46 -296q33 -161 104 -267q70 -105 168 -105z" />
    <glyph glyph-name="obreve" unicode="&#x14f;" horiz-adv-x="1243" 
d="M891 1468h17q-14 -182 -81 -276t-207 -94q-137 0 -204 94q-68 94 -84 276h18q31 -82 111 -127q79 -45 161 -45t161 45q80 45 108 127zM609 -20l2 1q-258 0 -414 123t-156 389q0 265 159 399q160 134 432 134q259 0 414 -125t155 -389q0 -266 -159 -399
q-158 -133 -433 -133zM677 46l1 -2q74 0 74 188q0 77 -7 174q-8 112 -25 237q-18 133 -57 225q-39 91 -93 91q-78 0 -77 -184q0 -103 12 -253q12 -152 58 -313q46 -163 114 -163z" />
    <glyph glyph-name="Ohungarumlaut" unicode="&#x150;" horiz-adv-x="1671" 
d="M936 1528h-14v168q0 89 -2 159h358q-218 -215 -342 -327zM537 1524l-17 1q0 56 1 98t1 87q0 57 -4 141h359q-135 -136 -340 -327zM834 -28v-1q-368 0 -576 198q-209 198 -209 564t209 563t576 197q372 0 578 -196q207 -197 207 -563t-208 -564q-209 -198 -577 -198z
M895 51l-4 1q100 0 157 116t57 336q0 117 -13 246q-14 139 -46 293q-33 160 -103 264q-71 105 -168 105q-101 0 -157 -114q-55 -113 -55 -333q0 -108 14 -246q14 -139 46 -296q33 -161 104 -267q71 -105 168 -105z" />
    <glyph glyph-name="ohungarumlaut" unicode="&#x151;" horiz-adv-x="1243" 
d="M725 1128l-14 1v168q0 85 -2 159h358q-166 -166 -342 -328zM326 1123l-17 -1q0 59 1 101t1 86q0 57 -4 141h359q-135 -136 -340 -327zM610 -20l2 1q-258 0 -414 123t-156 389q0 265 159 399q160 134 432 134q259 0 414 -125t155 -389q0 -266 -159 -399
q-158 -133 -433 -133zM678 46l1 -2q74 0 74 188q0 77 -7 174q-8 112 -25 237q-18 133 -57 225q-39 91 -93 91q-78 0 -77 -184q0 -103 12 -253q12 -152 58 -313q46 -163 114 -163z" />
    <glyph glyph-name="OE" unicode="&#x152;" horiz-adv-x="2201" 
d="M2099 489l15 -4l-50 -489h-1042v20q-106 -40 -240 -39q-148 0 -277 46q-131 47 -234 136q-104 91 -164 237q-60 147 -60 333q0 187 62 335q61 147 165 237q103 89 234 136q129 46 276 46q132 0 240 -41v20h981l37 -503h-17q-51 169 -176 299q-125 129 -315 129h-47v-572
h49q103 0 186 56q82 55 129 134h11v-465h-11q-121 211 -315 202l-49 -2v-559q0 -49 42 -78q41 -28 101 -28h4q145 0 265 123q121 124 200 291zM877 47l4 1q86 0 144 88v998q-88 274 -249 274q-215 0 -215 -438q0 -110 12 -244q12 -133 42 -298t99 -273t163 -108z" />
    <glyph glyph-name="oe" unicode="&#x153;" horiz-adv-x="1820" 
d="M1780 600l-621 -1v-4q0 -96 30 -165t81 -105t104 -51q52 -15 114 -15q201 0 284 135l11 -6q-90 -409 -475 -408q-202 0 -345 100q-115 -100 -345 -100q-262 0 -418 123t-156 389t159 399q160 134 428 134q218 0 327 -88q136 90 339 90q231 0 357 -111t126 -293v-23z
M1270 964v1q-56 0 -81 -76q-25 -77 -30 -228h233q-4 303 -122 303zM682 45l3 -1q76 0 76 188q0 68 -9 173q-9 104 -27 238q-18 133 -57 225q-39 91 -93 91q-79 0 -77 -186q0 -102 12 -252q12 -152 58 -313q46 -163 114 -163z" />
    <glyph glyph-name="Racute" unicode="&#x154;" horiz-adv-x="1624" 
d="M582 1530v1q0 56 1 98t1 87q0 57 -4 141h421q-161 -136 -401 -327h-18zM1425 245l-1 -1q62 -104 192 -228v-16h-594q-175 325 -328 680l-55 -4v-426q0 -106 21 -144t105 -90v-16h-741v16q84 51 105 89q21 37 21 144v964q0 109 -21 147q-21 37 -105 88v16h778
q285 0 449 -98t164 -267q0 -117 -75 -208q-74 -91 -200 -136q104 -213 285 -510zM638 1391l-1 -637h57q119 0 179 93t60 240q0 302 -260 304h-35z" />
    <glyph glyph-name="racute" unicode="&#x155;" horiz-adv-x="946" 
d="M317 1120h-18q0 56 1 98t1 89q0 57 -4 141h422q-161 -136 -402 -328zM8 0l-3 18q58 44 74 81q17 39 17 143v434q0 104 -18 147q-18 44 -70 99v14q259 14 527 93l-5 -199h7q22 75 98 136q75 60 195 60q39 0 89 -14l-62 -447h-16q-162 224 -252 226q-33 0 -45 -27v-524
q0 -102 23 -142q22 -38 101 -82v-16h-660z" />
    <glyph glyph-name="uni0156" unicode="&#x156;" horiz-adv-x="1624" 
d="M1425 244l-1 -1q62 -103 192 -228v-16h-594q-175 325 -328 680l-55 -4v-426q0 -107 21 -144t105 -90v-16h-741v16q84 51 105 89t21 144v964q0 110 -21 147t-105 88v16h778q285 0 449 -98t164 -267q0 -116 -75 -208q-74 -91 -200 -136q104 -213 285 -510zM638 1390
l-1 -637h57q119 0 179 93t60 240q0 302 -260 304h-35zM774 -60v-2q79 0 135 -46q57 -46 57 -121q0 -91 -86 -201t-243 -156l-10 17q123 102 162 221h-13q-79 0 -132 41q-52 40 -52 101q0 59 53 103q52 43 129 43z" />
    <glyph glyph-name="uni0157" unicode="&#x157;" horiz-adv-x="946" 
d="M8 0l-3 18q58 44 74 81q17 39 17 143v434q0 104 -18 147q-18 44 -70 99v14q259 14 527 93l-5 -199h7q22 75 98 136q75 60 195 60q39 0 89 -14l-62 -447h-16q-162 224 -252 226q-33 0 -45 -27v-524q0 -102 23 -142q22 -38 101 -82v-16h-660zM337 -57v-2q79 0 135 -46
q57 -47 57 -121q0 -91 -86 -201q-85 -109 -243 -156l-10 17q123 102 161 221h-12q-79 0 -132 41q-52 40 -52 101q0 59 53 103q52 43 129 43z" />
    <glyph glyph-name="Rcaron" unicode="&#x158;" horiz-adv-x="1624" 
d="M702 1516l-23 1q-85 118 -129 176q-50 65 -96 126t-87 114l12 13l311 -146l316 146l10 -13q-137 -171 -314 -417zM1424 245l-1 -1q61 -104 192 -228v-16h-594q-175 325 -328 680l-55 -4v-426q0 -106 21 -144t105 -90v-16h-741v16q84 51 105 89q21 37 21 144v964
q0 109 -21 147q-21 37 -105 88v16h778q285 0 449 -98t164 -267q0 -117 -75 -208q-74 -91 -200 -136q103 -213 285 -510zM637 1391l-1 -637h57q119 0 179 93t60 240q0 302 -260 304h-35z" />
    <glyph glyph-name="rcaron" unicode="&#x159;" horiz-adv-x="946" 
d="M139 1493l279 -126l280 127l7 -10q-115 -132 -275 -361h-24q-104 125 -177 225q-81 110 -100 135zM8 1l-3 18q58 44 74 81q17 39 17 143v434q0 103 -18 147t-70 99v14q259 14 527 93l-5 -199h7q22 75 98 136q75 60 195 60q39 0 89 -14l-62 -447h-16q-162 224 -252 226
q-33 0 -45 -27v-524q0 -102 23 -142q22 -38 101 -82v-16h-660z" />
    <glyph glyph-name="Sacute" unicode="&#x15a;" horiz-adv-x="1202" 
d="M530 1530l-18 2q0 56 1 98t1 87q0 57 -4 141h422q-161 -136 -402 -328zM606 -27l-5 -3q-220 0 -500 107l-28 522h16q116 -232 253 -390q138 -159 280 -159q71 0 117 43q47 44 47 139q0 92 -57 147q-59 58 -256 179q-6 4 -69 42q-62 37 -89 56q-25 18 -80 65t-80 87
t-48 107q-22 65 -22 140q0 205 144 322t362 117q172 0 426 -68l43 -512h-16q-103 207 -231 356q-129 150 -246 150q-61 0 -105 -42t-44 -115q0 -77 59 -133q57 -54 237 -157q211 -121 274 -174q147 -133 150 -342q0 -134 -49 -232q-49 -99 -130 -151q-83 -54 -169 -77
q-88 -24 -184 -24z" />
    <glyph glyph-name="sacute" unicode="&#x15b;" horiz-adv-x="931" 
d="M350 1120h-18q0 56 1 98t1 89q0 57 -4 141h422q-161 -136 -402 -328zM492 -29l-5 2q-145 0 -392 58l-43 372l15 5q102 -152 211 -261q111 -111 199 -111q39 0 66 21t27 60q0 51 -53 98q-51 46 -176 120q-65 37 -103 65q-36 26 -89 72q-55 48 -81 108q-25 59 -25 132
q0 145 107 229t281 84q131 0 360 -51l36 -346l-16 -4q-96 137 -199 237q-105 102 -183 102q-34 0 -58 -21t-24 -60q0 -30 14 -55q13 -23 56 -52q44 -30 71 -44q62 -33 107 -56q140 -72 219 -160t79 -219q0 -145 -103 -235q-104 -90 -298 -90z" />
    <glyph glyph-name="Scircumflex" unicode="&#x15c;" horiz-adv-x="1202" 
d="M307 1513l-12 14q247 327 313 417h23q170 -233 313 -418l-10 -13l-313 148zM606 -28l-5 -3q-220 0 -500 107l-28 522h16q116 -232 253 -390q138 -159 280 -159q71 0 117 43q47 44 47 139q0 91 -57 147q-59 58 -256 179q-6 5 -69 42q-62 37 -89 56q-25 18 -80 65t-80 87
t-48 107q-22 65 -22 140q0 205 144 322t362 117q172 0 426 -68l43 -512h-16q-103 207 -231 356q-129 150 -246 150q-61 0 -105 -42t-44 -115q0 -77 59 -133q57 -54 237 -157q211 -121 274 -174q147 -134 150 -342q0 -134 -49 -232q-49 -99 -130 -151q-83 -54 -169 -77
q-88 -24 -184 -24z" />
    <glyph glyph-name="scircumflex" unicode="&#x15d;" horiz-adv-x="931" 
d="M190 1116l-11 10q36 44 108 143q68 95 170 218h24q158 -225 275 -361l-6 -10l-281 127zM491 -29l-5 2q-145 0 -392 58l-43 372l15 5q102 -152 211 -261q111 -111 199 -111q39 0 66 21t27 60q0 51 -53 98q-51 46 -176 120q-65 37 -103 65q-36 26 -89 72q-56 48 -81 108
q-25 59 -25 132q0 145 107 229q106 84 281 84q130 0 360 -51l36 -346l-16 -4q-96 137 -199 237q-105 102 -183 102q-34 0 -58 -21t-24 -60q0 -30 14 -55q13 -23 56 -52q44 -30 71 -44q62 -33 107 -56q140 -72 219 -160t79 -219q0 -145 -103 -235t-298 -90z" />
    <glyph glyph-name="Scedilla" unicode="&#x15e;" horiz-adv-x="1202" 
d="M606 -29l-9 -4l-6 -16q307 -25 307 -180q0 -209 -452 -207l8 43q217 16 217 111q0 47 -55 87t-144 40l74 125q-212 13 -445 105l-28 522h16q116 -232 253 -390q138 -159 280 -159q71 0 117 43q47 44 47 139q0 92 -57 147q-59 58 -256 179q-6 4 -69 42q-62 37 -89 56
q-25 18 -80 65t-80 87t-48 107q-22 65 -22 140q0 205 144 322t362 117q172 0 426 -68l43 -512h-16q-103 207 -231 356q-129 150 -246 150q-61 0 -105 -42t-44 -115q0 -77 59 -133q57 -54 237 -157q211 -121 274 -174q147 -133 150 -342q0 -134 -49 -232q-49 -99 -130 -151
q-83 -54 -169 -77q-88 -24 -184 -24z" />
    <glyph glyph-name="scedilla" unicode="&#x15f;" horiz-adv-x="931" 
d="M893 293l-4 1q0 -142 -105 -232t-312 -90l-12 -20q143 -12 210 -52q68 -41 68 -114q0 -110 -132 -172q-131 -61 -363 -58l16 43q110 7 176 41q65 33 65 86q0 50 -51 84q-52 35 -124 35l96 131q-121 7 -326 56l-43 372l15 5q102 -152 211 -261q111 -111 199 -111
q39 0 66 21t27 60q0 51 -53 98q-51 46 -176 120q-65 37 -103 65q-36 26 -89 72q-55 48 -81 108q-25 59 -25 132q0 145 107 229t281 84q131 0 360 -51l36 -346l-16 -4q-96 137 -199 237q-105 102 -183 102q-34 0 -58 -21t-24 -60q0 -30 14 -55q13 -23 56 -52q44 -30 71 -44
q62 -33 107 -56q140 -72 219 -160t79 -223z" />
    <glyph glyph-name="Scaron" unicode="&#x160;" horiz-adv-x="1202" 
d="M309 1946l311 -146l315 146l10 -13q-131 -167 -312 -417h-23l-313 417zM605 -29l-5 -3q-220 0 -500 107l-28 522h16q116 -232 253 -390q138 -159 280 -159q71 0 117 43q47 44 47 139q0 92 -57 147q-59 58 -256 179q-6 4 -69 42q-62 37 -89 56q-25 18 -80 65t-80 87
t-48 107q-22 65 -22 140q0 205 144 322t362 117q172 0 426 -68l43 -512h-16q-103 207 -231 356q-129 150 -246 150q-62 0 -105 -42q-44 -42 -44 -115q0 -77 59 -133q57 -54 237 -157q211 -121 274 -174q147 -133 150 -342q0 -134 -49 -232q-49 -99 -130 -151
q-83 -54 -169 -77q-89 -24 -184 -24z" />
    <glyph glyph-name="scaron" unicode="&#x161;" horiz-adv-x="931" 
d="M172 1493l279 -126l280 127l6 -10q-110 -127 -274 -361h-25q-104 125 -177 225t-99 135zM492 -28l-5 2q-145 0 -392 58l-43 372l15 5q102 -152 211 -261q111 -111 199 -111q39 0 66 21t27 60q0 51 -53 98q-51 46 -176 120q-65 37 -103 65q-36 26 -89 72q-55 48 -81 108
q-25 59 -25 132q0 145 107 229t281 84q131 0 360 -51l36 -346l-16 -4q-96 137 -199 237q-105 102 -183 102q-34 0 -58 -21t-24 -60q0 -30 14 -55q13 -23 56 -52q44 -30 71 -44q62 -33 107 -56q140 -72 219 -160t79 -219q0 -145 -103 -235q-104 -90 -298 -90z" />
    <glyph glyph-name="uni0162" unicode="&#x162;" horiz-adv-x="1431" 
d="M1358 1464l36 -504h-17q-47 152 -150 272q-104 121 -258 149v-1132q0 -106 21 -145t104 -89v-16h-346l-17 -41q307 -25 307 -180q0 -209 -452 -207l8 43q217 16 217 111q0 47 -55 87t-144 40l86 147h-346v16q84 50 105 88q21 39 21 146v1134q-113 -17 -204 -91
q-93 -76 -140 -157q-49 -84 -77 -174h-16l37 503h1280z" />
    <glyph glyph-name="uni0163" unicode="&#x163;" horiz-adv-x="790" 
d="M403 -23l-7 -2l-16 -26q143 -12 210 -52q68 -41 68 -114q0 -111 -132 -172q-131 -61 -363 -58l16 43q110 7 176 41q65 33 65 86q0 49 -50 84t-123 35l102 140q-110 13 -178 87q-67 73 -67 204v646h-88v43q386 200 504 351h27v-316h211l-13 -77h-194l-6 -574
q-2 -164 121 -164q63 0 120 58l13 -13q-45 -91 -147 -171q-101 -79 -249 -79z" />
    <glyph glyph-name="Tcaron" unicode="&#x164;" horiz-adv-x="1431" 
d="M737 1516h-22l-314 417l13 13l311 -146l315 146l11 -13q-137 -171 -314 -417zM1358 1464l36 -504h-17q-47 152 -150 272q-104 121 -258 149v-1132q0 -106 21 -145t104 -89v-16h-742v16q84 50 105 88q21 39 21 146v1134q-113 -17 -204 -91q-93 -76 -140 -157
q-49 -84 -77 -174h-16l37 503h1280z" />
    <glyph glyph-name="tcaron" unicode="&#x165;" horiz-adv-x="790" 
d="M637 1034h-16l36 449h340zM403 -23v-1q-131 0 -215 75t-84 222v646h-88v43q386 200 504 351h27v-316h211l-13 -77h-194l-6 -574q-2 -164 121 -164q63 0 120 58l13 -13q-45 -91 -147 -171q-101 -79 -249 -79z" />
    <glyph glyph-name="Tbar" unicode="&#x166;" horiz-adv-x="1431" 
d="M1358 1464l36 -504h-17q-47 152 -150 272q-104 121 -258 149v-508h229v-73h-229v-551q0 -106 21 -145t104 -89v-16h-742v16q84 50 105 88q21 39 21 146v551h-223v73h223v510q-113 -17 -204 -91q-93 -76 -140 -157q-49 -84 -77 -174h-16l37 503h1280z" />
    <glyph glyph-name="tbar" unicode="&#x167;" horiz-adv-x="790" 
d="M786 240l14 -14q-45 -92 -147 -171q-101 -79 -250 -79q-131 0 -215 75t-84 222v412h-79v74h79v160h-88v43q386 200 504 351h27v-316h211l-13 -77h-194l-2 -160h190v-74h-190l-4 -340q-2 -164 121 -164q64 2 120 58z" />
    <glyph glyph-name="Utilde" unicode="&#x168;" horiz-adv-x="1538" 
d="M1196 1858l24 -6q-50 -290 -288 -288q-74 0 -168 28q-143 41 -184 41q-67 0 -138 -59l-22 6q32 152 105 219q74 68 197 68q53 0 154 -29q141 -41 172 -41q49 0 80 14q30 13 68 47zM1529 1463l-4 -16q-90 -55 -126 -99t-51 -123t-15 -249v-490q0 -516 -542 -516
q-121 0 -231 26q-108 26 -204 81q-96 56 -152 161q-56 106 -56 244v731q0 109 -21 147q-21 37 -105 88v16h741v-16q-84 -51 -105 -88q-21 -38 -21 -147v-755q0 -194 82 -289q83 -96 216 -96q55 0 106 18q52 18 102 58q51 40 81 128q30 87 30 209v490q0 172 -16 249
q-17 80 -52 123q-36 44 -126 99v16h469z" />
    <glyph glyph-name="utilde" unicode="&#x169;" horiz-adv-x="1304" 
d="M455 1202l-2 -1q-56 0 -123 -59l-21 6q49 264 261 264q52 0 148 -31q122 -39 145 -39q48 0 75 11q26 11 66 48l22 -4q-45 -262 -252 -262q-69 0 -153 28q-121 39 -166 39zM1210 278v-2q0 -92 18 -128t71 -71v-17l-524 -92v195q-51 -76 -142 -136t-213 -60q-34 0 -69 6
q-37 6 -84 25q-49 19 -85 54q-35 34 -61 99q-25 63 -25 150v332q0 125 -15 176q-15 52 -73 107v16q275 18 535 96q0 -38 -2 -348t-2 -345q0 -77 33 -118q33 -40 84 -40q61 0 109 51v406q0 128 -15 178t-72 105v16q278 18 532 96v-751z" />
    <glyph glyph-name="Umacron" unicode="&#x16a;" horiz-adv-x="1538" 
d="M1147 1765v-186h-680v186h680zM1530 1464l-4 -16q-90 -56 -126 -99t-51 -123t-15 -249v-490q0 -516 -542 -516q-121 0 -231 26q-108 25 -204 81t-152 161q-56 106 -56 244v731q0 110 -21 147t-105 88v16h741v-16q-84 -51 -105 -88t-21 -147v-755q0 -194 82 -289
q82 -96 216 -96q55 0 106 18q52 18 102 58q51 40 81 128q30 87 30 209v490q0 172 -16 249q-17 80 -52 123q-36 43 -126 99v16h469z" />
    <glyph glyph-name="umacron" unicode="&#x16b;" horiz-adv-x="1304" 
d="M961 1341v-200h-601v200h601zM1212 279v-2q0 -92 18 -128t71 -71v-17l-524 -92v195q-51 -76 -142 -136t-213 -60q-34 0 -69 6q-37 6 -84 25q-49 19 -85 54q-35 34 -61 99q-25 63 -25 150v332q0 125 -15 176q-15 52 -73 107v16q275 18 535 96q0 -38 -2 -348t-2 -345
q0 -78 33 -118t84 -40q61 0 109 51v406q0 129 -15 178t-72 105v16q278 18 532 96v-751z" />
    <glyph glyph-name="Ubreve" unicode="&#x16c;" horiz-adv-x="1538" 
d="M1073 1892h15q-14 -182 -81 -276t-207 -94q-137 0 -204 94q-68 94 -84 276h18q31 -82 111 -127q79 -45 162 -45t162 45q80 45 108 127zM1526 1464l-4 -16q-90 -56 -126 -99t-51 -123t-15 -249v-490q0 -516 -542 -516q-121 0 -231 26q-108 25 -204 81t-152 161
q-56 106 -56 244v731q0 110 -21 147t-105 88v16h741v-16q-84 -51 -105 -88t-21 -147v-755q0 -194 82 -289q82 -96 216 -96q55 0 106 18q52 18 102 58q51 40 81 128q30 87 30 209v490q0 172 -16 249q-17 80 -52 123q-36 43 -126 99v16h469z" />
    <glyph glyph-name="ubreve" unicode="&#x16d;" horiz-adv-x="1304" 
d="M651 1098h-2q-137 0 -204 94t-84 276h19q31 -81 110 -127q78 -45 161 -45t162 45q80 45 108 127h18q-13 -182 -81 -276q-67 -94 -207 -94zM1210 279v-2q0 -92 18 -128t71 -71v-17l-524 -92v195q-51 -76 -142 -136t-213 -60q-34 0 -69 6q-37 6 -84 25q-49 19 -85 54
q-35 34 -61 99q-25 63 -25 150v332q0 125 -15 176q-15 52 -73 107v16q275 18 535 96q0 -38 -2 -348t-2 -345q0 -78 33 -118t84 -40q61 0 109 51v406q0 129 -15 178t-72 105v16q278 18 532 96v-751z" />
    <glyph glyph-name="Uring" unicode="&#x16e;" horiz-adv-x="1538" 
d="M803 1542h1q-82 0 -141 57q-58 57 -58 141t57 141t141 57q83 0 138 -57q56 -58 56 -141t-56 -141q-55 -57 -138 -57zM812 1610v1q45 0 75 38q30 37 30 90q0 57 -33 97t-82 40q-46 0 -78 -38q-31 -37 -31 -89q0 -54 35 -97q34 -42 84 -42zM1531 1465l-4 -16
q-90 -55 -126 -99t-51 -123t-15 -249v-490q0 -516 -542 -516q-121 0 -231 26q-108 26 -204 81q-96 56 -152 161q-56 106 -56 244v731q0 109 -21 147q-21 37 -105 88v16h741v-16q-84 -51 -105 -88q-21 -38 -21 -147v-755q0 -194 82 -289q83 -96 216 -96q55 0 106 18
q52 18 102 58q51 40 81 128q30 87 30 209v490q0 172 -16 249q-17 80 -52 123q-36 44 -126 99v16h469z" />
    <glyph glyph-name="uring" unicode="&#x16f;" horiz-adv-x="1304" 
d="M651 1075l1 -2q-82 0 -141 59q-58 58 -58 141q0 82 57 139t141 57q81 0 139 -56q57 -55 57 -140q0 -84 -57 -141t-139 -57zM648 1407l-1 -1q-46 0 -76 -39t-30 -92t36 -95t84 -42t75 40t27 93q0 56 -34 96t-81 40zM1212 276v-2q0 -92 18 -128t71 -71v-17l-524 -92v195
q-51 -76 -142 -136t-213 -60q-34 0 -69 6q-37 6 -84 25q-49 19 -85 54q-35 34 -61 99q-25 63 -25 150v332q0 125 -15 176q-15 52 -73 107v16q275 18 535 96q0 -38 -2 -348t-2 -345q0 -77 33 -118q33 -40 84 -40q61 0 109 51v406q0 128 -15 178t-72 105v16q278 18 532 96
v-751z" />
    <glyph glyph-name="Uhungarumlaut" unicode="&#x170;" horiz-adv-x="1538" 
d="M905 1528h-14v168q0 89 -2 159h358q-217 -215 -342 -327zM506 1524l-18 1q0 14 2 98t2 87q0 36 -5 141h359q-135 -136 -340 -327zM1529 1465l-4 -16q-90 -55 -126 -99t-51 -123t-15 -249v-490q0 -516 -542 -516q-121 0 -231 26q-108 26 -204 81q-96 56 -152 161
q-56 106 -56 244v731q0 109 -21 147q-21 37 -105 88v16h741v-16q-84 -51 -105 -88q-21 -38 -21 -147v-755q0 -194 82 -289q83 -96 216 -96q55 0 106 18q52 18 102 58q51 40 81 128q30 87 30 209v490q0 172 -16 249q-17 80 -52 123q-36 44 -126 99v16h469z" />
    <glyph glyph-name="uhungarumlaut" unicode="&#x171;" horiz-adv-x="1304" 
d="M741 1128v169q0 85 -2 159h359q-166 -166 -342 -328h-15zM340 1123v-1q0 59 1 101t1 86q0 57 -4 141h358q-135 -136 -340 -327h-16zM1212 279v-2q0 -92 18 -128t71 -71v-17l-524 -92v195q-51 -76 -142 -136t-213 -60q-34 0 -69 6q-37 6 -84 25q-49 19 -85 54
q-35 34 -61 99q-25 63 -25 150v332q0 125 -15 176q-15 52 -73 107v16q275 18 535 96q0 -38 -2 -348t-2 -345q0 -78 33 -118t84 -40q61 0 109 51v406q0 129 -15 178t-72 105v16q278 18 532 96v-751z" />
    <glyph glyph-name="Uogonek" unicode="&#x172;" horiz-adv-x="1538" 
d="M1530 1464l-5 -17q-90 -55 -126 -99t-51 -123t-15 -249v-490q0 -365 -268 -471v-2q-46 -28 -87 -86q-40 -56 -40 -106q0 -39 24 -60t59 -21q61 0 117 45l14 -10q-37 -78 -118 -121q-80 -43 -167 -43q-83 0 -135 41q-51 40 -51 104q0 125 234 224q-49 -8 -123 -9
q-121 0 -231 26q-108 25 -204 81t-152 161q-56 106 -56 244v731q0 110 -21 147t-105 88v16h741v-16q-84 -51 -105 -88t-21 -147v-755q0 -194 82 -289q82 -96 216 -96q55 0 106 18q52 18 102 58q51 40 81 128q30 87 30 209v490q0 172 -16 249q-17 80 -52 123q-36 43 -126 99
v16h469z" />
    <glyph glyph-name="uogonek" unicode="&#x173;" horiz-adv-x="1304" 
d="M856 -14l-1 -3q-86 -86 -86 -171q0 -41 24 -62t59 -21q64 0 117 49l14 -10q-35 -80 -116 -125t-169 -45q-84 0 -135 42t-51 107q0 137 264 243v174q-51 -76 -142 -136q-92 -60 -213 -60q-35 0 -69 6q-37 6 -84 25q-49 19 -85 54q-35 34 -61 99q-25 63 -25 150v332
q0 125 -15 176q-15 52 -73 107v16q275 18 535 96q0 -38 -2 -348t-2 -345q0 -78 33 -118t84 -40q61 0 109 51v406q0 129 -15 178t-72 105v16q278 18 532 96v-751q0 -92 18 -128t71 -71v-17z" />
    <glyph glyph-name="Wcircumflex" unicode="&#x174;" horiz-adv-x="2248" 
d="M1182 1661l-314 -147l-12 13q247 327 313 417h23q170 -233 313 -418l-10 -13zM1784 1465l472 1v-16q-155 -141 -228 -352l-391 -1096h-215l-307 784l-293 -784h-213l-471 1243q-27 69 -52 110q-28 45 -84 95v16h748v-16q-61 -54 -88 -87q-25 -31 -25 -66q0 -29 10 -53
l268 -776l152 438l-133 338q-28 69 -54 110q-28 44 -85 95v16h751v-16q-55 -43 -79 -76t-24 -80q0 -55 33 -144l247 -680l201 621q35 111 35 150q0 52 -37 95q-38 43 -138 114v16z" />
    <glyph glyph-name="wcircumflex" unicode="&#x175;" horiz-adv-x="1787" 
d="M969 1243l-280 -127l-10 10q36 44 108 143q75 104 169 218h25q162 -231 274 -361l-6 -10zM1461 997l333 2v-16q-98 -116 -171 -274l-323 -707h-162l-252 559l-258 -559h-160l-377 831q-47 102 -102 150v16h626v-16q-71 -51 -69 -119q0 -34 14 -71q5 -11 177 -394l111 246
l-86 188q-45 97 -102 150v16h630v-16q-74 -55 -72 -129q0 -36 16 -72q10 -22 15 -34q7 -18 18 -42t48 -105q10 -22 41.5 -90.5t52.5 -113.5q106 229 135 308q17 50 18 79q0 66 -101 197v16z" />
    <glyph glyph-name="Ycircumflex" unicode="&#x176;" horiz-adv-x="1472" 
d="M778 1661l-313 -147l-12 13q247 327 313 417h22q155 -213 314 -418l-10 -13zM1051 1465l427 1v-16q-80 -76 -133 -141q-48 -59 -112 -167l-256 -443v-446q0 -107 21 -144t105 -90v-16h-742v16q84 50 105 88q21 39 21 146v438l-348 559q-80 126 -139 201v16h750v-16
q-111 -83 -111 -144q0 -43 66 -148l235 -371l195 353q41 74 41 117q0 84 -125 191v16z" />
    <glyph glyph-name="ycircumflex" unicode="&#x177;" horiz-adv-x="1146" 
d="M608 1243l-278 -127l-11 10q36 44 108 143q75 104 169 218h25q162 -231 274 -361l-6 -10zM836 997h323v-16q-96 -113 -174 -276q-283 -583 -345 -705q-78 -147 -167 -247q-86 -96 -216 -187l-180 241l8 13q63 -11 137 -13q238 0 309 144l23 45l-455 835q-37 67 -108 150
v16h680v-16q-78 -63 -78 -123q0 -32 31 -88l170 -307q81 160 132 278q14 34 14 56q0 83 -104 184v16z" />
    <glyph glyph-name="Ydieresis" unicode="&#x178;" horiz-adv-x="1472" 
d="M1012 1540q-70 0 -121 51t-51 119q0 70 51 121t121 51q68 0 120 -51t52 -121q0 -68 -52 -119t-120 -51zM543 1536q-70 0 -121 51t-51 119q0 70 51 121t121 51q67 0 120 -51q52 -51 52 -121q0 -68 -52 -119q-53 -51 -120 -51zM1051 1464l427 1v-16q-80 -76 -133 -141
q-48 -59 -112 -167l-256 -443v-446q0 -106 21 -144t105 -90v-16h-742v16q84 50 105 88q21 39 21 146v438l-348 559q-80 126 -139 201v16h750v-16q-111 -82 -111 -144q0 -43 66 -148l235 -371l195 353q41 74 41 117q0 84 -125 191v16z" />
    <glyph glyph-name="Zacute" unicode="&#x179;" horiz-adv-x="1312" 
d="M590 1530v1q0 56 1 98t1 87q0 57 -4 141h422q-168 -143 -402 -327h-18zM1251 490l17 -2l-49 -489h-1170v51l684 1338h-115q-102 0 -186 -40q-86 -41 -144 -106t-97 -136q-38 -69 -64 -145h-16l36 503h1108v-51l-682 -1337h213q145 0 265 123q121 124 200 291z" />
    <glyph glyph-name="zacute" unicode="&#x17a;" horiz-adv-x="1044" 
d="M389 1120v-1q0 56 1 98t1 89q0 57 -4 141h422q-161 -136 -401 -327h-19zM1004 996l2 -47l-488 -887h135q39 0 65 9t66 39q41 30 89 107q49 78 107 200h14l-32 -416h-920v43l508 893h-123q-38 0 -58 -7t-58 -39t-87 -103q-50 -72 -120 -195h-16l33 403h883z" />
    <glyph glyph-name="Zdotaccent" unicode="&#x17b;" horiz-adv-x="1312" 
d="M696 1546v-2q-68 0 -119 53t-51 120q0 68 51 119t119 51q70 0 121 -51t51 -118q0 -68 -51 -120t-121 -52zM1251 487l17 -2l-49 -489h-1170v51l684 1338h-115q-102 0 -186 -40q-86 -41 -144 -106t-97 -136q-38 -69 -64 -145h-16l36 503h1108v-51l-682 -1337h213
q145 0 265 123q121 124 200 291z" />
    <glyph glyph-name="zdotaccent" unicode="&#x17c;" horiz-adv-x="1044" 
d="M526 1087l-2 -1q-88 0 -150 59q-61 58 -61 138t62 137q61 57 150 57q85 0 147 -57t62 -137t-61 -138t-147 -58zM1002 996l2 -47l-488 -887h135q39 0 65 9t66 39q41 30 89 107q49 78 107 200h14l-32 -416h-920v43l508 893h-123q-38 0 -58 -7t-58 -39t-87 -103
q-50 -72 -120 -195h-16l33 403h883z" />
    <glyph glyph-name="Zcaron" unicode="&#x17d;" horiz-adv-x="1312" 
d="M711 1516h-24l-313 417l12 13l311 -146l316 146l10 -13q-131 -165 -312 -417zM1250 489l17 -2l-49 -489h-1170v51l684 1338h-115q-102 0 -186 -40q-86 -41 -144 -106t-97 -136q-38 -69 -64 -145h-16l36 503h1108v-51l-682 -1337h213q145 0 265 123q121 124 200 291z" />
    <glyph glyph-name="zcaron" unicode="&#x17e;" horiz-adv-x="1044" 
d="M518 1122h-24q-104 124 -177 225q-81 110 -100 135l10 10l279 -127l280 127l7 -10q-114 -130 -275 -360zM1004 997l2 -47l-488 -887h135q39 0 65 9t66 39q41 30 89 107q49 78 107 200h14l-32 -416h-920v43l508 893h-123q-38 0 -58 -7t-58 -39t-87 -103q-50 -72 -120 -195
h-16l33 403h883z" />
    <glyph glyph-name="Aringacute" unicode="&#x1fa;" horiz-adv-x="1497" 
d="M651 1939v-1q0 49 1 85t1 74q0 50 -4 119h422q-179 -129 -401 -277h-19zM760 1541h1q-83 0 -141 57t-58 141t57 141t141 57q82 0 138 -57q56 -58 56 -141t-56 -141q-56 -57 -138 -57zM761 1875l-1 1q-47 0 -80 -38t-33 -89q0 -53 36 -96t85 -43q45 0 75 38t30 90
q0 57 -31 97t-81 40zM1352 225l1 -4q17 -47 29 -72q8 -18 36 -58q27 -39 72 -78v-16h-756v16q61 43 85 76t24 74t-41 166l-47 139h-398l-8 -22q-53 -147 -53 -213q0 -58 35 -108q34 -49 116 -111v-16h-434v16q101 101 150 185t101 236l254 729l-88 172q243 82 430 198z
M396 584h320l-162 479z" />
    <glyph glyph-name="aringacute" unicode="&#x1fb;" horiz-adv-x="1249" 
d="M520 1495h-18q0 59 1 101t1 86q0 57 -4 141h422q-161 -136 -402 -328zM639 1075l1 -2q-82 0 -141 59q-58 58 -58 141q0 82 57 139t141 57q81 0 139 -56q57 -55 57 -140q0 -84 -57 -141t-139 -57zM648 1139q47 0 75 40t28 91q0 57 -34 97t-81 40t-77 -39t-30 -92t36 -95
t83 -42zM931 -22l-6 -4q-130 0 -187 68t-51 159h-4q-43 -94 -135 -160t-216 -66q-131 0 -209 72t-78 182q0 85 51 156t146 122q94 51 200 87q100 34 245 67l2 190q0 109 -84 109q-73 0 -119 -103t-66 -243l-12 -2l-283 125q49 115 188 201q137 85 363 85q126 0 213 -31
q89 -32 132 -73q43 -42 67 -109q24 -68 27 -112q3 -39 1 -108l-8 -389q0 -68 45 -68q47 0 80 70l18 -8q-28 -85 -109 -151t-211 -66zM587 217v1q28 0 54 20q25 20 36 42l8 331q-182 -44 -182 -246q0 -148 84 -148z" />
    <glyph glyph-name="AEacute" unicode="&#x1fc;" horiz-adv-x="2074" 
d="M1272 1530v1q0 56 1 98t1 87q0 57 -4 141h422q-168 -143 -402 -327h-18zM1974 490h18l-49 -489h-1205v16q84 51 105 89t21 144v217h-467l-22 -39q-88 -151 -88 -213q0 -89 155 -199v-16h-446v16q99 102 146 168q48 68 153 243l479 817q16 26 18 51q0 32 -25 63
q-27 34 -84 89v16h1192l37 -503h-17q-51 169 -176 299q-125 129 -315 129h-51v-566h55q103 0 186 56q82 55 129 134h11v-467h-11q-50 89 -132 149q-83 60 -184 56l-55 -2v-566q0 -50 42 -78q41 -28 101 -28h14q145 0 265 123q121 124 200 291zM464 581h401v680h-4z" />
    <glyph glyph-name="aeacute" unicode="&#x1fd;" horiz-adv-x="1744" 
d="M819 1120h-18q0 56 1 98t1 89q0 57 -4 141h422q-161 -136 -402 -328zM369 -20l-4 -4q-72 0 -138 18t-123 78t-57 155q0 74 37 135q39 63 91 104q53 42 146 81t172 63q90 27 198 53l2 202q0 39 -24 66t-64 27q-55 0 -97 -57q-41 -56 -61 -130q-19 -73 -27 -159h-12
l-279 129q47 112 180 197q134 86 328 86q171 0 299 -76q155 76 307 76q207 0 333 -111t126 -292v-25h-629q0 -98 33 -168q34 -72 85 -104q53 -33 105 -48t108 -15q81 0 163 32t122 99l12 -6q-39 -178 -157 -292t-321 -114q-132 0 -247 50q-114 50 -177 138
q-53 -76 -180 -132q-129 -56 -250 -56zM1071 658l235 2q-4 301 -120 301q-115 0 -115 -303zM640 164l1 1q74 0 114 49q-72 118 -72 288q0 43 6 115q-182 -71 -182 -271q0 -95 38 -139q37 -43 95 -43z" />
    <glyph glyph-name="Oslashacute" unicode="&#x1fe;" horiz-adv-x="1671" 
d="M727 1530v1q0 56 1 98t1 87q0 57 -4 141h422q-168 -143 -402 -327h-18zM1325 1365v1q295 -193 295 -631q0 -367 -209 -565t-576 -198q-255 0 -437 97l-92 -129h-80l117 163q-293 197 -293 630q0 367 209 564t576 197q254 0 435 -94l84 117h80zM563 969l-1 -1
q0 -258 49 -490l428 600q-90 338 -264 338q-101 0 -157 -114q-55 -113 -55 -333zM894 52l-1 -1q100 0 157 115q57 116 57 333q0 253 -49 495l-428 -600q90 -342 264 -342z" />
    <glyph glyph-name="oslashacute" unicode="&#x1ff;" horiz-adv-x="1243" 
d="M485 1120v-1q0 56 1 98t1 89q0 57 -4 141h422q-161 -136 -401 -327h-19zM997 935l2 -1q205 -124 205 -422q0 -266 -159 -399q-160 -134 -427 -134q-189 0 -317 61l-94 -121h-72l115 148q-207 125 -207 420q0 268 159 403t428 135q189 0 318 -61l78 100h72zM494 774
q0 -143 26 -362l195 250q-49 296 -144 294q-77 0 -77 -182zM676 43v1q76 0 76 186q0 161 -25 354l-195 -248q50 -293 144 -293z" />
    <glyph glyph-name="uni0218" unicode="&#x218;" horiz-adv-x="1202" 
d="M606 -29l-5 -3q-220 0 -500 107l-28 522h16q116 -232 253 -390q138 -159 280 -159q71 0 117 43q47 44 47 139q0 92 -57 147q-59 58 -256 179q-6 4 -69 42q-62 37 -89 56q-25 18 -80 65t-80 87t-48 107q-22 65 -22 140q0 205 144 322t362 117q172 0 426 -68l43 -512h-16
q-103 207 -231 356q-129 150 -246 150q-61 0 -105 -42t-44 -115q0 -77 59 -133q57 -54 237 -157q211 -121 274 -174q147 -133 150 -342q0 -134 -49 -232q-49 -99 -130 -151q-83 -54 -169 -77q-88 -24 -184 -24zM587 -62v-2q79 0 135 -46q57 -47 57 -121q0 -91 -86 -201
q-85 -110 -243 -156l-11 17q123 102 162 221h-12q-79 0 -132 41q-52 40 -52 101q0 59 53 103q52 43 129 43z" />
    <glyph glyph-name="uni0219" unicode="&#x219;" horiz-adv-x="931" 
d="M492 -29l-5 2q-145 0 -392 58l-43 372l15 5q102 -152 211 -261q111 -111 199 -111q39 0 66 21t27 60q0 51 -53 98q-51 46 -176 120q-65 37 -103 65q-36 26 -89 72q-55 48 -81 108q-25 59 -25 132q0 145 107 229t281 84q131 0 360 -51l36 -346l-16 -4q-96 137 -199 237
q-105 102 -183 102q-34 0 -58 -21t-24 -60q0 -30 14 -55q13 -23 56 -52q44 -30 71 -44q62 -33 107 -56q140 -72 219 -160t79 -219q0 -145 -103 -235q-104 -90 -298 -90zM468 -57v-2q79 0 135 -46q57 -47 57 -121q0 -91 -86 -201q-86 -109 -243 -156l-10 17q123 102 161 221
h-12q-79 0 -132 41q-52 40 -52 101q0 59 53 103q52 43 129 43z" />
    <glyph glyph-name="uni021A" unicode="&#x21a;" horiz-adv-x="1431" 
d="M1358 1464l36 -504h-17q-47 152 -150 272q-104 121 -258 149v-1132q0 -106 21 -145t104 -89v-16h-742v16q84 50 105 88q21 39 21 146v1134q-113 -17 -204 -91q-93 -76 -140 -157q-49 -84 -77 -174h-16l37 503h1280zM728 -56v-1q79 0 135 -46q57 -47 57 -123
q0 -91 -86 -200q-86 -108 -243 -156l-10 17q123 102 161 221h-12q-79 0 -132 41q-52 40 -52 101q0 59 53 103q52 43 129 43z" />
    <glyph glyph-name="uni021B" unicode="&#x21b;" horiz-adv-x="790" 
d="M403 -23v-1q-131 0 -215 75t-84 222v646h-88v43q386 200 504 351h27v-316h211l-13 -77h-194l-6 -574q-2 -164 121 -164q63 0 120 58l13 -13q-45 -91 -147 -171q-101 -79 -249 -79zM393 -60v-2q79 0 135 -46q57 -46 57 -121q0 -91 -86 -201q-85 -110 -243 -156l-10 17
q123 102 162 221h-13q-79 0 -132 41q-52 40 -52 101q0 59 53 103q52 43 129 43z" />
    <glyph glyph-name="uni0237" unicode="&#x237;" horiz-adv-x="645" 
d="M-66 -432l-8 20q100 52 141 135q41 84 41 234v678q0 137 -15 179q-16 44 -70 104v16q278 18 532 96v-807q0 -134 -37 -241t-96 -178q-59 -72 -141 -122q-84 -52 -167 -77q-81 -25 -180 -37z" />
    <glyph glyph-name="circumflex" unicode="&#x2c6;" horiz-adv-x="704" 
d="M76 1133l-10 9q34 44 105 141q64 89 173 220h23q164 -234 274 -360l-6 -10l-281 127z" />
    <glyph glyph-name="caron" unicode="&#x2c7;" horiz-adv-x="704" 
d="M76 1509l277 -128l281 127l6 -10q-118 -136 -273 -360h-23q-109 131 -173 220q-71 98 -105 141z" />
    <glyph glyph-name="breve" unicode="&#x2d8;" horiz-adv-x="706" 
d="M625 1485l17 -1q-17 -182 -82 -276q-66 -94 -206 -94q-136 0 -204 95t-84 276h18q31 -81 110 -127q78 -45 161 -45t162 45q80 45 108 127z" />
    <glyph glyph-name="dotaccent" unicode="&#x2d9;" horiz-adv-x="548" 
d="M276 1106l-1 -1q-88 0 -150 59q-61 58 -61 138t61 137t150 57t149 -57t60 -137t-61 -138t-147 -58z" />
    <glyph glyph-name="ring" unicode="&#x2da;" horiz-adv-x="522" 
d="M264 1092v-1q-84 0 -141 57t-57 141q0 83 57 140t141 57t141 -57t57 -139q0 -84 -57 -141t-141 -57zM274 1156h-2q48 0 75 40t27 91q0 57 -34 97t-81 40q-45 0 -75 -37t-30 -90q0 -57 36 -99t84 -42z" />
    <glyph glyph-name="ogonek" unicode="&#x2db;" horiz-adv-x="598" 
d="M252 -401l-2 -2q-84 0 -135 42t-51 108q0 67 58 122q60 56 135 92q77 36 192 75v-19q-47 -29 -87 -90t-40 -114q0 -41 24 -62t59 -21q62 0 117 49l15 -10q-35 -80 -116 -125t-169 -45z" />
    <glyph glyph-name="tilde" unicode="&#x2dc;" horiz-adv-x="843" 
d="M758 1423l23 -5q-45 -262 -252 -262q-66 0 -153 29q-122 39 -165 39q-59 0 -125 -60l-20 6q49 263 264 265q47 0 143 -31q123 -39 148 -39q51 0 74 10q24 11 63 48z" />
    <glyph glyph-name="hungarumlaut" unicode="&#x2dd;" horiz-adv-x="888" 
d="M485 1145l-16 -1q2 94 2 192q0 72 -2 136h356q-135 -136 -340 -327zM84 1138h-16q2 94 2 184q0 81 -2 143h356q-135 -136 -340 -327z" />
    <glyph glyph-name="Wgrave" unicode="&#x1e80;" horiz-adv-x="2248" 
d="M1305 1530h-20q-234 184 -402 328h424q-4 -84 -4 -142q0 -46 1 -88t1 -98zM1783 1464l472 1v-16q-155 -141 -228 -352l-391 -1096h-215l-307 784l-293 -784h-213l-471 1243q-27 69 -52 110q-28 45 -84 95v16h748v-16q-61 -54 -88 -87q-25 -31 -25 -66q0 -29 10 -53
l268 -776l152 438l-133 338q-28 69 -54 110q-28 44 -85 95v16h751v-16q-55 -43 -79 -76t-24 -80q0 -56 33 -144l247 -680l201 621q35 111 35 150q0 52 -37 95q-37 44 -138 114v16z" />
    <glyph glyph-name="wgrave" unicode="&#x1e81;" horiz-adv-x="1787" 
d="M1120 1120l-18 1q-242 191 -404 328h422q-2 -62 -2 -143q0 -92 2 -186zM1462 998l333 2v-16q-98 -116 -171 -274l-323 -707h-162l-252 559l-258 -559h-160l-377 831q-46 102 -102 150v16h626v-16q-71 -51 -69 -119q0 -34 14 -71q5 -11 177 -394l111 246l-86 188
q-45 98 -102 150v16h630v-16q-73 -56 -72 -129q0 -36 16 -72q10 -22 15 -34q8 -18 18 -42t48 -105q10 -22 41.5 -90.5t52.5 -113.5q106 229 135 308q17 50 18 79q0 66 -101 197v16z" />
    <glyph glyph-name="Wacute" unicode="&#x1e82;" horiz-adv-x="2248" 
d="M1071 1530v1q0 56 1 98t1 87q0 57 -4 141h422q-161 -136 -401 -327h-19zM1784 1465l472 1v-16q-155 -141 -228 -352l-391 -1096h-215l-307 784l-293 -784h-213l-471 1243q-27 69 -52 110q-28 45 -84 95v16h748v-16q-61 -54 -88 -87q-25 -31 -25 -66q0 -29 10 -53
l268 -776l152 438l-133 338q-28 69 -54 110q-28 44 -85 95v16h751v-16q-55 -43 -79 -76t-24 -80q0 -55 33 -144l247 -680l201 621q35 111 35 150q0 52 -37 95q-38 43 -138 114v16z" />
    <glyph glyph-name="wacute" unicode="&#x1e83;" horiz-adv-x="1787" 
d="M831 1120l-1 -1q0 14 2 98t2 89q0 36 -5 141h422q-161 -136 -401 -327h-19zM1461 996l333 2v-16q-98 -116 -171 -274l-323 -707h-162l-252 559l-258 -559h-160l-377 831q-47 102 -102 150v16h626v-16q-71 -51 -69 -119q0 -34 14 -71q5 -11 177 -394l111 246l-86 188
q-45 98 -102 150v16h630v-16q-74 -56 -72 -129q0 -36 16 -72q10 -22 15 -34q7 -18 18 -42t48 -105q10 -22 41.5 -90.5t52.5 -113.5q106 229 135 308q17 50 18 79q0 66 -101 197v16z" />
    <glyph glyph-name="Wdieresis" unicode="&#x1e84;" horiz-adv-x="2248" 
d="M1415 1540h1q-70 0 -121 51t-51 119q0 70 51 121t120 51q67 0 120 -51q52 -51 52 -121q0 -68 -52 -119q-53 -51 -120 -51zM947 1536h1q-70 0 -121 51t-51 119q0 70 51 121t120 51q67 0 120 -51q52 -51 52 -121q0 -68 -52 -119q-53 -51 -120 -51zM1786 1464l472 1v-16
q-155 -141 -228 -352l-391 -1096h-215l-307 784l-293 -784h-213l-471 1243q-27 69 -52 110q-28 45 -84 95v16h748v-16q-61 -54 -88 -87q-25 -31 -25 -66q0 -29 10 -53l268 -776l152 438l-133 338q-28 69 -54 110q-28 44 -85 95v16h751v-16q-55 -43 -79 -76t-24 -80
q0 -56 33 -144l247 -680l201 621q35 111 35 150q0 52 -37 95q-38 44 -138 114v16z" />
    <glyph glyph-name="wdieresis" unicode="&#x1e85;" horiz-adv-x="1787" 
d="M764 1106q-72 0 -125 54q-53 55 -53 126q0 69 53 124q53 54 125 54q71 0 126 -53q54 -52 54 -125q0 -72 -54 -126t-126 -54zM1171 1106h2q-72 0 -126 54t-54 126q0 70 54 124t125 54t125 -54t54 -124q0 -72 -54 -126t-126 -54zM1463 997l333 2v-16q-98 -116 -171 -274
l-323 -707h-162l-252 559l-258 -559h-160l-377 831q-47 102 -102 150v16h626v-16q-71 -51 -69 -119q0 -34 14 -71q5 -11 177 -394l111 246l-86 188q-45 97 -102 150v16h630v-16q-74 -55 -72 -129q0 -36 16 -72q10 -22 15 -34q7 -18 18 -42t48 -105q10 -22 41.5 -90.5
t52.5 -113.5q106 229 135 308q17 50 18 79q0 66 -101 197v16z" />
    <glyph glyph-name="uni1E8A" unicode="&#x1e8a;" horiz-adv-x="1550" 
d="M881 1546v-2q-68 0 -119 53t-51 120q0 68 51 119t119 51q70 0 121 -51t51 -118q0 -68 -51 -120t-121 -52zM1368 227l-2 1q84 -131 148 -188q4 -4 12.5 -12t13.5 -13v-16h-794v16q94 84 94 142q0 33 -25 73l-194 326l-168 -211q-78 -97 -78 -159q0 -71 112 -171v-16h-477
v16q111 78 174 138t176 197l222 271l-379 610q-33 53 -48 75q-17 25 -48 62q-33 39 -78 78v16h802v-16q-98 -84 -98 -143q0 -29 27 -74l176 -299l156 203q70 90 69 151q0 67 -110 162v16h467v-16q-140 -88 -328 -318l-215 -264z" />
    <glyph glyph-name="uni1E8B" unicode="&#x1e8b;" horiz-adv-x="1189" 
d="M608 1087l-2 -1q-88 0 -150 59q-61 58 -61 138t62 137q61 57 150 57q85 0 147 -57t62 -137t-61 -138t-147 -58zM1083 151v2q39 -59 105 -135v-16h-664v16q3 3 12 8q3 1 6 3t5 3.5t3 1.5q6 3 11 6q7 4 11 8q5 5 9 8q6 4 9 9l6 9q2 3 4 11q1 4 1 12q0 22 -20 56l-133 213
l-86 -113q-46 -61 -48 -117q0 -74 82 -119v-16h-395v16q50 31 80 53q28 21 80 71q48 47 112 123l136 162l-287 422q-56 84 -109 135v16h662v-16q-68 -39 -68 -84q0 -40 52 -119l88 -137l73 98q49 65 49 115t-71 127v16h366v-16q-60 -37 -115 -87q-56 -51 -83 -84
q-23 -27 -79 -102l-98 -129z" />
    <glyph glyph-name="Ygrave" unicode="&#x1ef2;" horiz-adv-x="1472" 
d="M901 1530h-18q-242 191 -404 328h424q-4 -84 -4 -142q0 -46 1 -88t1 -98zM1051 1464l427 1v-16q-80 -76 -133 -141q-48 -59 -112 -167l-256 -443v-446q0 -106 21 -144t105 -90v-16h-742v16q84 50 105 88q21 39 21 146v438l-348 559q-80 126 -139 201v16h750v-16
q-111 -82 -111 -144q0 -43 66 -148l235 -371l195 353q41 74 41 117q0 84 -125 191v16z" />
    <glyph glyph-name="ygrave" unicode="&#x1ef3;" horiz-adv-x="1146" 
d="M760 1120l-20 1q-234 184 -402 328h422q-2 -62 -2 -143q0 -92 2 -186zM835 998h323v-16q-96 -112 -174 -276q-284 -584 -345 -705q-78 -147 -167 -247q-86 -96 -216 -187l-180 241l8 13q63 -11 137 -13q239 0 309 144l23 45l-455 835q-38 68 -108 150v16h680v-16
q-78 -63 -78 -123q0 -32 31 -88l170 -307q81 160 132 278q14 34 14 56q0 83 -104 184v16z" />
    <glyph glyph-name="endash" unicode="&#x2013;" horiz-adv-x="987" 
d="M926 588v-88h-860v88h860z" />
    <glyph glyph-name="emdash" unicode="&#x2014;" horiz-adv-x="1845" 
d="M1784 588v-88h-1718v88h1718z" />
    <glyph glyph-name="quoteleft" unicode="&#x2018;" horiz-adv-x="475" 
d="M244 1167l-1 -2q81 0 136 -53q54 -52 54 -131q0 -80 -55 -135q-56 -56 -133 -56q-80 0 -140 61t-60 159q0 75 35 165q35 89 117 179q83 90 190 135l10 -21q-118 -130 -164 -301h11z" />
    <glyph glyph-name="quoteright" unicode="&#x2019;" horiz-adv-x="475" 
d="M233 1489l-1 -3q82 0 142 -60t60 -162q0 -122 -91 -265q-92 -145 -252 -209l-10 20q118 134 164 303h-10q-82 0 -136 54t-54 131q0 80 55 135q56 56 133 56z" />
    <glyph glyph-name="quotesinglbase" unicode="&#x201a;" horiz-adv-x="591" 
d="M293 389l-3 -3q84 0 147 -64t63 -174q0 -132 -94 -284t-267 -226l-10 20q128 145 178 333h-14q-87 0 -143 55q-57 56 -57 139t59 144q58 60 141 60z" />
    <glyph glyph-name="quotedblleft" unicode="&#x201c;" horiz-adv-x="931" 
d="M244 1167l-1 -2q81 0 136 -53q54 -52 54 -131q0 -80 -55 -135q-56 -56 -133 -56q-80 0 -140 61t-60 159q0 75 35 165q35 89 117 179q83 90 190 135l10 -21q-118 -130 -164 -301h11zM701 1165l-2 -3q81 0 136 -53q54 -53 54 -131q0 -80 -54 -135q-54 -56 -131 -56
q-82 0 -142 61q-60 62 -60 165q0 73 35 161q34 86 116 177q81 90 190 135l10 -21q-115 -131 -162 -300h10z" />
    <glyph glyph-name="quotedblright" unicode="&#x201d;" horiz-adv-x="931" 
d="M233 1489l-1 -3q82 0 142 -60t60 -162q0 -122 -91 -265q-92 -145 -252 -209l-10 20q118 134 164 303h-10q-82 0 -136 54t-54 131q0 80 55 135q56 56 133 56zM689 1486l-1 -2q82 0 142 -60t60 -162q0 -72 -35 -162q-34 -87 -116 -178q-81 -90 -189 -135l-10 20
q118 136 161 303h-10q-83 0 -135 54q-53 55 -53 131q0 79 54 135t132 56z" />
    <glyph glyph-name="quotedblbase" unicode="&#x201e;" horiz-adv-x="1067" 
d="M293 389l-3 -3q84 0 147 -64t63 -174q0 -132 -94 -284t-267 -226l-10 20q128 145 178 333h-14q-87 0 -143 55q-57 56 -57 139t59 144q58 60 141 60zM765 386l-1 -3q84 0 147 -64q63 -65 63 -174q0 -132 -94 -284t-267 -226l-10 20q128 145 178 333h-14q-86 0 -142 55
q-57 56 -57 139q0 84 57 144t140 60z" />
    <glyph glyph-name="dagger" unicode="&#x2020;" horiz-adv-x="776" 
d="M655 1204v-43h-245v-575h-41v575h-246v43h246v260h41v-260h245z" />
    <glyph glyph-name="daggerdbl" unicode="&#x2021;" horiz-adv-x="776" 
d="M655 1161h-245v-237h245v-43h-245v-295h-41v295h-246v43h246v237h-246v43h246v260h41v-260h245v-43z" />
    <glyph glyph-name="bullet" unicode="&#x2022;" horiz-adv-x="905" 
d="M456 199v-2q-158 0 -270 111t-112 267q0 154 113 267q112 112 270 112q156 0 267 -112t111 -265q0 -156 -111 -267t-268 -111z" />
    <glyph glyph-name="ellipsis" unicode="&#x2026;" horiz-adv-x="1622" 
d="M301 -20l-4 -2q-83 0 -145 60q-61 60 -61 144t62 146t146 62q85 0 146 -61q62 -62 62 -145q0 -84 -61 -144q-62 -60 -145 -60zM813 -22l-1 -2q-86 0 -147 60t-61 144t62 146t147 62q84 0 144 -61t60 -145t-60 -144t-144 -60zM1322 -24v-2q-86 0 -146 60t-60 144t60 146
t146 62q84 0 144 -61t60 -145t-60 -144t-144 -60z" />
    <glyph glyph-name="perthousand" unicode="&#x2030;" horiz-adv-x="2942" 
d="M518 -33l-53 33l997 1501l51 -35zM477 522q-194 0 -313 122q-118 121 -118 335t122 345q121 130 321 130q193 0 312 -123q119 -124 119 -336q0 -216 -121 -344q-121 -129 -322 -129zM520 569v-1q47 0 77 63t30 191q0 102 -15 227q-15 126 -58 240q-44 116 -108 116
q-47 0 -77 -63t-30 -192q0 -104 15 -228q15 -123 59 -239q43 -114 107 -114zM1516 925l-2 -1q196 0 314 -123q119 -124 119 -334q0 -215 -121 -345q-122 -131 -318 -131t-315 123q-119 124 -119 336q0 215 121 345t321 130zM2468 924h-2q196 0 314 -123q119 -124 119 -334
q0 -214 -122 -345t-321 -131q-190 0 -309 122t-119 336q0 215 120 345t320 130zM1471 875v-3q-47 0 -78 -63q-31 -62 -31 -190q0 -102 15 -225q15 -122 59 -239q43 -115 107 -115q47 0 77 63t30 190q0 101 -15 226q-15 126 -58 240q-44 116 -106 116zM2425 872l-1 -3
q-46 0 -78 -63q-31 -62 -31 -190q0 -102 15 -225q15 -122 59 -239q43 -115 108 -115q47 0 77 63t30 190q0 102 -15 226q-15 126 -58 240q-44 116 -106 116z" />
    <glyph glyph-name="guilsinglleft" unicode="&#x2039;" horiz-adv-x="790" 
d="M721 997l1 2q-100 -257 -240 -471q142 -224 240 -474h-84q-212 196 -564 462v21q337 250 563 460h84z" />
    <glyph glyph-name="guilsinglright" unicode="&#x203a;" horiz-adv-x="790" 
d="M74 997l86 -2q245 -225 563 -459v-21q-343 -259 -564 -463h-84q95 249 239 474q-140 214 -240 471z" />
    <glyph glyph-name="fraction" unicode="&#x2044;" horiz-adv-x="387" 
d="M-305 0l1007 1464h76l-1007 -1464h-76z" />
    <glyph glyph-name="Euro" unicode="&#x20ac;" horiz-adv-x="1533" 
d="M950 47l-3 -1q79 0 204 146q123 143 247 348h16l-37 -512q-230 -56 -471 -58q-96 0 -183 18q-86 18 -176 65q-88 46 -154 120q-65 73 -112 195q-46 120 -55 279h-180v68h178q0 66 11 145h-189v68h199q53 262 240 399q187 136 446 136q170 0 448 -55l37 -498h-16
q-124 194 -249 339q-125 146 -197 146q-37 0 -73 -39t-72 -150q-37 -113 -50 -277h495l-12 -68h-487q-4 -76 -4 -141v-4h434l-12 -68h-422q4 -160 24 -280q20 -123 49 -188q30 -68 61 -100q31 -33 65 -33z" />
    <glyph glyph-name="trademark" unicode="&#x2122;" horiz-adv-x="1730" 
d="M707 1464l18 -256h-8q-33 77 -85 136q-53 61 -118 74v-561q0 -51 9 -69q9 -19 48 -47v-8h-374v8q30 19 41 37q13 20 14 33q2 18 2 48v561q-127 -25 -205 -210h-8l18 254h648zM1694 1454l-2 2q-40 -27 -49 -46q-9 -20 -9 -69v-483q0 -50 9 -69q8 -18 50 -46v-8h-373v8
q39 27 47 47q8 21 8 69v402h-2q-168 -349 -213 -463h-33q-39 83 -78 155q-53 97 -94 171q-41 72 -73 132v-272q0 -113 14 -157q13 -42 80 -87v-8h-234v8q68 47 83 87q15 41 15 156v350q-37 76 -97 121v8h326q157 -295 184 -354l177 354h264v-8z" />
    <glyph glyph-name="oneeighth" unicode="&#x215b;" horiz-adv-x="1722" 
d="M63 614l-2 12q50 29 62 53t12 86v457q0 9 -2 23t-3 20q-1 8 -8 18q-2 3 -5 8t-4 6q-4 5 -15 14q-8 6 -16 14q-6 6 -21 17q-17 12 -24 18v8l373 133v-735q0 -62 12 -87t59 -54v-11h-418zM246 1l1007 1464h76l-1007 -1464h-76zM1309 -15l-4 -1q-137 0 -230 60t-93 161
q0 85 54 137t131 72q-151 90 -150 229q0 111 86 174q85 63 219 63q132 0 212 -55q81 -55 81 -133q0 -66 -58 -108q-57 -41 -120 -55q45 -25 66 -39q16 -10 64 -50q43 -36 64 -85t21 -111q0 -130 -102 -195q-101 -64 -241 -64zM1407 547l-1 2q43 65 43 151q0 58 -35 98
q-35 39 -86 39q-43 0 -67 -28q-24 -29 -24 -78q0 -59 42 -101t128 -83zM1304 31q52 0 86 29q33 28 33 81q0 60 -52 116q-54 58 -180 134q-41 -74 -41 -164q0 -94 42 -145t112 -51z" />
    <glyph glyph-name="threeeighths" unicode="&#x215c;" horiz-adv-x="1826" 
d="M37 1278v-3q57 98 146 155q88 57 194 57q97 0 156 -46q60 -47 60 -117q0 -80 -75 -138q-74 -58 -175 -85v-2q35 6 66 6q105 0 173 -61q69 -62 69 -174q0 -129 -96 -201t-246 -72q-127 0 -276 51l96 260l10 -2q67 -262 171 -262q46 0 75 56t29 138q0 90 -39 145t-111 55
q-50 0 -100 -22l-8 29q217 106 217 216q0 45 -34 75q-35 30 -87 30q-115 0 -199 -102zM352 -3l1008 1464h76l-1008 -1464h-76zM1415 -19l-1 -1q-137 0 -230 60t-93 161q0 84 53 137q52 52 131 72q-152 90 -152 229q0 111 86 174q85 63 219 63q132 0 212 -55q81 -55 81 -133
q0 -66 -58 -108q-57 -41 -120 -55q45 -25 66 -39q16 -10 64 -50q43 -36 64 -85t21 -111q0 -130 -102 -195q-101 -64 -241 -64zM1517 543l-1 2q43 65 43 151q0 58 -35 98q-34 39 -86 39q-43 0 -67 -28q-24 -29 -24 -78q0 -59 42 -101t128 -83zM1413 27q52 0 86 29
q33 28 33 81q0 60 -52 116q-54 58 -180 134q-41 -74 -41 -164q0 -94 42 -145t112 -51z" />
    <glyph glyph-name="fiveeighths" unicode="&#x215d;" horiz-adv-x="1853" 
d="M322 1151l-4 -3q152 0 242 -72t90 -202q0 -83 -34 -141q-35 -60 -91 -86q-57 -27 -111 -39t-109 -12q-117 0 -278 51l67 312h10q90 -324 195 -324q43 0 73 57t30 136q0 107 -50 155t-129 48q-87 0 -155 -43l129 488h317q60 0 87 10q28 10 67 42l8 -2l-92 -258h-396
l-34 -140q69 23 168 23zM375 -3l1007 1464h76l-1007 -1464h-76zM1438 -19l-3 -1q-137 0 -230 60t-93 161q0 85 54 137t132 72q-152 90 -152 229q0 111 86 174t219 63q132 0 212 -55q81 -55 81 -133q0 -66 -58 -108q-57 -41 -120 -55q45 -25 66 -39q16 -10 64 -50
q43 -36 64 -85t21 -111q0 -130 -102 -195q-101 -64 -241 -64zM1537 543l-1 2q43 65 43 151q0 60 -34 98q-35 39 -87 39q-43 0 -67 -28q-24 -29 -24 -78q0 -59 42 -101t128 -83zM1434 27q52 0 86 29q33 28 33 81q0 60 -52 116q-54 58 -180 134q-41 -74 -41 -164
q0 -94 42 -145t112 -51z" />
    <glyph glyph-name="seveneighths" unicode="&#x215e;" horiz-adv-x="1695" 
d="M127 614l3 -1q57 307 342 630h-291q-59 0 -87 -15t-72 -60l-10 2l84 306h570v-37q-49 -50 -88 -106q-32 -45 -67 -99q-28 -42 -52 -109l-36 -99q-12 -33 -27 -108t-18 -96t-15 -108q-10 -70 -13 -100h-223zM224 -1l1008 1464h76l-1008 -1464h-76zM1287 -17l-1 -1
q-137 0 -230 60t-93 161q0 84 53 137q52 52 131 72q-152 90 -152 229q0 111 86 174q85 63 219 63q132 0 212 -55q81 -55 81 -133q0 -66 -58 -108q-57 -41 -120 -55q45 -25 66 -39q16 -10 64 -50q43 -36 64 -85t21 -111q0 -130 -102 -195q-101 -64 -241 -64zM1388 545l-3 2
q44 66 45 151q0 58 -35 98q-35 39 -86 39q-43 0 -67 -28q-24 -29 -24 -78q0 -59 42 -101q42 -43 128 -83zM1283 29q52 0 86 29q33 28 33 81q0 60 -52 116q-54 58 -180 134q-41 -74 -41 -164q0 -94 42 -145t112 -51z" />
    <glyph glyph-name="arrowleft" unicode="&#x2190;" horiz-adv-x="1157" 
d="M1106 588v-87h-825q117 -52 236 -141q120 -90 192 -180l-248 -139q-131 323 -408 504q276 179 408 502l248 -140q-72 -92 -193 -179q-125 -90 -240 -140h830zM125 546q8 0 16 -2v4q-8 -2 -16 -2z" />
    <glyph glyph-name="arrowup" unicode="&#x2191;" horiz-adv-x="1107" 
d="M557 1065l1 -1q180 -279 502 -406l-139 -247q-90 71 -180 192t-141 237v-828h-88v828q-50 -114 -140 -238q-87 -119 -179 -190l-140 247q323 128 504 406zM556 976h4q-2 8 -2 16q0 -8 -2 -16z" />
    <glyph glyph-name="arrowright" unicode="&#x2192;" horiz-adv-x="1157" 
d="M700 1047l1 -2q131 -325 405 -501q-274 -180 -406 -504l-247 139q70 89 191 180q120 90 237 141h-828v88h830q-118 53 -239 141q-124 90 -191 178zM1021 541q6 2 15 2q-9 0 -15 2v-4z" />
    <glyph glyph-name="arrowdown" unicode="&#x2193;" horiz-adv-x="1107" 
d="M920 666l138 -248q-322 -127 -502 -406q-181 278 -504 406l140 248q91 -71 179 -192q90 -123 140 -237v827h88v-827q51 115 141 237t180 192z" />
    <glyph glyph-name="uni2196" unicode="&#x2196;" horiz-adv-x="948" 
d="M899 217l-63 -63l-586 587q84 -219 84 -440q0 -47 -6 -90l-275 78q92 214 92 422q0 118 -22 219q106 -23 219 -23q208 0 422 90l78 -272q-44 -6 -90 -6q-220 0 -441 84z" />
    <glyph glyph-name="uni2197" unicode="&#x2197;" horiz-adv-x="948" 
d="M829 932l1 1q-26 -113 -24 -219q0 -198 92 -423l-274 -78q-4 27 -6 86q0 226 82 442l-583 -583l-64 61l584 586q-219 -84 -436 -84q-47 0 -90 6l75 274q219 -92 424 -92q113 0 219 23zM767 873l2 -2l10 13z" />
    <glyph glyph-name="uni2198" unicode="&#x2198;" horiz-adv-x="948" 
d="M897 803l-1 1q-92 -225 -92 -423q0 -104 24 -221q-116 26 -219 24q-199 0 -424 -92l-75 273q44 6 93 6q224 0 436 -82l-586 583l64 64l583 -584q-82 212 -82 434q0 52 7 93zM765 222l12 -10l-10 12z" />
    <glyph glyph-name="uni2199" unicode="&#x2199;" horiz-adv-x="948" 
d="M313 289q219 84 439 84q46 0 90 -6l-78 -275q-210 92 -417 92q-106 0 -223 -24q22 104 21 219q0 205 -92 424l275 78q6 -43 6 -90q0 -221 -84 -441l586 586l63 -62zM184 223l-10 -12l12 10z" />
    <glyph glyph-name="minus" unicode="&#x2212;" horiz-adv-x="774" 
d="M752 737v-78h-727v78h727z" />
    <glyph glyph-name="glyph1" horiz-adv-x="0" 
 />
    <glyph glyph-name="glyph2" horiz-adv-x="681" 
 />
    <glyph glyph-name="J.aalt" horiz-adv-x="786" 
d="M301 1530l-18 2q0 56 1 98t1 87q0 57 -4 141h421q-154 -132 -401 -328zM25 -264l-7 17q140 89 141 261v1202q0 110 -21 147t-105 88v16h739v-16q-84 -51 -105 -88t-21 -147v-897q1 -244 -154.5 -390t-466.5 -193z" />
    <glyph glyph-name="R.aalt" horiz-adv-x="1624" 
d="M1425 244l-2 1q62 -109 191 -228v-16h-594q-175 325 -328 680l-55 -4v-426q0 -107 21 -144t105 -90v-16h-741v16q84 51 105 89t21 144v964q0 110 -21 147t-105 88v16h778q280 0 446 -97q167 -98 167 -271q0 -168 -147 -276t-360 -108h-98v-4q112 -76 311 -76q70 0 111 10
q86 -203 195 -399zM637 1392l-1 -637h82q100 0 157 96t57 240q0 301 -260 301h-35z" />
    <glyph glyph-name="i.aalt" horiz-adv-x="638" 
d="M303 1104l-2 -1q-88 0 -150 59q-61 58 -61 138t62 137t150 57q86 0 147 -57q62 -57 62 -137t-61 -138t-147 -58zM6 -1l-2 15q58 44 74 81q17 39 17 143v395q0 99 -10 146q-11 50 -24 71q-12 19 -54 67v16q275 18 535 96v-790q0 -102 17 -142q16 -38 72 -82v-16h-625z" />
    <glyph glyph-name="j.aalt" horiz-adv-x="645" 
d="M205 1137h-19q0 56 1 98t1 88q0 57 -4 141h422q-161 -136 -401 -327zM-66 -432l-8 20q100 52 141 135q41 84 41 234v678q0 137 -15 179q-16 44 -70 104v16q278 18 532 96v-807q0 -134 -37 -241t-96 -178q-59 -72 -141 -122q-84 -52 -167 -77q-81 -25 -180 -37z" />
    <glyph glyph-name="glyph372" horiz-adv-x="1630" 
d="M1075 -29h-5q-186 0 -408 74l106 492h19q56 -202 130 -348q75 -148 147 -148q49 0 91 68q42 67 42 186q0 100 -35 181q-34 80 -93 123t-123 66q-65 23 -136 27l-82 125l348 518q-95 80 -219 80q-92 0 -155 -54t-63 -177v-1184h-614v16q84 51 105 89q21 37 21 144v532
q0 711 659 711q182 0 321 -48q141 -48 216 -112v-20l-277 -363q88 -13 169 -48q82 -35 158 -93q77 -59 123 -157t46 -222q0 -208 -128 -333t-363 -125z" />
    <glyph glyph-name="a.salt" horiz-adv-x="1280" 
d="M442 -20l-4 -1q-69 0 -136 26q-64 25 -127 80q-61 54 -99 159q-38 106 -38 246q0 271 130 404q131 134 330 134q82 0 150 -24q67 -24 103 -54q35 -29 77 -54q40 -24 74 -24q81 0 248 154h39v-788q0 -62 18 -94q18 -31 69 -64v-17l-524 -86l-2 175h-2q-34 -68 -117 -120
q-82 -52 -189 -52zM629 140q53 0 110 80v459q-53 254 -137 254q-100 0 -100 -367q0 -426 127 -426z" />
    <glyph glyph-name="glyph374" horiz-adv-x="1280" 
d="M557 1120h-18q0 56 1 98t1 89q0 57 -4 141h421q-154 -132 -401 -328zM442 -20l-4 -1q-69 0 -136 26q-64 25 -127 80q-61 54 -99 159q-38 106 -38 246q0 271 130 404q131 134 330 134q82 0 150 -24q67 -24 103 -54q35 -29 77 -54q40 -24 74 -24q81 0 248 154h39v-788
q0 -62 18 -94q18 -31 69 -64v-17l-524 -86l-2 175h-2q-34 -68 -117 -120q-82 -52 -189 -52zM629 140q53 0 110 80v459q-53 254 -137 254q-100 0 -100 -367q0 -426 127 -426z" />
    <glyph glyph-name="glyph375" horiz-adv-x="1280" 
d="M944 1468h15q-13 -182 -81 -276q-67 -94 -207 -94q-137 0 -204 94t-84 276h18q31 -82 111 -127t162 -45t162 45t108 127zM438 -20l-4 -1q-69 0 -136 26q-64 25 -127 80q-61 54 -99 159q-38 106 -38 246q0 271 130 404q131 134 330 134q82 0 150 -24q67 -24 103 -54
q35 -29 77 -54q40 -24 74 -24q81 0 248 154h39v-788q0 -62 18 -94q18 -31 69 -64v-17l-524 -86l-2 175h-2q-34 -68 -117 -120q-82 -52 -189 -52zM625 140q53 0 110 80v459q-53 254 -137 254q-100 0 -100 -367q0 -426 127 -426z" />
    <glyph glyph-name="glyph376" horiz-adv-x="1280" 
d="M395 1116l-11 10q36 44 108 143q68 95 170 218h24q158 -225 275 -361l-7 -10l-280 127zM441 -20l-4 -1q-69 0 -136 26q-64 25 -127 80q-62 54 -99 159q-38 106 -38 246q0 271 130 404q131 134 330 134q83 0 150 -24t103 -54q35 -29 77 -54q41 -24 74 -24q81 0 248 154h39
v-788q0 -62 18 -94q18 -31 69 -64v-17l-524 -86l-2 175h-2q-35 -68 -117 -120t-189 -52zM628 140q53 0 110 80v459q-53 254 -137 254q-100 0 -100 -367q0 -426 127 -426z" />
    <glyph glyph-name="glyph377" horiz-adv-x="1280" 
d="M471 1106q-73 0 -125 54q-53 55 -53 126q0 70 54 124t124 54q71 0 126 -53q54 -52 54 -125q0 -72 -54 -126t-126 -54zM878 1106q-72 0 -126 54t-54 126q0 70 54 124t126 54t126 -54t54 -124q0 -72 -54 -126t-126 -54zM441 -20l-4 -1q-69 0 -136 26q-64 25 -127 80
q-62 54 -99 159q-38 106 -38 246q0 271 130 404q131 134 330 134q83 0 150 -24t103 -54q35 -29 77 -54q41 -24 74 -24q81 0 248 154h39v-788q0 -62 18 -94q18 -31 69 -64v-17l-524 -86l-2 175h-2q-35 -68 -117 -120t-189 -52zM628 140q53 0 110 80v459q-53 254 -137 254
q-100 0 -100 -367q0 -426 127 -426z" />
    <glyph glyph-name="glyph378" horiz-adv-x="1280" 
d="M809 1120h-1q-234 184 -402 328h421q-2 -62 -2 -135q0 -99 2 -193h-18zM441 -20l-4 -1q-69 0 -136 26q-64 25 -127 80q-62 54 -99 159q-38 106 -38 246q0 271 130 404q131 134 330 134q83 0 150 -24t103 -54q35 -29 77 -54q41 -24 74 -24q81 0 248 154h39v-788
q0 -62 18 -94q18 -31 69 -64v-17l-524 -86l-2 175h-2q-35 -68 -117 -120t-189 -52zM628 140q53 0 110 80v459q-53 254 -137 254q-100 0 -100 -367q0 -426 127 -426z" />
    <glyph glyph-name="glyph379" horiz-adv-x="1280" 
d="M983 1341v-200h-600v200h600zM442 -20l-4 -1q-69 0 -136 26q-64 25 -127 80q-61 54 -99 159q-38 106 -38 246q0 271 130 404q131 134 330 134q82 0 150 -24q67 -24 103 -54q35 -29 77 -54q40 -24 74 -24q81 0 248 154h39v-788q0 -62 18 -94q18 -31 69 -64v-17l-524 -86
l-2 175h-2q-34 -68 -117 -120q-82 -52 -189 -52zM629 140q53 0 110 80v459q-53 254 -137 254q-100 0 -100 -367q0 -426 127 -426z" />
    <glyph glyph-name="glyph380" horiz-adv-x="1280" 
d="M1114 25l-6 -4q-46 -29 -87 -90q-40 -61 -40 -114q0 -41 24 -62t59 -21q64 0 117 49l14 -10q-35 -81 -115 -125q-81 -45 -169 -45q-84 0 -135 42t-51 107q0 88 93 154q91 65 257 124l-327 -54l-2 175h-2q-34 -67 -117 -120q-82 -52 -189 -52q-69 0 -136 26
q-64 25 -127 80q-61 54 -99 159q-38 106 -38 246q0 271 130 404q131 134 330 134q82 0 150 -24q67 -24 103 -54q35 -29 77 -54q40 -24 74 -24q81 0 248 154h39v-788q0 -62 18 -94q18 -31 69 -64v-17l-162 -26v-12zM737 217v459q-53 254 -137 254q-100 0 -100 -367
q0 -426 127 -426q53 0 110 80z" />
    <glyph glyph-name="glyph381" horiz-adv-x="1280" 
d="M674 1075v-2q-84 0 -141 59q-57 58 -57 141q0 82 57 139t141 57q82 0 138 -56t56 -140q0 -83 -56 -141q-56 -57 -138 -57zM682 1139q47 0 74 40q27 41 27 91q0 56 -33 97q-33 40 -80 40t-77 -39t-30 -92t36 -95t83 -42zM442 -22l-4 -1q-69 0 -136 26q-64 25 -127 80
q-61 54 -99 159q-38 106 -38 246q0 271 130 404q131 134 330 134q82 0 150 -24q67 -24 103 -54q35 -29 77 -54q40 -24 74 -24q81 0 248 154h39v-788q0 -62 18 -94q18 -31 69 -64v-17l-524 -86l-2 175h-2q-34 -68 -117 -120q-82 -52 -189 -52zM629 138q53 0 110 80v459
q-53 254 -137 254q-100 0 -100 -367q0 -426 127 -426z" />
    <glyph glyph-name="glyph382" horiz-adv-x="1280" 
d="M555 1495h-18q0 59 1 101t1 86q0 57 -4 141h421q-154 -132 -401 -328zM674 1075v-2q-84 0 -141 59q-57 58 -57 141q0 82 57 139t141 57q82 0 138 -56t56 -140q0 -83 -56 -141q-56 -57 -138 -57zM682 1139q47 0 74 40q27 41 27 91q0 56 -33 97q-33 40 -80 40t-77 -39
t-30 -92t36 -95t83 -42zM442 -22l-4 -1q-69 0 -136 26q-64 25 -127 80q-61 54 -99 159q-38 106 -38 246q0 271 130 404q131 134 330 134q82 0 150 -24q67 -24 103 -54q35 -29 77 -54q40 -24 74 -24q81 0 248 154h39v-788q0 -62 18 -94q18 -31 69 -64v-17l-524 -86l-2 175h-2
q-34 -68 -117 -120q-82 -52 -189 -52zM629 138q53 0 110 80v459q-53 254 -137 254q-100 0 -100 -367q0 -426 127 -426z" />
    <glyph glyph-name="glyph383" horiz-adv-x="1280" 
d="M1026 1401l20 -5q-45 -262 -252 -262q-69 0 -153 28q-122 39 -166 39q-56 0 -123 -59l-20 6q50 264 261 264q54 0 147 -31q122 -39 147 -39q49 0 74 11t65 48zM439 -21l-4 -1q-69 0 -136 26q-64 25 -127 80q-62 54 -99 159q-38 106 -38 246q0 271 130 404
q131 134 330 134q83 0 150 -24t103 -54q35 -29 77 -54q41 -24 74 -24q81 0 248 154h39v-788q0 -63 18 -94t69 -64v-17l-524 -86l-2 175h-2q-35 -67 -117 -120q-82 -52 -189 -52zM626 139q53 0 110 80v459q-53 254 -137 254q-100 0 -100 -367q0 -426 127 -426z" />
    <glyph glyph-name="zero.zero" horiz-adv-x="1335" 
d="M667 1464h-2q112 0 217 -46q106 -46 198 -135q91 -88 147 -236t56 -332q0 -183 -56 -331t-148 -234q-93 -87 -199 -132t-214 -45q-110 0 -217 45q-106 45 -198 131q-90 84 -148 233q-57 147 -57 332q0 181 56 329q56 147 147 237q93 91 199 137q109 47 219 47zM665 1395
h-2q-170 0 -170 -676v-96q46 50 108 113q71 72 126 132t99 117q-30 410 -161 410zM665 43h1q53 0 89 62q36 61 57 221q21 159 21 419q0 69 -2 123q-72 -77 -157 -167q-117 -123 -177 -197q26 -461 168 -461z" />
    <glyph glyph-name="zero.superior" horiz-adv-x="851" 
d="M426 885l-2 1q-146 0 -261 114q-116 114 -116 329q0 213 116 332t261 119q146 0 261 -118t115 -330q0 -219 -116 -333t-258 -114zM424 929q96 0 96 399q0 410 -96 410t-96 -404q0 -405 96 -405z" />
    <glyph glyph-name="one.superior" horiz-adv-x="499" 
d="M63 901l-2 11q50 29 62 53t12 86v458q0 8 -2 24q-1 11 -3 19q-1 7 -8 17q-2 3 -5 8t-4 6q-4 6 -15 14q-8 6 -16 14q-3 3 -21 16t-24 19v8l373 133v-735q0 -62 12 -87t59 -54v-10h-418z" />
    <glyph glyph-name="two.superior" horiz-adv-x="643" 
d="M459 1114q56 0 86 15t77 59l8 -4l-88 -283h-541v35q187 196 264 315q76 118 76 216q0 77 -38 118q-37 40 -93 40q-85 0 -176 -88l-23 12q157 229 324 231q96 0 168 -63t72 -175q0 -73 -31 -138q-31 -66 -91 -118q-63 -55 -106 -87q-45 -33 -109 -73l-21 -12h242z" />
    <glyph glyph-name="three.superior" horiz-adv-x="698" 
d="M37 1565v-3q57 98 146 155q88 57 194 57q97 0 156 -46q60 -46 60 -117q0 -79 -75 -138t-175 -84v-2q35 6 66 6q105 0 173 -61q69 -62 69 -174q0 -129 -96 -201t-246 -72q-127 0 -276 51l96 260l10 -2q67 -262 171 -262q47 0 75 55q29 56 29 138q0 91 -39 146
q-39 56 -111 56q-50 0 -100 -22l-8 28q217 106 217 216q0 46 -35 75t-86 29q-115 0 -199 -103z" />
    <glyph glyph-name="four.superior" horiz-adv-x="768" 
d="M737 1151l-101 1v-100q0 -60 11 -84q11 -23 63 -56v-10h-392v10q47 29 59 53t12 86v100h-369v10l586 615h29v-547h115zM142 1230h248v254z" />
    <glyph glyph-name="five.superior" horiz-adv-x="724" 
d="M322 1438l-4 2q152 0 242 -72t90 -203q0 -83 -34 -141q-35 -59 -91 -87q-55 -28 -111 -40q-54 -12 -109 -12q-117 0 -278 51l67 311h10q45 -162 94 -243t101 -80q43 0 73 56t30 138q0 104 -50 152t-129 48q-87 0 -155 -43l129 487h317q57 0 87 11q28 10 67 42l8 -3
l-92 -258h-396l-34 -139q69 23 168 23z" />
    <glyph glyph-name="six.superior" horiz-adv-x="798" 
d="M479 1389h-1q104 0 186 -57q83 -57 83 -180q0 -129 -100 -198q-101 -69 -255 -69q-173 0 -259 92q-85 91 -85 243q0 229 182 388t423 174l4 -19q-293 -119 -350 -432q76 58 172 58zM402 924v-1q44 0 70 51q25 50 25 125q0 89 -35 150q-34 60 -93 60q-37 0 -69 -27
q-4 -47 -4 -86q0 -272 106 -272z" />
    <glyph glyph-name="seven.superior" horiz-adv-x="669" 
d="M127 901l3 1q57 308 342 630h-291q-59 0 -87 -15t-72 -60l-10 2l84 305h570v-37q-49 -50 -88 -106q-32 -45 -67 -99q-28 -42 -52 -109l-36 -99q-12 -34 -27 -109q-15 -78 -18 -97q-3 -21 -15 -108q-7 -48 -13 -99h-223z" />
    <glyph glyph-name="eight.superior" horiz-adv-x="765" 
d="M373 885l-3 2q-137 0 -230 60t-93 164q0 79 54 132q54 52 134 72q-154 90 -154 231q0 109 85 172q86 63 220 63q132 0 212 -55q81 -56 81 -133q0 -66 -58 -108q-59 -42 -120 -54q48 -27 66 -40q17 -12 64 -51q43 -36 64 -85t21 -111q0 -130 -102 -195q-101 -64 -241 -64z
M474 1450v2q43 71 43 151q0 60 -34 98q-35 39 -87 39q-44 0 -69 -28t-25 -78q0 -59 42 -101q43 -43 130 -83zM370 934q52 0 86 29q33 29 33 81q0 60 -52 116q-54 58 -180 134q-41 -84 -41 -166q0 -94 42 -144t112 -50z" />
    <glyph glyph-name="nine.superior" horiz-adv-x="755" 
d="M381 1780v3q175 0 261 -93q85 -92 85 -244q0 -230 -181 -390t-423 -172l-2 18q292 117 350 432q-77 -57 -174 -57q-103 0 -185 57q-83 57 -83 177q0 131 100 200q101 69 252 69zM410 1359h-1q36 0 67 26q4 47 4 86q0 272 -106 273q-44 0 -70 -51q-25 -50 -25 -126
q0 -87 35 -148q34 -60 96 -60z" />
    <glyph glyph-name="zero.superior.zero" horiz-adv-x="808" 
d="M405 1780l-1 1q146 0 260 -118q114 -119 114 -330q0 -219 -115 -333t-258 -114q-145 0 -261 114t-116 329q0 213 116 332t261 119zM404 1738l-2 1q-95 0 -97 -404v-39q34 34 62 63q34 35 72 77q27 29 55 66q-17 236 -90 236zM399 930q97 0 99 405v70q-18 -20 -84 -89
q-77 -80 -107 -118q13 -268 92 -268z" />
    <glyph glyph-name="zero.oldstyle" horiz-adv-x="1103" 
d="M555 -25h-2q-223 0 -369 152q-145 151 -145 366q0 218 146 375q145 156 369 156q221 0 365 -156t144 -375q0 -215 -142 -366q-143 -152 -366 -152zM551 41l-1 -1q173 0 304 122q130 121 130 330q0 212 -128 338t-303 126q-178 0 -307 -126t-129 -337q0 -209 130 -330
q131 -122 304 -122z" />
    <glyph glyph-name="one.oldstyle" horiz-adv-x="712" 
d="M621 240l-2 1q0 -104 16 -142t72 -82v-16h-609v16q58 44 74 82q17 40 17 142v403q0 92 -30 129t-134 75v14l596 168v-790z" />
    <glyph glyph-name="two.oldstyle" horiz-adv-x="1075" 
d="M782 315h-3q32 0 65 5q30 4 48 9q19 5 41 15q18 8 33 17q3 2 34 23q11 7 34 24l15 -7l-43 -123l-99 -276h-876v66q311 244 418 351q105 105 105 210q0 84 -54 132t-140 48q-112 0 -254 -105l-49 19q246 305 510 305q145 0 253 -78t108 -217q0 -67 -30 -126t-73 -99
t-112 -79t-129 -63q-62 -25 -142 -51h340z" />
    <glyph glyph-name="three.oldstyle" horiz-adv-x="1021" 
d="M33 698l-3 -2q91 153 230 241q138 87 300 87q152 0 246 -70t94 -181q0 -123 -114 -212t-274 -132v-2q46 8 94 8q166 0 276 -93t110 -267q0 -203 -153 -317t-385 -114q-204 0 -435 82l148 397l20 -2q109 -406 271 -406q76 0 124 85q48 86 48 214q0 140 -60 227t-177 87
q-75 0 -160 -35l-12 43q344 164 344 338q0 72 -54 116q-55 44 -134 44q-72 0 -159 -37q-89 -38 -161 -123z" />
    <glyph glyph-name="four.oldstyle" horiz-adv-x="1206" 
d="M1159 55l-167 -2v-155q0 -98 18 -132t101 -84v-17h-614v17q83 50 102 85t19 133v155h-585v15l915 952h45v-848h185zM218 172h399v399z" />
    <glyph glyph-name="five.oldstyle" horiz-adv-x="1064" 
d="M473 494l-2 -3q241 0 384 -110q142 -109 142 -314q0 -125 -54 -216q-54 -92 -142 -135q-89 -44 -174 -63q-83 -19 -171 -19q-186 0 -438 80l105 475h16q55 -201 135 -348q79 -147 170 -147q73 0 122 88q50 89 50 217q0 151 -75 230q-75 80 -214 80q-138 0 -247 -65
l199 753h499q88 0 135 15q45 15 108 65l12 -4l-141 -397h-619l-61 -219q105 37 261 37z" />
    <glyph glyph-name="six.oldstyle" horiz-adv-x="1232" 
d="M748 811l-1 -1q78 0 153 -21t142 -64q68 -43 108 -123q41 -80 41 -183q0 -217 -164 -333t-416 -116q-286 0 -429 152q-142 151 -142 405t144 467t369 333t483 138l4 -32q-242 -96 -390 -283t-193 -435q123 96 291 96zM622 34h-1q78 0 123 85t45 216q0 146 -57 245
t-164 99q-73 0 -125 -49q-6 -62 -6 -133q0 -221 48 -342t137 -121z" />
    <glyph glyph-name="seven.oldstyle" horiz-adv-x="1026" 
d="M195 -338q94 481 543 979h-458q-91 0 -139 -21q-46 -20 -115 -95l-17 4l131 469h895v-57q-63 -65 -114 -130q-51 -66 -91 -124q-37 -55 -73 -132q-15 -33 -57 -125q-22 -50 -45 -132q-8 -28 -19 -70t-15 -56q-12 -44 -27 -132q-20 -118 -21 -124q-6 -34 -18 -131
q-14 -111 -16 -123h-344z" />
    <glyph glyph-name="eight.oldstyle" horiz-adv-x="1155" 
d="M565 -29l1 -3q-223 0 -373 99t-150 273q0 133 89 220q88 87 216 114q-252 146 -252 378q0 180 140 281t354 101q208 0 339 -90q130 -90 130 -215q0 -110 -94 -180q-95 -71 -195 -93q62 -32 108 -62q42 -27 105 -84q62 -56 97 -137q34 -78 34 -177q0 -110 -46 -193
q-47 -85 -126 -134q-81 -51 -175 -74q-96 -24 -202 -24zM726 884l-1 -2q80 122 80 250q0 101 -58 166q-59 66 -144 66q-71 0 -115 -47q-43 -46 -43 -129q0 -98 68 -164q69 -67 213 -140zM565 38l-2 -1q91 0 146 51q56 51 56 139q0 100 -86 192q-85 91 -293 219
q-78 -123 -78 -274q0 -156 72 -241t185 -85z" />
    <glyph glyph-name="nine.oldstyle" horiz-adv-x="1177" 
d="M592 1028l-2 -6q274 0 409 -141t135 -372q0 -240 -136 -439q-137 -200 -351 -311q-216 -112 -459 -125l-6 28q229 88 370 264q140 175 184 408q-115 -88 -274 -88q-72 0 -144 20q-70 20 -135 60q-64 40 -103 115t-39 171q0 202 156 309q157 107 395 107zM631 365v1
q67 0 117 45q6 55 6 126q0 206 -44 318q-44 111 -128 111q-74 0 -117 -81q-43 -80 -43 -198q0 -133 54 -228q54 -94 155 -94z" />
    <glyph glyph-name="zero.tnum" 
d="M610 -29l-1 3q-102 0 -201 45t-186 132q-88 87 -140 233q-53 147 -53 330q0 180 53 330q53 149 138 239q86 90 188 137q103 47 204 47t203 -47q101 -47 188 -135q88 -89 140 -237q53 -150 53 -333q0 -185 -54 -334t-142 -234q-89 -86 -189 -131q-101 -45 -201 -45z
M609 46l-2 -1q139 0 141 672q0 682 -140 682q-133 0 -133 -682q0 -243 17 -398q17 -151 45 -212t72 -61z" />
    <glyph glyph-name="one.tnum" 
d="M305 0l-1 17q86 51 105 91q20 42 20 144v774q0 74 -30 111q-31 38 -118 99q-3 2 -9.5 6t-9.5 6v13l604 217v-1227q0 -100 20 -142q20 -41 105 -93v-16h-686z" />
    <glyph glyph-name="two.tnum" 
d="M831 342l1 -3q94 0 147 27t126 99l16 -4l-143 -463h-899v57q310 323 441 527q130 202 130 369q0 129 -63 198t-157 69q-138 0 -295 -152l-37 20q116 172 242 276q125 104 288 104t282 -103q120 -103 120 -288q0 -54 -11 -111q-11 -54 -39 -105q-42 -75 -52 -92
q-25 -42 -73 -90l-78 -78q-29 -29 -90 -75q-52 -39 -87 -64q-40 -28 -91 -63q-67 -46 -79 -55h401z" />
    <glyph glyph-name="three.tnum" 
d="M113 1114h-1q97 161 245 255q147 93 315 93q156 0 255 -75t99 -194q0 -133 -120 -229q-119 -95 -290 -142v-2q50 8 96 8q178 0 293 -101q114 -101 114 -285q0 -219 -159 -342t-406 -123q-214 0 -455 86l154 420l20 -4q113 -428 285 -428q80 0 131 92q51 91 51 231
q0 150 -63 244t-185 94q-78 0 -170 -39l-13 49q362 179 363 364q0 80 -57 128t-141 48q-75 0 -165 -40q-91 -40 -168 -132z" />
    <glyph glyph-name="four.tnum" 
d="M1192 416h-175v-166q0 -100 20 -142q19 -40 108 -93v-16h-645v16q86 51 105 91q20 42 20 144v166h-615v20l961 1022h47v-913h194zM204 545h420v444z" />
    <glyph glyph-name="five.tnum" 
d="M551 895q258 0 407 -118q150 -119 150 -337q0 -110 -40 -193q-41 -85 -100 -135q-60 -51 -139 -84q-80 -33 -151 -45q-72 -12 -141 -12q-195 0 -459 86l110 500h15q25 -88 59 -180q30 -82 74 -165q43 -82 91 -128q49 -48 100 -48q76 0 130 94t54 234q0 175 -85 257
q-86 83 -222 83q-146 0 -261 -76l209 809h522q92 0 140 18t116 71l15 -4l-152 -420h-651l-61 -244q108 37 270 37z" />
    <glyph glyph-name="six.tnum" 
d="M741 813l-2 -5q78 0 153 -21q77 -22 143 -64q68 -44 108 -124q41 -82 41 -185q0 -214 -165 -330q-166 -116 -415 -116q-289 0 -430 152t-141 402q0 256 144 471t369 336q224 121 483 139l4 -32q-241 -96 -390 -285q-148 -188 -193 -436q119 98 291 98zM614 30v-1
q78 0 123 86q45 85 45 215q0 146 -57 246q-57 101 -164 101q-73 0 -125 -49q-6 -63 -6 -135q0 -218 47 -341q47 -122 137 -122z" />
    <glyph glyph-name="seven.tnum" 
d="M270 0v-3q97 523 572 1062h-484q-103 0 -150 -25q-49 -26 -116 -99l-16 4l135 496h942v-58q-58 -62 -118 -140q-55 -72 -96 -132q-41 -61 -78 -142q-45 -99 -61 -133q-24 -52 -48 -142q-22 -85 -36 -133q-11 -39 -28 -142q-16 -98 -21 -134q-4 -28 -18 -143
q-13 -108 -18 -136h-361z" />
    <glyph glyph-name="eight.tnum" 
d="M596 -29v2q-226 0 -381 102q-154 102 -154 278q0 139 93 228q93 88 218 114q-256 147 -256 383q0 186 141 288t363 102q212 0 346 -92q133 -91 133 -219q0 -111 -96 -183q-95 -71 -198 -94q165 -92 233 -168q119 -130 119 -303q0 -151 -85 -252q-86 -102 -207 -144
t-269 -42zM762 909v-1q80 124 80 254q0 104 -60 170t-148 66q-74 0 -117 -48q-43 -47 -43 -129q0 -100 69 -169q70 -70 219 -143zM598 46q90 0 147 51t57 142q0 102 -87 195q-88 94 -300 224q-78 -135 -78 -280q0 -160 72 -246t189 -86z" />
    <glyph glyph-name="nine.tnum" 
d="M616 1466l-2 1q286 0 428 -153q143 -154 143 -405q0 -193 -84 -364q-84 -170 -222 -292q-136 -120 -317 -196q-177 -74 -369 -88l-7 31q241 96 390 284t194 435q-123 -96 -289 -96q-174 0 -310 97t-136 297q0 215 165 332t416 117zM655 757v2q73 0 125 49q6 62 6 135
q0 221 -48 342q-48 122 -136 122q-78 0 -123 -87t-45 -214q0 -145 57 -247t164 -102z" />
    <glyph glyph-name="zero.tnum.zero" 
d="M612 1466l-1 3q101 0 203 -47q101 -47 188 -135q88 -89 140 -237q53 -150 53 -333q0 -185 -54 -334t-142 -234q-89 -86 -189 -131t-201 -45q-102 0 -201 45t-186 132q-88 87 -140 233q-53 147 -53 330q0 180 53 330q53 149 138 239q86 90 188 137q103 47 204 47z
M610 1400q-135 0 -135 -678v-60q251 268 268 289q-23 449 -133 449zM608 46l-1 -1q140 0 141 676q0 67 -2 119q-54 -58 -130 -138q-86 -90 -139 -150q14 -506 131 -506z" />
    <glyph glyph-name="zero.tnum.oldstyle" 
d="M612 -25l-2 -2q-223 0 -369 152q-145 151 -145 366q0 219 146 377t369 158q221 0 365 -157t144 -376q0 -215 -144 -366q-144 -152 -364 -152zM608 39h-1q173 0 304 122q130 121 130 330q0 211 -128 339t-303 128t-306 -128q-130 -127 -130 -339q0 -209 130 -330
q131 -122 304 -122z" />
    <glyph glyph-name="one.tnum.oldstyle" 
d="M874 240l-2 1q0 -102 17 -142q16 -38 72 -82v-16h-609v16q58 44 74 82q17 40 17 142v405q0 92 -30 129t-134 75v14l595 168v-792z" />
    <glyph glyph-name="two.tnum.oldstyle" 
d="M854 315l-4 -5q32 0 65 5q30 5 48 9q19 5 41 15q18 8 33 17q3 2 34 23q11 7 34 24l14 -7l-43 -123l-96 -276h-879v66q311 243 418 351q105 106 105 212q0 84 -54 132t-140 48q-111 0 -254 -104l-49 18q246 305 510 305q147 0 254 -78t107 -217q0 -84 -39 -151
q-39 -68 -118 -117q-79 -50 -150 -81q-72 -32 -175 -66h338z" />
    <glyph glyph-name="three.tnum.oldstyle" 
d="M137 700l-6 -1q91 153 233 241q141 87 301 87q150 0 244 -70t94 -181q0 -124 -115 -212q-117 -89 -276 -134v-2q46 8 96 8q166 0 276 -93t110 -267q0 -203 -151 -317t-387 -114q-202 0 -432 82l145 397l21 -2q109 -406 270 -406q76 0 124 85t48 214q0 140 -60 227
t-176 87q-75 0 -160 -35l-12 43q344 164 344 339q0 73 -55 116q-56 44 -133 44q-71 0 -157 -37q-87 -37 -159 -123z" />
    <glyph glyph-name="four.tnum.oldstyle" 
d="M1163 55l-166 -1v-155q0 -96 18 -132q18 -35 102 -85v-17h-614v17q84 50 102 85q18 36 18 133v155h-584v15l913 954h47v-850h183zM223 173h398v401z" />
    <glyph glyph-name="five.tnum.oldstyle" 
d="M557 494l-2 -2q241 0 384 -110q142 -109 142 -314q0 -103 -37 -181q-38 -80 -94 -126q-59 -48 -133 -77q-79 -31 -144 -41q-64 -10 -135 -10q-185 0 -437 80l103 475h16q56 -198 136 -345q81 -149 171 -149q72 0 121 88t49 217q0 163 -79 236q-80 74 -207 74
q-136 0 -248 -65l199 755h497q89 0 135 15q45 15 111 65l12 -4l-143 -397h-619l-59 -221q105 37 261 37z" />
    <glyph glyph-name="six.tnum.oldstyle" 
d="M741 813l-2 -5q78 0 153 -21q77 -22 143 -64q68 -44 108 -124q41 -82 41 -185q0 -214 -165 -330q-166 -116 -415 -116q-289 0 -430 152t-141 402q0 256 144 471t369 336q224 121 483 139l4 -32q-241 -96 -390 -285q-148 -188 -193 -436q119 98 291 98zM614 30v-1
q78 0 123 86q45 85 45 215q0 146 -57 246q-57 101 -164 101q-73 0 -125 -49q-6 -63 -6 -135q0 -218 47 -341q47 -122 137 -122z" />
    <glyph glyph-name="seven.tnum.oldstyle" 
d="M287 -338l-1 -2q94 482 543 981h-458q-89 0 -136 -22q-49 -23 -117 -94l-15 4l129 469h895v-57q-58 -59 -112 -131q-36 -48 -91 -123q-40 -55 -75 -132t-57 -126q-23 -50 -45 -133q-26 -96 -34 -124q-12 -40 -27 -132t-21 -123t-18 -131q-13 -106 -16 -124h-344z" />
    <glyph glyph-name="eight.tnum.oldstyle" 
d="M598 -29h-1q-223 0 -373 99t-150 273q0 133 88 220q89 88 217 116q-252 145 -252 378q0 180 140 281t354 101q209 0 339 -90t130 -214q0 -110 -94 -180q-94 -71 -195 -93q43 -26 57 -33q8 -4 60 -38q48 -31 68 -51q25 -25 57 -61q36 -41 54 -78t33 -90t15 -111
q0 -213 -161 -321q-160 -108 -386 -108zM757 889l-1 -2q80 119 80 248q0 103 -58 168q-58 66 -144 66q-70 0 -114 -47t-44 -129q0 -98 68 -164q69 -67 213 -140zM596 41l-2 -1q88 0 145 51t57 139q0 99 -86 193q-84 91 -293 220q-78 -125 -78 -276q0 -156 72 -241t185 -85z
" />
    <glyph glyph-name="nine.tnum.oldstyle" 
d="M612 1030l2 -3q275 0 410 -144t135 -376q0 -239 -136 -436q-137 -198 -351 -309q-216 -112 -459 -125l-6 28q229 88 370 264q140 175 184 408q-111 -90 -275 -90q-102 0 -193 33t-160 120t-69 214q0 202 156 309q157 107 392 107zM657 368v-2q67 0 117 45q6 55 6 126
q0 208 -45 320q-45 113 -127 113q-74 0 -117 -81q-43 -80 -43 -198q0 -133 54 -228t155 -95z" />
    <glyph glyph-name="zero.inferior" horiz-adv-x="808" 
d="M406 -303l-1 1q-145 0 -261 114t-116 329q0 213 116 332t261 119q146 0 260 -118t114 -330q0 -219 -115 -333q-116 -114 -258 -114zM402 -259q98 0 99 399q0 410 -99 410q-94 0 -94 -404q0 -405 94 -405z" />
    <glyph glyph-name="one.inferior" horiz-adv-x="499" 
d="M63 -287l-2 13q50 29 62 53t12 86v459q0 9 -2 23q-1 11 -3 18q-1 7 -8 17q-2 3 -5 8t-4 6q-4 6 -15 14q-8 6 -16 14q-6 6 -21 17q-17 12 -24 18v8l373 133v-735q0 -61 12 -87q12 -25 59 -54v-11h-418z" />
    <glyph glyph-name="two.inferior" horiz-adv-x="643" 
d="M459 -74v-2q56 0 86 15t77 59l8 -4l-88 -283h-541v35q188 197 263 315q77 121 77 219q0 77 -38 117q-37 39 -93 39q-85 0 -176 -88l-23 12q157 230 324 231q96 0 168 -63t72 -175q0 -74 -31 -137q-31 -64 -91 -118q-59 -53 -106 -88q-49 -36 -109 -72l-21 -12h242z" />
    <glyph glyph-name="three.inferior" horiz-adv-x="677" 
d="M37 377l2 -3q57 98 147 155t195 57q97 0 155 -47q57 -47 57 -117q0 -78 -75 -136q-75 -59 -175 -84v-2q35 6 66 6q105 0 173 -61q69 -61 69 -174q0 -129 -96 -201t-246 -72q-127 0 -276 51l96 260l10 -2q67 -262 171 -262q46 0 75 56t29 138q0 89 -39 145q-39 55 -111 55
q-50 0 -100 -22l-8 28q217 106 217 216q0 46 -35 75t-84 29q-117 0 -201 -103z" />
    <glyph glyph-name="four.inferior" horiz-adv-x="768" 
d="M737 -37l-101 -1v-100q0 -60 11 -84q11 -22 63 -54v-11h-392v11q47 29 59 53t12 86v100h-369v10l586 615h29v-547h115zM142 40h248v254z" />
    <glyph glyph-name="five.inferior" horiz-adv-x="704" 
d="M322 250l-4 2q152 0 242 -72t90 -203q0 -83 -34 -141q-35 -59 -91 -87q-55 -28 -111 -40q-54 -12 -109 -12q-117 0 -278 51l67 311h10q45 -162 94 -243t101 -80q43 0 73 56t30 138q0 104 -50 152t-129 48q-87 0 -155 -43l129 487h317q57 0 87 11q28 10 67 42l8 -2
l-92 -258h-396l-34 -140q69 23 168 23z" />
    <glyph glyph-name="six.inferior" horiz-adv-x="798" 
d="M479 201l-1 1q104 0 186 -57q83 -57 83 -180q0 -129 -100 -198q-101 -69 -255 -69q-173 0 -259 92q-85 91 -85 243q0 229 182 388q182 160 423 173l4 -19q-293 -119 -350 -432q76 58 172 58zM402 -263v-1q44 0 70 51q25 50 25 125q0 89 -35 150q-34 60 -93 60
q-37 0 -69 -27q-4 -47 -4 -86q0 -272 106 -272z" />
    <glyph glyph-name="seven.inferior" horiz-adv-x="669" 
d="M127 -287l3 -1q57 308 342 630h-291q-59 0 -87 -15t-72 -60l-10 2l84 305h570v-36q-49 -50 -88 -106q-32 -45 -67 -99q-28 -42 -52 -109l-36 -99q-12 -33 -27 -108t-18 -96t-15 -108q-10 -70 -13 -100h-223z" />
    <glyph glyph-name="eight.inferior" horiz-adv-x="722" 
d="M352 -303l-3 -1q-137 0 -230 60t-93 161q0 83 53 138q52 54 131 72q-152 90 -152 231q0 109 85 172t222 63q132 0 212 -55q81 -55 81 -133q0 -66 -58 -108t-120 -54q48 -27 66 -40q17 -12 64 -51q43 -36 64 -85t21 -111q0 -130 -102 -195q-101 -64 -241 -64zM452 259
l-1 -1q43 65 43 152q0 58 -35 98q-34 39 -86 39q-43 0 -67 -27t-24 -77q0 -59 42 -101q42 -43 128 -83zM348 -260v-2q52 0 86 29q33 29 33 83q0 60 -52 116q-53 57 -180 132q-41 -74 -41 -162q0 -94 42 -145t112 -51z" />
    <glyph glyph-name="nine.inferior" horiz-adv-x="755" 
d="M381 592v-1q175 0 261 -92q85 -91 85 -243q0 -230 -181 -390t-423 -172l-2 18q292 117 350 432q-77 -57 -174 -57q-103 0 -185 57q-83 57 -83 179q0 131 100 200q101 69 252 69zM410 167l-1 1q37 0 67 27q4 47 4 86q0 272 -106 272q-44 0 -70 -51q-25 -50 -25 -127
q0 -87 35 -148q34 -60 96 -60z" />
    <glyph glyph-name="zero.dnom" horiz-adv-x="890" 
d="M446 -16l-1 1q-145 0 -261 114q-115 114 -115 329q0 213 116 332t261 119q146 0 260 -118q114 -119 114 -330q0 -219 -116 -333t-258 -114zM443 28q97 0 99 399q0 410 -99 410q-94 0 -94 -404q0 -405 94 -405z" />
    <glyph glyph-name="one.dnom" horiz-adv-x="581" 
d="M104 0l-2 11q50 29 62 53t12 86v458q0 8 -2 24q-1 11 -3 19q-1 7 -8 17q-2 3 -5 8t-4 6q-4 5 -15 14q-8 6 -16 14q-3 3 -21 16l-24 18v9l373 133v-735q0 -61 12 -87q12 -25 59 -54v-10h-418z" />
    <glyph glyph-name="two.dnom" horiz-adv-x="724" 
d="M500 213v-2q56 0 86 15t77 59l8 -4l-88 -283h-541v35q188 197 263 315q77 121 77 218q0 77 -38 118q-37 40 -93 40q-85 0 -176 -88l-23 12q158 230 324 231q96 0 168 -63t72 -175q0 -73 -31 -138q-31 -66 -91 -118q-63 -55 -106 -87q-45 -33 -109 -73l-21 -12h242z" />
    <glyph glyph-name="three.dnom" horiz-adv-x="759" 
d="M78 664v-5q57 98 146 155q88 57 194 57q97 0 156 -46q60 -47 60 -115q0 -80 -75 -138q-75 -59 -175 -84v-3q31 5 66 7q105 0 173 -61q69 -61 69 -174q0 -129 -96 -201t-246 -72q-128 0 -276 51l96 260l10 -2q67 -262 171 -262q47 0 75 55q29 56 29 138q0 90 -39 146
t-111 56q-48 0 -100 -23l-8 29q217 106 217 217q0 45 -35 74t-84 29q-117 0 -201 -103z" />
    <glyph glyph-name="four.dnom" horiz-adv-x="849" 
d="M778 250l-101 1v-100q0 -60 11 -84q11 -23 63 -56v-10h-392v10q47 29 59 53t12 86v100h-369v10l586 614h29v-546h115zM183 329h248v254z" />
    <glyph glyph-name="five.dnom" horiz-adv-x="786" 
d="M362 537h-4q152 0 242 -72t90 -203q0 -83 -34 -141q-35 -60 -91 -86q-57 -27 -111 -39t-109 -12q-117 0 -278 51l67 311h10q45 -162 94 -243t101 -80q43 0 73 56q30 55 30 138q0 104 -50 152t-129 48q-87 0 -155 -43l129 487h317q57 0 87 11q26 10 67 41l8 -2l-92 -258
h-396l-34 -139q69 23 168 23z" />
    <glyph glyph-name="six.dnom" horiz-adv-x="845" 
d="M506 485l-1 -1q64 0 120 -19q58 -20 104 -75t46 -140q0 -130 -102 -199t-255 -69q-178 0 -264 93q-85 92 -85 244q0 232 184 392q185 161 429 171l2 -21q-142 -58 -231 -170q-88 -110 -115 -259q73 53 168 53zM425 22l-1 1q44 0 68 50q24 49 24 123q0 90 -34 149
q-34 60 -93 60q-34 0 -60 -23q-4 -47 -4 -90q0 -270 100 -270z" />
    <glyph glyph-name="seven.dnom" horiz-adv-x="751" 
d="M168 0l3 1q57 307 342 630h-291q-58 0 -87 -15t-72 -60l-10 2l84 305h570v-37q-49 -50 -88 -106q-32 -45 -67 -99q-28 -42 -52 -109l-36 -99q-12 -34 -27 -109q-15 -78 -18 -97q-3 -21 -15 -108q-7 -48 -13 -99h-223z" />
    <glyph glyph-name="eight.dnom" horiz-adv-x="804" 
d="M393 -16l-1 -1q-137 0 -230 60t-93 161q0 84 53 137q52 52 131 72q-152 90 -152 229q0 111 86 174q85 63 219 63q132 0 212 -55q81 -56 81 -133q0 -66 -58 -108q-57 -41 -120 -55q45 -26 66 -39q16 -10 64 -50q43 -36 64 -85q21 -50 21 -111q0 -131 -102 -195
q-101 -64 -241 -64zM495 546l-1 2q43 65 43 151q0 58 -35 98q-34 39 -86 39q-43 0 -67 -28t-24 -78q0 -59 42 -101t128 -83zM391 30q52 0 86 29q33 29 33 81q0 60 -52 116q-54 58 -180 134q-41 -74 -41 -164q0 -94 42 -145t112 -51z" />
    <glyph glyph-name="nine.dnom" horiz-adv-x="837" 
d="M422 879v2q176 0 261 -93q85 -92 85 -244q0 -230 -181 -390t-423 -172l-2 18q292 117 350 432q-76 -57 -174 -57q-102 0 -185 57t-83 178q0 131 100 200t252 69zM451 457h-1q36 0 67 26q4 47 4 86q0 272 -106 273q-45 0 -71 -51q-26 -52 -26 -126q0 -88 36 -148t97 -60z
" />
    <glyph glyph-name="zero.numr" horiz-adv-x="808" 
d="M406 598l-1 1q-145 0 -261 114t-116 329q0 213 116 332t261 119q146 0 260 -118q114 -119 114 -328q0 -219 -115 -334t-258 -115zM402 642q98 0 99 399q0 410 -99 410q-94 0 -94 -403q0 -406 94 -406z" />
    <glyph glyph-name="one.numr" horiz-adv-x="499" 
d="M63 614l-2 12q50 29 62 53t12 86v457q0 9 -2 23t-3 20q-1 8 -8 18q-2 3 -5 8t-4 6q-4 5 -15 14q-8 6 -16 14q-6 6 -21 17q-17 12 -24 18v8l373 133v-735q0 -62 12 -87t59 -54v-11h-418z" />
    <glyph glyph-name="two.numr" horiz-adv-x="643" 
d="M459 827v-2q56 0 86 15t77 59l8 -4l-88 -283h-541v35q188 197 263 315q77 121 77 219q0 77 -38 117q-37 39 -93 39q-85 0 -176 -88l-23 13q157 229 324 229q96 0 168 -63t72 -175q0 -74 -31 -137q-31 -64 -91 -118q-62 -56 -106 -87q-50 -35 -109 -72q-14 -7 -21 -12h242
z" />
    <glyph glyph-name="three.numr" horiz-adv-x="677" 
d="M37 1278v-3q57 98 146 155q88 57 194 57q97 0 156 -46q60 -47 60 -117q0 -80 -75 -138q-74 -58 -175 -85v-2q35 6 66 6q105 0 173 -61q69 -62 69 -174q0 -129 -96 -201t-246 -72q-127 0 -276 51l96 260l10 -2q67 -262 171 -262q46 0 75 56t29 138q0 90 -39 145t-111 55
q-50 0 -100 -22l-8 29q217 106 217 216q0 45 -34 75q-35 30 -87 30q-115 0 -199 -102z" />
    <glyph glyph-name="four.numr" horiz-adv-x="768" 
d="M737 864h-101v-100q0 -60 11 -85q11 -24 63 -54v-11h-392v11q47 29 59 53t12 86v100h-369v10l586 615h29v-547h115zM142 942h248v254z" />
    <glyph glyph-name="five.numr" horiz-adv-x="704" 
d="M322 1151l-4 -3q152 0 242 -72t90 -202q0 -83 -34 -141q-35 -60 -91 -86q-57 -27 -111 -39t-109 -12q-117 0 -278 51l67 312h10q90 -324 195 -324q43 0 73 57t30 136q0 107 -50 155t-129 48q-87 0 -155 -43l129 488h317q60 0 87 10q28 10 67 42l8 -2l-92 -258h-396
l-34 -140q69 23 168 23z" />
    <glyph glyph-name="six.numr" horiz-adv-x="798" 
d="M479 1102l-1 2q104 0 186 -58q83 -59 83 -180q0 -129 -100 -198q-101 -69 -255 -69q-173 0 -259 92q-85 91 -85 243q0 229 182 388q182 160 423 173l4 -20q-145 -57 -234 -170t-116 -261q76 58 172 58zM402 639v-1q44 0 70 51q25 50 25 125q0 89 -35 150q-34 60 -93 60
q-37 0 -69 -27q-4 -47 -4 -86q0 -272 106 -272z" />
    <glyph glyph-name="seven.numr" horiz-adv-x="669" 
d="M127 614l3 -1q57 307 342 630h-291q-59 0 -87 -15t-72 -60l-10 2l84 306h570v-37q-49 -50 -88 -106q-32 -45 -67 -99q-28 -42 -52 -109l-36 -99q-12 -33 -27 -108t-18 -96t-15 -108q-10 -70 -13 -100h-223z" />
    <glyph glyph-name="eight.numr" horiz-adv-x="722" 
d="M352 598l-3 -3q-137 0 -230 60t-93 161q0 83 53 138q52 54 131 72q-152 90 -152 232q0 110 85 171q86 62 222 62q132 0 212 -55q81 -56 81 -132q0 -66 -58 -108t-120 -54q45 -26 66 -39q16 -10 64 -50q43 -36 64 -85q21 -50 21 -111q0 -131 -102 -195q-101 -64 -241 -64z
M452 1158l-1 -1q43 65 43 152q0 58 -35 98q-34 39 -86 39q-43 0 -67 -27t-24 -79q0 -57 42 -99q42 -43 128 -83zM348 639l-1 -2q52 0 86 29q33 28 33 83q0 59 -51 116t-180 135q-41 -74 -41 -162q0 -90 41 -145q41 -54 113 -54z" />
    <glyph glyph-name="nine.numr" horiz-adv-x="755" 
d="M381 1493v-2q175 0 261 -92q85 -91 85 -243q0 -230 -181 -390t-423 -172l-2 18q292 117 350 433q-76 -56 -174 -58q-103 0 -185 57q-83 57 -83 180q0 131 100 200q101 69 252 69zM410 1067l-1 1q37 0 67 27q4 47 4 86q0 272 -106 272q-44 0 -70 -51q-25 -50 -25 -127
q0 -87 35 -148q34 -60 96 -60z" />
    <glyph glyph-name="zero.inferior.zero" horiz-adv-x="808" 
d="M405 592l-1 1q146 0 260 -118q114 -119 114 -330q0 -219 -115 -333t-258 -114q-145 0 -261 114t-116 329q0 213 116 332t261 119zM404 550h-2q-95 0 -97 -404v-39q34 34 62 63q42 44 72 78q23 26 55 66q-17 236 -90 236zM399 -259q97 0 99 405v70q-166 -177 -191 -207
q13 -268 92 -268z" />
    <glyph glyph-name="zero.dnom.zero" horiz-adv-x="851" 
d="M426 879l-2 1q146 0 261 -118t115 -330q0 -219 -116 -333t-258 -114q-146 0 -261 114q-116 114 -116 329q0 213 116 332t261 119zM424 837h-1q-96 0 -96 -404v-14q134 139 184 217q-19 201 -87 201zM423 28h-1q96 0 96 422q0 41 -2 79q-8 -9 -39 -43t-55 -60
q-72 -79 -93 -103q10 -295 94 -295z" />
    <glyph glyph-name="zero.numr.zero" horiz-adv-x="851" 
d="M426 1493l-2 1q146 0 261 -118t115 -328q0 -218 -116 -334q-115 -115 -258 -115q-146 0 -261 114q-116 114 -116 329q0 213 116 332t261 119zM424 1451l-1 -1q-96 0 -96 -403v-15q133 138 184 216q-20 203 -87 203zM423 641l-1 -1q96 0 96 422q0 42 -2 80q-8 -9 -39 -43
t-55 -60q-72 -79 -93 -103q10 -295 94 -295z" />
    <glyph glyph-name="colon.aalt" horiz-adv-x="565" 
d="M285 745l-2 -2q-84 0 -148 62q-63 61 -63 147t63 149t149 63t147 -63q62 -64 62 -148q0 -86 -61 -147t-147 -61zM283 141l-2 -2q-84 0 -148 62q-63 61 -63 147t63 149t149 63t147 -63q62 -64 62 -148q0 -86 -61 -147t-147 -61z" />
    <glyph glyph-name="exclamdown.aalt" horiz-adv-x="536" 
d="M272 1485l-2 -1q86 0 147 -60q62 -60 62 -144q0 -82 -61 -142q-62 -60 -147 -60t-148 60t-63 143q0 84 62 144t150 60zM229 1011h76q109 -647 207 -987v-25h-487v25q101 338 204 987z" />
    <glyph glyph-name="questiondown.aalt" horiz-adv-x="1054" 
d="M625 1479l-2 -2q89 0 150 -58q62 -59 62 -142q0 -84 -61 -144q-62 -60 -150 -60q-86 0 -147 60t-61 144q0 82 62 142t147 60zM682 1006l-3 -2q0 -106 -27 -198q-28 -93 -64 -156q-38 -64 -75 -123t-63 -126q-25 -66 -25 -139q0 -96 41 -163q40 -66 92 -66q23 0 44 15
t39 39q15 21 34 56q17 31 30 66t24 69q14 46 20 68q9 33 15 57l10 40l2 17l15 4l202 -371l-2 -2q-200 -119 -436 -126h-31q-195 0 -331 87t-136 268q0 96 45 173t114 132q72 58 139 105q68 48 136 122q67 73 95 154h96z" />
    <glyph glyph-name="slash.case" horiz-adv-x="679" 
d="M-6 -199l592 1821h73l-591 -1821h-74z" />
    <glyph glyph-name="backslash.aalt" horiz-adv-x="669" 
d="M690 -199h-74l-591 1821h73z" />
    <glyph glyph-name="parenleft.aalt" horiz-adv-x="817" 
d="M795 1673l-2 -4q-176 -188 -263 -405q-87 -218 -87 -570q0 -350 87 -567t264 -405l-13 -21q-99 35 -188 84t-184 135q-94 85 -163 190q-68 104 -112 258q-44 155 -44 329q0 177 44 330q44 152 111 257t163 190q96 86 186 135q89 49 188 87z" />
    <glyph glyph-name="parenright.aalt" horiz-adv-x="780" 
d="M39 1696l-1 2q99 -38 188 -87q90 -49 186 -135q96 -85 163 -190q68 -105 111 -256q44 -153 44 -330q0 -173 -44 -328q-44 -154 -112 -258q-69 -105 -163 -190q-95 -86 -184 -135t-188 -84l-12 21q176 188 263 405t87 567q0 352 -87 570q-87 217 -263 405z" />
    <glyph glyph-name="braceleft.aalt" horiz-adv-x="858" 
d="M569 219l-3 -2q-8 -85 -8 -147q0 -98 15 -162t56 -102t69 -54q27 -16 95 -42l-7 -18q-73 0 -147 11q-69 10 -144 44q-73 33 -129 84t-90 135q-34 83 -34 191q0 40 4 63l12 105q4 40 4 61q0 132 -61 206t-120 85v33q58 10 120 86t62 207q0 21 -4 61l-12 102q-4 24 -4 64
q0 132 50 229q50 96 134 146q85 50 173 71t186 21l7 -19q-56 -21 -75 -31q-22 -12 -60 -39q-37 -27 -54 -59q-15 -29 -31 -89q-15 -57 -15 -133q0 -66 10 -159l9 -75q2 -22 2 -43q0 -168 -88 -262t-216 -94q127 0 216 -93q89 -94 89 -261q0 -21 -2 -43z" />
    <glyph glyph-name="braceright.aalt" horiz-adv-x="817" 
d="M561 1065l-7 -3q-4 -40 -4 -61q0 -133 60 -208q59 -74 119 -85v-33q-60 -11 -119 -85q-60 -75 -60 -206q0 -21 4 -61l12 -105q5 -27 6 -61q0 -133 -51 -229q-51 -95 -135 -145q-83 -49 -174 -70q-90 -21 -186 -21l-6 18q51 19 77 32q27 14 62 40q38 29 54 61q17 33 30 91
q14 61 14 137q0 69 -8 149l-8 78q-2 22 -2 43q0 168 87 261t216 93q-128 0 -217 95q-88 94 -88 263q0 21 2 43l8 75q8 85 8 146q0 82 -13 138q-14 62 -28 92q-15 34 -54 62q-40 29 -61 39q-23 10 -75 30l6 19q76 0 148 -12t147 -45t129 -84q55 -52 89 -135q35 -85 35 -192
q0 -32 -5 -62z" />
    <glyph glyph-name="bracketleft.aalt" horiz-adv-x="698" 
d="M637 1624h-174v-1851h174v-62h-473v1975h473v-62z" />
    <glyph glyph-name="bracketright.aalt" horiz-adv-x="681" 
d="M49 1624v62h473v-1975h-473v62h176v1851h-176z" />
    <glyph glyph-name="hyphen.aalt" horiz-adv-x="780" 
d="M719 715v-113h-653v113h653z" />
    <glyph glyph-name="endash.aalt" horiz-adv-x="987" 
d="M926 692v-88h-860v88h860z" />
    <glyph glyph-name="emdash.aalt" horiz-adv-x="1845" 
d="M1784 692v-88h-1718v88h1718z" />
    <glyph glyph-name="guillemotleft.aalt" horiz-adv-x="1273" 
d="M721 1190l1 2q-100 -256 -240 -471q142 -223 240 -474h-84q-212 197 -564 462v20q331 246 563 461h84zM1205 1192v-1q-91 -243 -239 -471q151 -237 239 -473h-84q-216 203 -561 463v20q322 238 561 462h84z" />
    <glyph glyph-name="guillemotright.aalt" horiz-adv-x="1273" 
d="M74 1190h86q248 -227 563 -461v-20q-343 -259 -564 -463h-84q98 253 240 473q-138 210 -241 471zM561 1190h84q240 -224 561 -462v-20q-345 -260 -561 -463h-84q89 239 240 474q-149 227 -240 471z" />
    <glyph glyph-name="guilsinglleft.aalt" horiz-adv-x="790" 
d="M721 1190l1 2q-100 -256 -240 -471q142 -223 240 -474h-84q-212 197 -564 462v20q331 246 563 461h84z" />
    <glyph glyph-name="guilsinglright.aalt" horiz-adv-x="790" 
d="M74 1190l86 -1q248 -227 563 -461v-20q-343 -259 -564 -463h-84q95 249 239 474q-140 215 -240 471z" />
    <glyph glyph-name="cent.oldstyle" horiz-adv-x="1067" 
d="M1047 420l-3 -1q-29 -175 -136 -300q-108 -126 -297 -138v-170h-71v168q-96 6 -183 39t-160 94q-73 62 -117 165q-43 102 -43 234q0 245 141 373q140 127 362 139v135h71v-133q145 -6 244 -75q100 -70 149 -162l-254 -188l-17 6q-6 117 -36 213q-30 95 -84 127v-661
q56 -31 136 -31q172 0 279 176zM443 667v1q0 -225 97 -328v618q-46 -12 -71 -90q-26 -80 -26 -201z" />
    <glyph glyph-name="dollar.oldstyle" horiz-adv-x="1210" 
d="M1143 442l2 3q0 -121 -44 -217q-43 -94 -120 -145t-159 -78q-81 -26 -174 -31v-155h-88v157q-208 12 -446 101l-29 514h16q95 -192 217 -342q123 -151 242 -186v424q-50 30 -76 45q-4 2 -45 24t-51 30q-2 2 -50 31q-41 25 -54 37q-21 19 -48 41q-33 27 -48 48
q-4 6 -16.5 24t-20.5 29q-22 30 -31 63q-9 31 -18 72t-9 81q0 187 131 300q130 112 333 123v145h88v-145q161 -7 378 -62l43 -504h-16q-86 165 -192 302q-107 139 -213 179v-365l74 -41q207 -117 262 -160q151 -118 162 -309v-33zM426 1213l-1 -1q0 -51 29 -89
q28 -37 105 -84v328q-54 -6 -94 -47q-39 -40 -39 -107zM646 55l-2 -1q64 6 107 48q44 42 44 124q0 62 -32 108q-31 44 -117 100v-379z" />
    <glyph glyph-name="Euro.oldstyle" horiz-adv-x="1392" 
d="M870 47l-4 1q62 0 180 153q120 155 224 336h16l-33 -510q-67 -17 -204 -37q-129 -19 -227 -19q-110 0 -208 30t-192 99q-93 68 -154 206q-59 135 -70 330h-160v70h158q0 47 8 138h-166v65h176q50 259 222 392q173 134 411 134q145 0 412 -54l32 -493h-16
q-117 186 -231 333t-165 147q-26 0 -55 -38q-28 -38 -57 -147q-29 -110 -39 -271h428l-12 -65h-420q-2 -58 -2 -139h371l-13 -70h-358q4 -204 29 -345q24 -138 54 -192t65 -54z" />
    <glyph glyph-name="sterling.oldstyle" horiz-adv-x="1196" 
d="M1092 530l10 -3l-55 -530h-998v106q215 140 215 420q0 33 -3 59t-12 51q-11 32 -13 36q-7 16 -19 39q-16 31 -17 33h-162v66h129q-25 66 -25 149q0 205 140 343t411 138q161 0 360 -39l45 -449h-19q-95 167 -210 292q-114 124 -215 124q-52 0 -99 -35q-46 -34 -46 -111
q0 -57 33 -112t69 -129t42 -168h260v-66h-258q-12 -295 -340 -454h498q77 0 150 72t129 168z" />
    <glyph glyph-name="yen.oldstyle" horiz-adv-x="1419" 
d="M1014 1409h409v-14q-135 -131 -233 -305l-197 -340h234v-66h-271l-6 -10v-150h279v-65h-279v-209q0 -106 21 -144t105 -90v-16h-741v16q84 50 105 88q21 39 21 146v209h-271v65h271v140l-12 20h-261v66h220l-277 446q-56 91 -131 199v14h731v-14q-104 -84 -104 -142
q0 -42 65 -145l223 -346l179 328q39 70 39 114q0 86 -119 191v14z" />
    <glyph glyph-name="cent.tnum" 
d="M1122 420h-3q-27 -173 -134 -300q-107 -126 -297 -138v-170h-69v168q-213 14 -357 147t-144 385q0 248 144 375t359 138v135h69v-133q142 -6 243 -75q100 -69 147 -161l-254 -191l-14 6q-16 280 -123 342v-661q66 -33 139 -33q172 0 276 176zM521 670v1q0 -226 97 -330
v621q-46 -12 -71 -91q-26 -81 -26 -201z" />
    <glyph glyph-name="dollar.tnum" 
d="M1149 449h-3q0 -125 -45 -219q-45 -95 -121 -147q-78 -53 -159 -80q-81 -26 -174 -31v-159h-86v161q-210 12 -447 103l-29 518h16q95 -187 216 -342q121 -154 245 -192v439l-80 47q-2 1 -59 34q-50 29 -73 45q-4 3 -16 11.5t-25.5 18.5t-28.5 20q-51 35 -74 66
q-21 28 -54 77q-29 44 -43 101q-13 53 -13 117q0 193 132 307q131 113 335 124v148h86v-148q172 -7 379 -63l43 -508h-16q-84 163 -192 303t-214 180v-379q17 -11 72 -42q215 -123 272 -168q147 -122 156 -316v-26zM427 1235h-1q0 -54 29 -94q28 -38 105 -88v340
q-55 -6 -94 -48t-39 -110zM645 53v1q63 6 107 50t44 128q0 68 -31 111q-32 44 -120 101v-391z" />
    <glyph glyph-name="Euro.tnum" 
d="M780 47l-4 -3q57 0 175 160q120 162 216 334h15l-31 -512q-219 -56 -420 -58q-82 0 -157 18q-77 19 -155 64q-80 47 -140 120q-59 72 -103 197q-44 123 -51 280h-152v68h150q0 46 8 147h-158v68h168q45 258 214 396t402 138q143 0 399 -55l33 -498h-16q-111 182 -228 334
q-115 150 -160 150q-23 0 -47 -36q-23 -35 -49 -147q-25 -111 -36 -281h406l-10 -68h-400q-2 -60 -2 -143v-4h350l-12 -68h-338q5 -196 24 -336q19 -137 47 -202q27 -63 62 -63z" />
    <glyph glyph-name="sterling.tnum" 
d="M1106 535l12 -1l-55 -535h-997v106q107 74 161 189q54 116 54 244q0 34 -3 59t-12 52q-10 30 -13 37q-6 14 -19 40q-4 8 -8.5 16.5t-6.5 12.5t-2 5h-162v67h131q-27 67 -26 156q0 207 139 346t412 139q155 0 357 -41l45 -450h-18q-97 173 -213 297q-115 124 -213 124
q-53 0 -99 -37t-46 -120q0 -56 32 -114q35 -63 69 -130q37 -72 43 -171h258v-67h-256q-8 -301 -342 -471h499q73 0 147 73q75 73 132 174z" />
    <glyph glyph-name="yen.tnum" 
d="M1266 1423l2 -1q-124 -130 -213 -309l-176 -352h217v-66h-246v-164h248v-65h-248v-217q0 -107 21 -144t105 -90v-16h-739v16q84 50 105 88q21 39 21 146v217h-243v65h243v144l-10 20h-235v66h200l-245 461q-11 18 -51 87t-60 114v15h688v-15q-86 -80 -86 -138
q0 -43 60 -151l188 -345l152 328q34 73 33 120q0 84 -108 186v15h377v-15z" />
    <glyph glyph-name="cent.tnum.oldstyle" 
d="M1122 420h-3q-27 -173 -134 -300q-107 -126 -297 -138v-170h-69v168q-213 14 -357 147t-144 385q0 248 144 375t359 138v135h69v-133q142 -6 243 -75q100 -69 147 -161l-254 -191l-14 6q-16 280 -123 342v-661q66 -33 139 -33q172 0 276 176zM521 670v1q0 -226 97 -330
v621q-46 -12 -71 -91q-26 -81 -26 -201z" />
    <glyph glyph-name="dollar.tnum.oldstyle" 
d="M1149 449l-3 3q0 -124 -45 -219t-121 -147q-78 -53 -159 -80q-81 -26 -174 -31v-159h-86v161q-210 12 -447 103l-29 518h16q95 -188 216 -342t245 -192v439l-82 49q-10 6 -57 33q-54 32 -71 43q-9 6 -33 23.5t-37 26.5q-45 32 -73 66q-27 33 -57 78q-29 44 -43 99
q-13 52 -13 117q0 193 132 307q131 113 335 124v148h86v-148q172 -7 379 -63l43 -508h-16q-84 164 -192 303q-108 140 -214 180v-379l70 -40q13 -8 78 -46t78 -46q3 -2 65 -42q47 -30 62 -47t48 -48q33 -32 45 -58q3 -6 8 -18t10 -23l10 -22q17 -36 21 -76q5 -45 5 -87z
M427 1240h-1q0 -54 29 -94q28 -38 105 -88v340q-55 -6 -94 -48t-39 -110zM645 56h-2q64 6 107 51q44 46 44 134q0 65 -32 108t-117 98v-391z" />
    <glyph glyph-name="Euro.tnum.oldstyle" 
d="M776 47l-2 2q47 0 161 156q115 157 212 335h16l-30 -510q-209 -56 -408 -57q-77 0 -147 15t-148 60q-77 44 -136 117q-57 71 -100 194q-42 121 -51 279h-143v70h141q0 51 9 141h-150v65h160q45 259 207 392q163 134 384 134q131 0 383 -54l30 -493h-16q-114 187 -222 332
q-110 147 -147 147q-10 0 -21 -11q-9 -9 -25 -44q-15 -34 -27 -82q-11 -45 -22 -132q-10 -75 -16 -188h377l-13 -65h-368q-2 -58 -2 -141h325l-12 -70h-313q4 -199 21 -336q17 -138 40 -196q24 -60 53 -60z" />
    <glyph glyph-name="sterling.tnum.oldstyle" 
d="M1106 530l11 -1l-55 -530h-997v106q113 74 164 188t51 234q0 27 -3 51t-6 39t-12 36q-12 28 -13 30q-8 16 -16 30q-4 8 -9.5 17.5t-6.5 11.5h-160v66h129q-25 68 -24 150q0 203 139 341q140 138 412 138q160 0 358 -39l45 -449h-18q-97 169 -212 293q-114 123 -214 123
q-52 0 -99 -35q-46 -34 -46 -111q0 -57 33 -112t69 -129t42 -168h258v-66h-256q-8 -296 -342 -456h499q72 0 147 72q74 71 132 170z" />
    <glyph glyph-name="yen.tnum.oldstyle" 
d="M1266 1397l3 -1l-84 -98q-23 -28 -58 -81q-33 -51 -72 -126l-174 -340h215v-66h-246v-160h248v-65h-248v-209q0 -107 21 -144t105 -90v-16h-739v16q84 50 105 88q21 39 21 146v209h-243v65h243v140l-10 20h-235v66h198l-241 448q-8 18 -52 88q-43 70 -61 111v14h688v-14
q-88 -82 -88 -138q0 -40 62 -152l188 -334l152 318q34 76 33 118q0 84 -108 187v14h377v-14z" />
    <glyph glyph-name="at.aalt" horiz-adv-x="1603" 
d="M1399 205l157 -166q-309 -141 -626 -141q-374 0 -627 219t-253 586q0 352 231 583t572 231q280 0 459 -161q178 -160 174 -414l-12 -686h-21q-143 113 -231 113q-51 0 -105 -39q-49 -36 -120 -79q-65 -40 -152 -40q-168 0 -273 137q-105 136 -105 356q0 226 111 368
q111 143 306 143q84 0 155 -25q74 -26 107 -55v43q0 25 -21 67q-22 44 -61 93q-40 51 -120 87t-175 36q-40 0 -85 -8q-42 -7 -96 -30q-55 -23 -99 -70t-84 -119q-38 -69 -61 -186q-22 -113 -22 -261q0 -114 14 -224q13 -104 53 -219q39 -112 102 -193q62 -80 168 -133
q104 -52 242 -52q171 0 298 71t200 168zM1130 428l16 505q-27 81 -71 147q-44 65 -96 65q-111 0 -111 -360q0 -438 142 -439q68 0 120 82z" />
    <glyph glyph-name="bar.aalt" horiz-adv-x="366" 
d="M223 -199h-76v1821h76v-1821z" />
    </font>
</defs>
</svg>
